<mxfile host="app.diagrams.net" modified="2024-07-12T08:53:20.571Z" agent="Mozilla/5.0 (Macintosh; Intel Mac OS X 10_15_7) AppleWebKit/605.1.15 (KHTML, like Gecko) Version/17.5 Safari/605.1.15" etag="KMx6nDzIWTxRSCBfNLbP" version="24.6.4" type="device">
  <diagram name="Page-1" id="ViAk4PCAnxAhcVD4fH7W">
    <mxGraphModel dx="1485" dy="367" grid="1" gridSize="10" guides="1" tooltips="1" connect="1" arrows="1" fold="1" page="1" pageScale="1" pageWidth="827" pageHeight="1169" math="0" shadow="0">
      <root>
        <mxCell id="0" />
        <mxCell id="1" parent="0" />
        <mxCell id="5wV4bRW26JI0M855Ar_4-25" style="edgeStyle=orthogonalEdgeStyle;rounded=0;orthogonalLoop=1;jettySize=auto;html=1;" edge="1" parent="1" source="5wV4bRW26JI0M855Ar_4-1" target="5wV4bRW26JI0M855Ar_4-24">
          <mxGeometry relative="1" as="geometry">
            <Array as="points">
              <mxPoint x="300" y="294" />
              <mxPoint x="360" y="294" />
            </Array>
          </mxGeometry>
        </mxCell>
        <mxCell id="5wV4bRW26JI0M855Ar_4-31" style="edgeStyle=orthogonalEdgeStyle;rounded=0;orthogonalLoop=1;jettySize=auto;html=1;" edge="1" parent="1" source="5wV4bRW26JI0M855Ar_4-1" target="5wV4bRW26JI0M855Ar_4-26">
          <mxGeometry relative="1" as="geometry">
            <Array as="points">
              <mxPoint x="270" y="327" />
              <mxPoint x="310" y="327" />
            </Array>
          </mxGeometry>
        </mxCell>
        <mxCell id="5wV4bRW26JI0M855Ar_4-1" value="" style="shape=image;verticalLabelPosition=bottom;labelBackgroundColor=default;verticalAlign=top;aspect=fixed;imageAspect=0;image=data:image/png,iVBORw0KGgoAAAANSUhEUgAAAbYAAABUCAYAAADu8hJNAAAMQmlDQ1BJQ0MgUHJvZmlsZQAASImVVwdYU8kWnluSkEBoAQSkhN4EESkBpITQAkgvgqiEJEAoMQaCih1ZVHAtqIiADV0VUeyAWFDEzqLY+2JBQVkXC3blTQrouq98b75v7vz3nzP/OXPuzL13AFA7wRGJslF1AHKEeeLoID/6hMQkOqkHEIA2IAMboM3h5oqYkZFhAJah9u/l3Q2ASNur9lKtf/b/16LB4+dyAUAiIU7l5XJzID4IAF7NFYnzACBKebPpeSIphhVoiWGAEC+W4nQ5rpbiVDneK7OJjWZB3AaAkgqHI04HQPUy5On53HSoodoPsaOQJxACoEaH2DsnZyoP4hSIraGNCGKpPiP1B530v2mmDmtyOOnDWD4XWVHyF+SKsjkz/890/O+Sky0Z8mEJq0qGODhaOmeYt1tZU0OlWAXiPmFqeATEmhB/EPBk9hCjlAxJcJzcHjXg5rJgzoAOxI48jn8oxAYQBwqzw8MUfGqaIJANMVwh6AxBHjsWYl2IF/NzA2IUNpvEU6MVvtCGNDGLqeDPccQyv1JfDyRZcUyF/usMPluhj6kWZMQmQEyB2DxfEB8OsSrEDrlZMaEKm3EFGazwIRuxJFoavznE0XxhkJ9cH8tPEwdGK+xLcnKH5ottyhCwwxV4f15GbLA8P1gblyOLH84Fu8wXMuOGdPi5E8KG5sLj+wfI54718IVxMQqdD6I8v2j5WJwiyo5U2OOm/OwgKW8KsXNufoxiLB6fBxekXB9PE+VFxsrjxAsyOSGR8njwFSAMsIA/oAMJrKlgKsgEgo6+xj54J+8JBBwgBumAD+wVzNCIBFmPEF5jQAH4EyI+yB0e5yfr5YN8yH8dZuVXe5Am682XjcgCTyHOAaEgG95LZKOEw97iwRPICP7hnQMrF8abDau0/9/zQ+x3hgmZMAUjGfJIVxuyJAYQ/YnBxECiDa6Pe+OeeBi8+sLqhDNw96F5fLcnPCV0Eh4RrhO6CLenCArFP0U5HnRB/UBFLlJ/zAVuCTVdcD/cC6pDZVwH1wf2uDP0w8R9oGcXyLIUcUuzQv9J+28z+OFpKOzIjmSUPILsS7b+eaSqrarLsIo01z/mRx5r6nC+WcM9P/tn/ZB9HmxDf7bEFmMHsLPYSew8dhRrBHSsBWvC2rFjUjy8up7IVteQt2hZPFlQR/APf0NPVprJXMc6x17HL/K+PP4M6TsasKaKZooF6Rl5dCb8IvDpbCHXYRTdydHJGQDp90X++noTJftuIDrt37mFfwDg1TI4OHjkOxfSAsA+N7j9D3/nrBnw06EMwLnDXIk4X87h0gsBviXU4E7TA0bADFjD+TgBV+AJfEEACAERIBYkgskw+gy4zsVgOpgNFoBiUApWgDWgEmwEW8AOsBvsB43gKDgJzoCL4DK4Du7C1dMNXoB+8A58RhCEhFARGqKHGCMWiB3ihDAQbyQACUOikUQkBUlHhIgEmY0sREqRMqQS2YzUIvuQw8hJ5DzSidxGHiK9yGvkE4qhKqgWaohaoqNRBspEQ9FYdBKajk5DC9AidBlagdagu9AG9CR6Eb2OdqEv0AEMYMqYDmaC2WMMjIVFYElYGibG5mIlWDlWg9VjzfA5X8W6sD7sI07EaTgdt4crOBiPw7n4NHwuvhSvxHfgDXgbfhV/iPfj3whUggHBjuBBYBMmENIJ0wnFhHLCNsIhwmm4l7oJ74hEog7RiugG92IiMZM4i7iUuJ64h3iC2El8TBwgkUh6JDuSFymCxCHlkYpJ60i7SC2kK6Ru0gclZSVjJSelQKUkJaFSoVK50k6l40pXlJ4pfSarky3IHuQIMo88k7ycvJXcTL5E7iZ/pmhQrChelFhKJmUBpYJSTzlNuUd5o6ysbKrsrhylLFCer1yhvFf5nPJD5Y8qmiq2KiyVZBWJyjKV7SonVG6rvKFSqZZUX2oSNY+6jFpLPUV9QP2gSlN1UGWr8lTnqVapNqheUX2pRlazUGOqTVYrUCtXO6B2Sa1Pnaxuqc5S56jPVa9SP6x+U31Ag6YxRiNCI0djqcZOjfMaPZokTUvNAE2eZpHmFs1Tmo9pGM2MxqJxaQtpW2mnad1aRC0rLbZWplap1m6tDq1+bU1tZ+147RnaVdrHtLt0MB1LHbZOts5ynf06N3Q+jTAcwRzBH7FkRP2IKyPe647U9dXl65bo7tG9rvtJj64XoJelt1KvUe++Pq5vqx+lP11/g/5p/b6RWiM9R3JHlozcP/KOAWpgaxBtMMtgi0G7wYChkWGQochwneEpwz4jHSNfo0yj1UbHjXqNacbexgLj1cYtxs/p2nQmPZteQW+j95sYmASbSEw2m3SYfDa1Mo0zLTTdY3rfjGLGMEszW23WatZvbmw+3ny2eZ35HQuyBcMiw2KtxVmL95ZWlgmWiywbLXusdK3YVgVWdVb3rKnWPtbTrGusr9kQbRg2WTbrbS7borYuthm2VbaX7FA7VzuB3Xq7zlGEUe6jhKNqRt20V7Fn2ufb19k/dNBxCHModGh0eDnafHTS6JWjz47+5ujimO241fHuGM0xIWMKxzSPee1k68R1qnK6NpY6NnDsvLFNY1852znznTc433KhuYx3WeTS6vLV1c1V7Frv2utm7pbiVu12k6HFiGQsZZxzJ7j7uc9zP+r+0cPVI89jv8dfnvaeWZ47PXvGWY3jj9s67rGXqRfHa7NXlzfdO8V7k3eXj4kPx6fG55GvmS/Pd5vvM6YNM5O5i/nSz9FP7HfI7z3LgzWHdcIf8w/yL/HvCNAMiAuoDHgQaBqYHlgX2B/kEjQr6EQwITg0eGXwTbYhm8uuZfeHuIXMCWkLVQmNCa0MfRRmGyYOax6Pjg8Zv2r8vXCLcGF4YwSIYEesirgfaRU5LfJIFDEqMqoq6mn0mOjZ0WdjaDFTYnbGvIv1i10eezfOOk4S1xqvFp8cXxv/PsE/oSyha8LoCXMmXEzUTxQkNiWRkuKTtiUNTAyYuGZid7JLcnHyjUlWk2ZMOj9Zf3L25GNT1KZwphxIIaQkpOxM+cKJ4NRwBlLZqdWp/VwWdy33Bc+Xt5rXy/fil/GfpXmllaX1pHulr0rvzfDJKM/oE7AElYJXmcGZGzPfZ0Vkbc8azE7I3pOjlJOSc1ioKcwStk01mjpjaqfITlQs6prmMW3NtH5xqHhbLpI7KbcpTwv+yLdLrCW/SB7me+dX5X+YHj/9wAyNGcIZ7TNtZy6Z+awgsOC3Wfgs7qzW2SazF8x+OIc5Z/NcZG7q3NZ5ZvOK5nXPD5q/YwFlQdaC3wsdC8sK3y5MWNhcZFg0v+jxL0G/1BWrFouLby7yXLRxMb5YsLhjydgl65Z8K+GVXCh1LC0v/bKUu/TCr2N+rfh1cFnaso7lrss3rCCuEK64sdJn5Y4yjbKCsserxq9qWE1fXbL67Zopa86XO5dvXEtZK1nbVRFW0bTOfN2KdV8qMyqvV/lV7ak2qF5S/X49b/2VDb4b6jcabizd+GmTYNOtzUGbG2osa8q3ELfkb3m6NX7r2d8Yv9Vu099Wuu3rduH2rh3RO9pq3WprdxrsXF6H1knqencl77q82393U719/eY9OntK94K9kr3P96Xsu7E/dH/rAcaB+oMWB6sP0Q6VNCANMxv6GzMau5oSmzoPhxxubfZsPnTE4cj2oyZHq45pH1t+nHK86PhgS0HLwAnRib6T6Scft05pvXtqwqlrbVFtHadDT587E3jm1Fnm2ZZzXueOnvc4f/gC40LjRdeLDe0u7Yd+d/n9UIdrR8Mlt0tNl90vN3eO6zx+xefKyav+V89cY1+7eD38eueNuBu3bibf7LrFu9VzO/v2qzv5dz7fnX+PcK/kvvr98gcGD2r+sPljT5dr17GH/g/bH8U8uvuY+/jFk9wnX7qLnlKflj8zflbb49RztDew9/Lzic+7X4hefO4r/lPjz+qX1i8P/uX7V3v/hP7uV+JXg6+XvtF7s/2t89vWgciBB+9y3n1+X/JB78OOj4yPZz8lfHr2efoX0peKrzZfm7+Ffrs3mDM4KOKIObJfAQxWNC0NgNfbAaAmAkCD5zPKRPn5T1YQ+ZlVhsB/wvIzoqy4AlAP/9+j+uDfzU0A9m6Fxy+or5YMQCQVgFh3gI4dO1yHzmqyc6W0EOE5YFPA19ScVPBvivzM+UPcP7dAquoMfm7/BXUcfGK8z2bYAAAAVmVYSWZNTQAqAAAACAABh2kABAAAAAEAAAAaAAAAAAADkoYABwAAABIAAABEoAIABAAAAAEAAAG2oAMABAAAAAEAAABUAAAAAEFTQ0lJAAAAU2NyZWVuc2hvdOaN5qkAAAHVaVRYdFhNTDpjb20uYWRvYmUueG1wAAAAAAA8eDp4bXBtZXRhIHhtbG5zOng9ImFkb2JlOm5zOm1ldGEvIiB4OnhtcHRrPSJYTVAgQ29yZSA2LjAuMCI+CiAgIDxyZGY6UkRGIHhtbG5zOnJkZj0iaHR0cDovL3d3dy53My5vcmcvMTk5OS8wMi8yMi1yZGYtc3ludGF4LW5zIyI+CiAgICAgIDxyZGY6RGVzY3JpcHRpb24gcmRmOmFib3V0PSIiCiAgICAgICAgICAgIHhtbG5zOmV4aWY9Imh0dHA6Ly9ucy5hZG9iZS5jb20vZXhpZi8xLjAvIj4KICAgICAgICAgPGV4aWY6UGl4ZWxZRGltZW5zaW9uPjg0PC9leGlmOlBpeGVsWURpbWVuc2lvbj4KICAgICAgICAgPGV4aWY6UGl4ZWxYRGltZW5zaW9uPjQzODwvZXhpZjpQaXhlbFhEaW1lbnNpb24+CiAgICAgICAgIDxleGlmOlVzZXJDb21tZW50PlNjcmVlbnNob3Q8L2V4aWY6VXNlckNvbW1lbnQ+CiAgICAgIDwvcmRmOkRlc2NyaXB0aW9uPgogICA8L3JkZjpSREY+CjwveDp4bXBtZXRhPgoIVobSAAAe40lEQVR4Ae2dA7Q1ObOGM/rH841t27Zt27Zte2aNbdu2bdu23beenpueJM29z/apWuucjjt5O7urU6mqDBQJGSVFQBFQBBQBRaBHEBi4R8ahw1AEFAFFQBFQBGIElLHpRFAEFAFFQBHoKQSUsfXU49TBKAKKgCKgCChj0zmgCCgCioAi0FMIKGPrqcepg1EEFAFFQBFQxqZzQBFQBBQBRaCnEFDG1lOPUwejCCgCioAioIxN54AioAgoAopATyGgjK2nHqcORhFQBBQBRUAZm84BRUARUAQUgZ5CQBlbTz1OHYwioAgoAoqAMjadA4qAIqAIKAI9hYAytp56nDoYRUARUAQUAWVsOgcUAUVAEegxBH7//Xfz2Wef9WlUH3/8sfn777/71Ea7Kitjaxfyel9FQBFQBJqAAExt+eWXN9NNN515+eWX67rD448/bqaaaiqzxhprmL/++quuNtpZSRlbO9HXeysCikC/RODPP/807733nvnll18Kx0+5d9991/z666+F5dxMmNFtt91mvvjiC7PgggvWzNxgaosttpj5/vvvzZVXXml22mknt/lUuOpY/vjjj8pj+fHHH2N86mWqythSj0kTFAFFQBFoDgLPPPOMWWaZZcyQQw5pJphgAjPssMOajTfe2ITnPV933XVm1llnNUMNNZSZcMIJzdBDD21mmGEG89hjj5V2bK655krK1MrcXKZGI8MNN5xZe+21k/bcwPPPP29WXHHFuI95Y2FcV111lZl55pnjMbhjeeSRR9zmzE8//WSOPPLIGBfuS5uMH7w+/PBDr2xphBO0lRQBRUARUASai8AJJ5wQ/e9//4vkpZz6e/TRR+Oby8s9WnbZZVP5ts6AAQMiYValHT3uuOO8NkYdddTopZdeKqwnTDMShpLUE6YbCfPJrHPSSSeVjkVWXdESSyyRtGfHYK/DDz98MpZXX301mmiiiXLLCpOP/vnnn8y+ZCXypdBwkqVplPcnS8uG368VDf7www/RW2+9FTEBH3744eiVV16JPv/883icrbi/3qO7END50l3Pq9m93W233ZKX9uCDDx7Jii2J86LfZZddom+//TaSlU2SPsIII6TKUfbYY4+t1F0YqWUiXEcZZZToxRdfzKzLe81larJCjB588MHMslXG8tVXX0XTTz99cn/Gy7jd/hCGQT755JMRTM7mjTbaaNHAAw+cxG06jLcqNZyxHXPMMakO2Y5xXWGFFar2rW3lRBMoBvuQQw6J5ptvvszJ5Y6JCbjQQgtFe+21V3TTTTdFPFSl/oOAzpfuedZHHXVUNPnkk7fk784774yBOf/885N34txzzx199NFH0fvvv5+k8S5ZZJFF4j/CvOTPOuuseIXCB9Lss8/uld18880rA37yySdHAw00UFI/i7mFTE3Ef9F9992XeY8qY1l44YUj2duL7wmzvPDCCyPZS0wxbsa68sorR2OMMUZcdtJJJ03uK/uPKUZIO1WpoYzt66+/jnjJuy/9MLzoootW7VvLy7HUvfzyy6Mpp5yycAzhmML4Kqus0vK+6w1bj4DOl9Zj3tc7sjIKf6/Nil977bVxd3mpL7744pEoZESiBBKnIdFyGY7tA6uVF154wRvmAQcc4PV5ww039PLLIqeddpp3L5e5hUyNldXdd9+d22QtYxl99NGj5557zmtr33339cZix81K9ZtvvvHKzjPPPF7Zc845x8svigwqDTeMDjroICPL6cL2yrSACis3MfOhhx4yW2yxhRE5dJ/vIg+0z21oA52NgM6Xzn4+regdCiCWQq1F8uaYY444m/Att9wSh4WZxdc33niDRYWtHl9FVGduvvlmM80006TS3YSxxhrLjZaGN9tsMzPIIIOYTTfdNL7nl19+GWtLHnzwwUYYvZFVYdwG90dpBU3KPKplLLJiNVNPPbXX1DDDDOPFiYw77rjm9ttvN7Io8vJkP9KLU64qNYyxyf6TkWVv6X07kbGJnNfsuOOOBrXVPBp55JFjDSBZzZkPPvjA3HrrrUY2PDOLi+ggM10TewMBnS+98RzdUfC7Rk3eau25eYRRn5eVT5KM5iEfN5b22GMPc/jhh9tozERk9ZXELUOzCU899ZQNJlc0AmeaaaYkbgOyL2aD8XWKKabw4lUiaF7C3LiKpMHA3GB4lmAissI0IlGzSbnXcCyyR5Yqu//++6eYGoXgEy7JXpq57LLLzIgjjugmx+HQBg+7vMpUtJyrJW+llVbylo3Sgcw48u1OIfZGNthgg8x+2v6ziSkrudQy+eeff46QCdty7vXtt9/ulCFqPxqIgM6XvoGJ+I39Z34fr7/+eqU/8Z7Rt5sGtbNEkWjuWRFhUDyJzjnnnN5vXRhdkseY0CC074Ahhhgi+uSTT5L8rIAwlaQ89dj+yFOsm2SSSbyyaBDWS+4eme2vMLzohhtuqLfJKByLMKDcscw222zeWNZZZ53M+7IPafvHVVT/M8vlJTZkj02+XLxOuB0Kw+OMM05eX1qevsMOOxT2Gxl4kVyXDdZwfKjVKvUmAjpfqj9XVL0vuuiiaMstt4y141BICH8rVeK17ieV9TBkbPQLRY4iQgnE7SvKHC7tvffeXv7WW2/tZmeGRUTn1cl7z3z66adeOZQx+MCql9B0dMdCGBMEsa+rt8koHMspp5yS2RYfNiLK9O6PpnkWXXrppV45saXLKpab1mfGxgZ6yIVD4Nz4SCONlNuZVmacfvrpHnBuH20YddkiYoKJzNhrR4wJi6poXpcioPOl2oNDi0/2biJ+5/Z31JdrsxnbzjvvXDqwUIlB9sGSOig8uGryqLSz2igi1Pr5aLa4DDbYYLHGYFad8AWP9mS99MADD6TeV7YPIgpMKXpUuU84FsYfKoHYdp5++ulkzNxX9iBtVuoargLPOOOMVJmihD57HrniiisM1uouYU2fR52wx/bEE0+YrbbaKq+Lcfq6665rttlmm8IyyIexjndJ99dcNHojrPOl2nPE9ZN85BpZwRjRkK5Wqc2lhHEW9kCkMkZWOUkZPGgsueSSSVw+fhPlCxJpr0y5QzQRPcUR9tVExT9p0w3cddddbtSISNSLV40wBvqNdw9IxKXxHhvvMEiYkRE1fRPu58WZBf/CsaB4EiqB2Oqh1xQ8iuTRHXfc4WXNO++8Xrws0iflEZxtsmnq0vjjj29kv82IPZubnIR/++23+KGGG5BJgSYHhMub7bffvtCxJxuZRx99dKWeiPw79slmC4udig3qtQcQ0PlS7SGKWnfsXxAXTkWEAgPadygrVHkH4EqqWTTZZJOZMkWMAw880Lv9Pvvsk8TxpXj88ccncca0++67J/G8gDh48LKs9qSX+P+RkLHV834JmRqajbKnFjMyGKXoGcQKJbJXaMQe19xzzz2Zih9Z/atlLGFZXIZlEQomfCRZEjs3w7OqiYqWc2V5GDvKzbw/Nifl4XppYRncxrSLwqV92DfiGEcqKQIgoPOlfB4gfpx44okzf/Psv+DogD2cPBFV+R0aV+K1116LRDMw2mijjSLeVUWE6M59P+BJwyVErm6+qNO72bnhBRZYwKsnUq/MsqECxaCDDhrV+u5kDHgRsf0kfO+993r3O/vssz3RKHoCopHolcmLhGMRtf28otF4442X9ANR7HfffZdZ9txzz03K0e/VV189s1xRYt17bGgCuW5Q6IAccxBvbJYxtiq+zoo6XW+erBYjsYXwQLMP3F7xV9aXzdl6+6b1Og8BnS/Vnsl6662X+k2x13LNNddUa6BDS+FBw74XuF599dVJT2Hm7EvZfPbJZJWR5OcFUKAIFWnEwW9mce5n2+eKEXMtdP/993tMDX0AGF0WhUbcGIqXaV+GY4FZ5X28MEZ3LGiU5xEfCG5Z3G7VSnXvsWGMLRxX7v8fyZeZQWZbJmJo1z7b9ddfH9ug/dfjdEg0muIxpHM0pb8hoPOl/IljaHzBBRd4BeXFHRski/s8L72bInied8WAGE2748Fml30pS+zJsw1TRohs3fff2GOPbfjLIlccR767v4ZnfVktGdHozKpqhIHFe2pilhTni4JLbAQtijCZ5bFpY7/QkvjBjQ21eb55FI6FbZm8/TV3n5L2ZplllrxmjZiDeHluWVldxqcNsA1WSLVyQsrLYCO+UKTh5M9VgcVnopsXhnEg3A7CpU3YFzfOF43IzdvRNb1nByKg86X8oWy77bap3xQSm26n8Nnjas8S4kDcUtl3ByLCqrarsieX1KN+kfs919kwZXGtBeEM2N4/FI+SH67UkKyJgh9ZpYSDZTsurmOOOWb8vs+qGI4lzyaNutgCu+1SN4+mnXZar6wob8VFTzzxxMQ5cpk2a12iSDmDx7sxHXbltnn+wOzA8ObcamIpjLG17UPWFfCVFAEQ0PlSbR644jh+U9gpcepFNxNMwH0/YDztbk+EugXrr79+5eHCyNy2izz1iycSrywmFEsttVQEI6UNzAxkJZS6tyjEJPXw3SteTlJlihKOOOKIpD73kdVoZvFwLEUiw9DWjRNS8ijctxPFEc8RNG2VGe7XzNgA0n0whPm6cSl02hmW54ui1RQ+rLBPxIs2PlvdX71fexHQ+VKOP6uU8He0ySablFfs8BIwD3dcF198cdJjPA6x/2Tz8drx5ptvJvllAVZAti5XnBDnEXZf7Fu55W0YXYE8hsW5a6zoYITPPvtsXvOF6VYxBklcnhQrHEveggUlEXdRAWMWcWzu/VE2suMMrzA99DvKqCbGhjE2B765NwN4HoBLRR2jrvhZdIu3JByKFtwxEEZbCGUBJUUABHS+lM8DtPnC31GeB43y1jqjBMzCHROrBXe1Fh7gWYtHjCxjZtkrKhw471KXKeAlBK1OTlIpIrQ/+esLiQ/HXKaWNZY//vgj83bhChiXW0UE0+MUGPc5wKhZwbrPoqiNmhhblurzqquummq/7GvX1S5KVW5CAmC43gFcwGyYU2uVFAEQ0PlSbR7Yr3r7G+JatAKp1mp7S4WnV7smAfiTtGeHMVYYTl+ZR5XRitP1SBSZ4rPKyhhalfa6oQyLKFGQiTj6hz22Ml+e4ZgqG2hnGWPLktKgHRkS6UVkNXWKyjQyD2t6ezRDXruuN4G8MprePxDQ+VLtOWf9pmTvw8h+e7UGKpTCOFccp1co2fciaPndeOONSUNim2fWWmutJC72rUZ8Nybx1VZbrXbD4aR29YD41zX89SdCs16USOK/esZdzIGcFlEFfe+995wUE1usiz2Cl0akjLG56q6pyk1IQHW3jIqs/8vqan5vIaDzpdrzzGJsrkp8tVaKS+GiChXvVhAf6fLln9wKr0p4SoH4sBdJVJInqzXjeiFJMjTQEQhUsmPD1Qo2ai7ha2y//fZzk5KwmAIk4axAqxlbaA8S9glXOGWudcI6Gu9dBHS+VHu24sG/WsEuKMUqnfPILOEDFts0S+INw4gnEBs1K6+8sr4zEjQ6L1BpxYa/NPyiuSRHnRtOjQ0PjqNMmQPUVjM2xCNFBFMrY8ZF9fuah/9MvgBhsErtR6DT50v7Efq3B+7qplP6VG8/wtUaPh+t5Ek8bJjDDjssaRoxma7WEjg6MlDK2LA8d0+OtaPgCHH+6qFW77GVvahqOpm1ngHn1JHDFmMn0nwpyqa1wdOFUvsR6NT50n5k/B6IppqfIDFxq5dK60tCmaf8vrRt64rDCCMKbTZqRJXeiG1aEhcFEs9jkdjxVnYSnDSigZYiUMrYxPrd8MXSSOq0FVvWPmEjxxu2hbsajk5nM1pOzY2z8Xiu1BkIlDG2Vs+XzkAl3Qux50olctyI2Del0js5QbQ7Y+/2to+886z0hN/noYcearNid4G6Wkvg6NhAIWPD31i9q7KiEbeasbFHWEQcU9MKYqXKcTj82XOR7H2VsVkk2n/tlPnSfiSKe5DF2Fj9dBNjQ2oi7rKSgbJCFM//SVxOAfeOUFluueVMuyQ8Sac0UIpALmNDfi7+uFINcEDnDDPMkEp3E3DQKX693CQv3GrGhgNQV03X64xEms3YxC7KiOFqrGyT1w8rzw/7pvHWI9Du+dL6Edd3xzzGxoGV3UJZqzX7kcnvNlSaE3eBhUPjg9XuPXKWHHvnSm1AQB5CJuFGRrrj/XHmEkcVlBGeRcK6bnz55Zcva6Kh+UsvvXRhf2655ZaG3s9tDCw4zscdP/71hJF5aZwPpdQZCLRzvrgI4MlBNDQj3DgVEeXeeeedQjdFRfXrzeP4KVxKuXNbtAXrba7l9XDm7vYf42vXEFhOLfDGJic+F/ZRtES933XVM83cRnm/8ixpKyS8fXBcjlI5ApmfE2jp7bnnnjJffRIfkImmkJ/jx8o0DFu9YivbEwk1Pv3R+LEllljCjDzyyMmfqyLsl/w3hnxeJngc4Vh5jsL48ssvU/iiaaXUGQi0c76AgBzKaeQlajjpGLXzYYcd1ogbpWQlYFFim4BTiDkmZsIJJzSsEJCmiPd3W6SpV5RHwmNQUMIQ/4RNvW+jGue3yarM0i677GIwY4LE80XNq7WHHnoo2TO3bVa5IvpGOiae+uNnyLPkmbMiZh7cfffdsWKZnBUZS5fEtVSVZvt3mSzel+USC59puDmpQhxmJ6jm/tV6YF6VexaV4RC9ov7grbsK3XTTTal2XnjhhcKqN998c3wg4amnnur5OQu/BvH/ptQZCLRzvogjhAh/gFnz1bqr4tiU0PWTW37AgAFRqw7zpb/uvQkvssginfEgC3qBA2dXaiJMxFsZX3LJJd64xDNRQWv/Zu2www5enSorNvwflrn7C/HlxGulYgRSe2xo7IVyZQHWbLPNNqUHiFIOKpMrl23O0waq7x9//DHBhNjUtfLvJLFCoOwLXI4oKW0F7Sg8EbjEV1WZejOuuthXs1pWtn6jVmiNxIm+oQF75pln2m4mV2z9ONgwi/hSFQbvZckx8Ea8pHtpNgLerusimy5+R+OVsI3Xcm0kDu2aL9hOWe8WzHN+R9iKWpITqWP3UsI4jDjrjZM52BEJi1sOCQRKD/KitVWbdkX1ndWGiEOTe9x5551GjjAxHNrbqcRqzWok08eddtopXvkSZrXG3ptLZXtr8pqtyVyH8nJMljn99NOT27DXv/322xu8IGELzJwW/7xJvg2olySLRME15Hviwsb76pCqcVwMscOiuXERkWS2YduS5X7pXh3enG15e63leAi3c8itw/OAbJtcRRMq14s17bBSxYu3W4cwRyjUSxdeeKHXXr0rtkbixFiQ4YfjJF7Uv3nnnTdVB0zz6PDDD0+V5x71HrHBfRqJQzvmC852Le5zzz13JF4uIjkdOUkjj5UQf4Q5PFLMReK5yTPjeBFbn+vmm2+eB3/D08V42bu37cdCCy1U+QDOhneqoEFxDegdlCxbCxGrYEvhqQXhsVy2nHsN64BB0YqN35PFiSunpvC8Q5pvvvm8cjz3qpKzsK3+FPf22Nj/wXVMSMj6kftWpbIVEF+Y4rG5sDn2DULK0ygMy4VxNA45yj2PWBmGqzFblq9fjk3nCzgkeZmESS2PNxKnejvPF25IWWm2TFGeLVPrtZE4tGO+yKGNBm8+8hI1rHhQO0dt3l3Zk84fey+Y4iDBIB/JAXu/LrkrKDe9GeFdd93VzDXXXKmm2RuaZpppjJzRFttsiijVYA6Aayr2mav8NcNtF15EkExY2nHHHeO9LeLy8q95tcY4arFtY+WNDaulscce24iSWWwYbtPslX03l2abbTZvTrh5Gv4PgUQUiWgD/2c82JAQc8CssMgvI8oWqfrb+meccYaZc845bTR1HWaYYVJpn3zySSqtaoKsKmJP3aLtmVlF9sAMNi28XFDyQBTAJj7poo2UWYdJ1m5qNE7tHk+99280Dq2eL3w8inZuPHzLzPD6E/4eEVHKvm3MMFysQhE9jLFVhMhU9owNH3q85F1CUYyXuPsid/PLwo12gsx7zP14R/znikxRyHHF6jAdObAzfje4fUWMiRNoFGVwx1Vm1G/rwqi33XZbG42vfDTnmRyFinYqhvSgy40MykRE25GHHYLo1pKD38x2220Xy4XddBtmFQYTgHHwgywj3NTwA8bKP+tYCqud5LYTGjW7eVXCGEajocjxFCHxAuELk7+q1AkrtmbgVHX8nVSuGTi0er5YhmZxtftoNs4VjbiZZprJTYrDOPF1qdVOvZHo8Ltac801zf333+92paPCIgb39gO/+eYbM//88yd9FHFgEibA6jLr/eQVqiFyzDHHeLoDrNBF3JjbgohNvTxlbB4cuZGBRTYci+mKmBq1Wc24jkDDFjnqgyW9nKYdZuXGzzvvvFj9PatAlgq+aGZmFa2cNvrooxs5vjx+OWSJrio3JAVRjsgyUK2ljUaUbQZOjehXq9toBg7tni/h8TlTTjmlwUFCFoWi/TInCllt9DUN0SkfhriLY5XTiSSnQqe6hWTG/pU5cE9VrjEhlBiVKfi471M+fDpBSlTjkNtSfOBa9q2KQK2lHXekeW2GmpM8VA6e6yuxf4K9Cis3UQiJj54INRaz7oGoC/EUGmB8DDz44INZxVqe1micEGmJunhqHKOOOmoqrZEJnHuFfWC91GgcbD/aOV8efvhh2434ytyz54O5GYjBRLEqScJzSplmZ1K4wQH6x3FWaFfzG2H/jRUJ9nii+FCzVnOjPx5du7UGD720OZiUexoK8x1JWB4hEmVFaYlVeNZv0+br9T8EBkWtNVRt/S+7eoiTZt3TZqvXTJdkT+u7777zMjBO5AfbKBp//PGNaCbGzTHZxdrfyDHvsayc1Rw/QiYRV/74Gi0zY2hU36q20wycYPIh9mX9qZXJo6iTp6xTdq+s/GbgEN6n1fOFZ8DHlyWcHuQd4nnffffZYvGVj8V2z1UYnGh3xn9e59ocqXVuN7K7YgfrNQfDD8XPboFQ1V/FkC46xeFEeaS4WGtzwwfK3WvROqq1t/wIJ5lkkviv1rrtLN9qnNo51qJ7txqHVswXNAhdxRH21fjAyiK0mV0qUspyy2m4tQiE+2VZmqS2Rzz7UGyqjM2iU3711P3Lize/BKun0EAYQ1/3NNvm96Lz76A4/fuMehWHUAxZ9FILGRsrJaXOQ8A9gZveoXGZR6zCQ0ZYNAfy2umv6R3H2PBw4motogbrWuf31wcVjltx+heRXsUhVBzJe6lhg+lq8rEnmFc2nEMaby0CIWPLU7D5/fffU0pCbIu0WtO1teg09m4dxdhww4PJgCU2V++5557YWNWm9crVFTPVOqb+hFMRNr2KAzZSjz/+uDf0PGYVlrOOdL3KGukIBML9tDwjetx3vfrqq16f2TcN63sFNOIh0FGMzf2ikSNyYq2qXj3UL/So4Pr6855QRqQ/4ZQx/CSpV3FAYuGa3yCyyhNbybE2CR4E3P01zkXEv6e7ovMKa6SlCITP0NVktR3Bnhhbt5A6wWY27FMnxztKeQTnyxh34+4GjcW8zfJOBrRq30JNQlf8WtZGf8KpCItexaGW/bXQ04cVb7GS48gT8uX8w645SqboeXd7Xui5CSaGuzGcC/DOQ0HOOsFGmc1lfMrYanv6HcXY0DbDj1qvEV/frNAw/uQLmzOrQo0nVLvxF7j++usbTBt4QeFmKctVVK/iVOtz71UcamFslpFZ7OQYmdgP6+233x57r8dEpoqLO1tfr81DYLXVVjNy5ExyA9xxzTLLLLGvT0SP1hSBUx7wJGMZGyLIPHvfpDENeAgMJHs9aeeQXhGN9BUBvr5cw8xa2kM5ABs6pf6DAH4eXb+oqP7nfbHjMQPfplk/Y1YIfChmueDqP2h21kh5juG+qO0htoes2HBdyAeL3a7A2B7PT0rVEeioPbbq3e6uklmrru4agfa2VQjw1e568cETzIwzzph7e/JwsOAaZGNkL8eixOJHZWq50LUl47bbbkudxEBHMNa+9957Y89GuP2zTI28PMUh8pSyEdAVWzYumqoIdBUCeK1HtIVaOEfF5HmL76pB9XBn5YTz2D8l4nR84Lr7b3youA4p0BSX8/V6GI3GD00ZW+Mx1RYVAUVAEagbATRZXTdpfLCE57LV3Xg/qaiMrZ88aB2mIqAIdD4CmP2MMMIIBiNtCAUyxJKs7JSqI6B7bNWx0pKKgCKgCDQVATzOWKbGjTiqSJla7ZArY6sdM62hCCgCikBTEMDTkkus1v755x83ScMVEFDGVgEkLaIIKAKKQCsQCBkbDis4wRsTAKXqCHSUgXb1bmtJRUARUAR6CwEcOTz11FOpQWGo3eyDflM37fIEZWxd/gC1+4qAItAbCOBaKzyqxo4MJRKl6gioVmR1rLSkIqAIKAKKQBcgoHtsXfCQtIuKgCKgCCgC1RFQxlYdKy2pCCgCioAi0AUIKGPrgoekXVQEFAFFQBGojoAytupYaUlFQBFQBBSBLkBAGVsXPCTtoiKgCCgCikB1BJSxVcdKSyoCioAioAh0AQLK2LrgIWkXFQFFQBFQBKojoIytOlZaUhFQBBQBRaALEFDG1gUPSbuoCCgCioAiUB0BZWzVsdKSioAioAgoAl2AwP8BEqyZ171vxJoAAAAASUVORK5CYII=;" vertex="1" parent="1">
          <mxGeometry x="260" y="240" width="123.84" height="23.75" as="geometry" />
        </mxCell>
        <mxCell id="5wV4bRW26JI0M855Ar_4-2" value="" style="shape=image;verticalLabelPosition=bottom;labelBackgroundColor=default;verticalAlign=top;aspect=fixed;imageAspect=0;image=data:image/png,iVBORw0KGgoAAAANSUhEUgAAATEAAABBCAYAAAC5MJMdAAAMQmlDQ1BJQ0MgUHJvZmlsZQAASImVVwdYU8kWnluSkEBoAQSkhN4EESkBpITQAkgvgqiEJEAoMQaCih1ZVHAtqIiADV0VUeyAWFDEzqLY+2JBQVkXC3blTQrouq98b75v7vz3nzP/OXPuzL13AFA7wRGJslF1AHKEeeLoID/6hMQkOqkHEIA2IAMboM3h5oqYkZFhAJah9u/l3Q2ASNur9lKtf/b/16LB4+dyAUAiIU7l5XJzID4IAF7NFYnzACBKebPpeSIphhVoiWGAEC+W4nQ5rpbiVDneK7OJjWZB3AaAkgqHI04HQPUy5On53HSoodoPsaOQJxACoEaH2DsnZyoP4hSIraGNCGKpPiP1B530v2mmDmtyOOnDWD4XWVHyF+SKsjkz/890/O+Sky0Z8mEJq0qGODhaOmeYt1tZU0OlWAXiPmFqeATEmhB/EPBk9hCjlAxJcJzcHjXg5rJgzoAOxI48jn8oxAYQBwqzw8MUfGqaIJANMVwh6AxBHjsWYl2IF/NzA2IUNpvEU6MVvtCGNDGLqeDPccQyv1JfDyRZcUyF/usMPluhj6kWZMQmQEyB2DxfEB8OsSrEDrlZMaEKm3EFGazwIRuxJFoavznE0XxhkJ9cH8tPEwdGK+xLcnKH5ottyhCwwxV4f15GbLA8P1gblyOLH84Fu8wXMuOGdPi5E8KG5sLj+wfI54718IVxMQqdD6I8v2j5WJwiyo5U2OOm/OwgKW8KsXNufoxiLB6fBxekXB9PE+VFxsrjxAsyOSGR8njwFSAMsIA/oAMJrKlgKsgEgo6+xj54J+8JBBwgBumAD+wVzNCIBFmPEF5jQAH4EyI+yB0e5yfr5YN8yH8dZuVXe5Am682XjcgCTyHOAaEgG95LZKOEw97iwRPICP7hnQMrF8abDau0/9/zQ+x3hgmZMAUjGfJIVxuyJAYQ/YnBxECiDa6Pe+OeeBi8+sLqhDNw96F5fLcnPCV0Eh4RrhO6CLenCArFP0U5HnRB/UBFLlJ/zAVuCTVdcD/cC6pDZVwH1wf2uDP0w8R9oGcXyLIUcUuzQv9J+28z+OFpKOzIjmSUPILsS7b+eaSqrarLsIo01z/mRx5r6nC+WcM9P/tn/ZB9HmxDf7bEFmMHsLPYSew8dhRrBHSsBWvC2rFjUjy8up7IVteQt2hZPFlQR/APf0NPVprJXMc6x17HL/K+PP4M6TsasKaKZooF6Rl5dCb8IvDpbCHXYRTdydHJGQDp90X++noTJftuIDrt37mFfwDg1TI4OHjkOxfSAsA+N7j9D3/nrBnw06EMwLnDXIk4X87h0gsBviXU4E7TA0bADFjD+TgBV+AJfEEACAERIBYkgskw+gy4zsVgOpgNFoBiUApWgDWgEmwEW8AOsBvsB43gKDgJzoCL4DK4Du7C1dMNXoB+8A58RhCEhFARGqKHGCMWiB3ihDAQbyQACUOikUQkBUlHhIgEmY0sREqRMqQS2YzUIvuQw8hJ5DzSidxGHiK9yGvkE4qhKqgWaohaoqNRBspEQ9FYdBKajk5DC9AidBlagdagu9AG9CR6Eb2OdqEv0AEMYMqYDmaC2WMMjIVFYElYGibG5mIlWDlWg9VjzfA5X8W6sD7sI07EaTgdt4crOBiPw7n4NHwuvhSvxHfgDXgbfhV/iPfj3whUggHBjuBBYBMmENIJ0wnFhHLCNsIhwmm4l7oJ74hEog7RiugG92IiMZM4i7iUuJ64h3iC2El8TBwgkUh6JDuSFymCxCHlkYpJ60i7SC2kK6Ru0gclZSVjJSelQKUkJaFSoVK50k6l40pXlJ4pfSarky3IHuQIMo88k7ycvJXcTL5E7iZ/pmhQrChelFhKJmUBpYJSTzlNuUd5o6ysbKrsrhylLFCer1yhvFf5nPJD5Y8qmiq2KiyVZBWJyjKV7SonVG6rvKFSqZZUX2oSNY+6jFpLPUV9QP2gSlN1UGWr8lTnqVapNqheUX2pRlazUGOqTVYrUCtXO6B2Sa1Pnaxuqc5S56jPVa9SP6x+U31Ag6YxRiNCI0djqcZOjfMaPZokTUvNAE2eZpHmFs1Tmo9pGM2MxqJxaQtpW2mnad1aRC0rLbZWplap1m6tDq1+bU1tZ+147RnaVdrHtLt0MB1LHbZOts5ynf06N3Q+jTAcwRzBH7FkRP2IKyPe647U9dXl65bo7tG9rvtJj64XoJelt1KvUe++Pq5vqx+lP11/g/5p/b6RWiM9R3JHlozcP/KOAWpgaxBtMMtgi0G7wYChkWGQochwneEpwz4jHSNfo0yj1UbHjXqNacbexgLj1cYtxs/p2nQmPZteQW+j95sYmASbSEw2m3SYfDa1Mo0zLTTdY3rfjGLGMEszW23WatZvbmw+3ny2eZ35HQuyBcMiw2KtxVmL95ZWlgmWiywbLXusdK3YVgVWdVb3rKnWPtbTrGusr9kQbRg2WTbrbS7borYuthm2VbaX7FA7VzuB3Xq7zlGEUe6jhKNqRt20V7Fn2ufb19k/dNBxCHModGh0eDnafHTS6JWjz47+5ujimO241fHuGM0xIWMKxzSPee1k68R1qnK6NpY6NnDsvLFNY1852znznTc433KhuYx3WeTS6vLV1c1V7Frv2utm7pbiVu12k6HFiGQsZZxzJ7j7uc9zP+r+0cPVI89jv8dfnvaeWZ47PXvGWY3jj9s67rGXqRfHa7NXlzfdO8V7k3eXj4kPx6fG55GvmS/Pd5vvM6YNM5O5i/nSz9FP7HfI7z3LgzWHdcIf8w/yL/HvCNAMiAuoDHgQaBqYHlgX2B/kEjQr6EQwITg0eGXwTbYhm8uuZfeHuIXMCWkLVQmNCa0MfRRmGyYOax6Pjg8Zv2r8vXCLcGF4YwSIYEesirgfaRU5LfJIFDEqMqoq6mn0mOjZ0WdjaDFTYnbGvIv1i10eezfOOk4S1xqvFp8cXxv/PsE/oSyha8LoCXMmXEzUTxQkNiWRkuKTtiUNTAyYuGZid7JLcnHyjUlWk2ZMOj9Zf3L25GNT1KZwphxIIaQkpOxM+cKJ4NRwBlLZqdWp/VwWdy33Bc+Xt5rXy/fil/GfpXmllaX1pHulr0rvzfDJKM/oE7AElYJXmcGZGzPfZ0Vkbc8azE7I3pOjlJOSc1ioKcwStk01mjpjaqfITlQs6prmMW3NtH5xqHhbLpI7KbcpTwv+yLdLrCW/SB7me+dX5X+YHj/9wAyNGcIZ7TNtZy6Z+awgsOC3Wfgs7qzW2SazF8x+OIc5Z/NcZG7q3NZ5ZvOK5nXPD5q/YwFlQdaC3wsdC8sK3y5MWNhcZFg0v+jxL0G/1BWrFouLby7yXLRxMb5YsLhjydgl65Z8K+GVXCh1LC0v/bKUu/TCr2N+rfh1cFnaso7lrss3rCCuEK64sdJn5Y4yjbKCsserxq9qWE1fXbL67Zopa86XO5dvXEtZK1nbVRFW0bTOfN2KdV8qMyqvV/lV7ak2qF5S/X49b/2VDb4b6jcabizd+GmTYNOtzUGbG2osa8q3ELfkb3m6NX7r2d8Yv9Vu099Wuu3rduH2rh3RO9pq3WprdxrsXF6H1knqencl77q82393U719/eY9OntK94K9kr3P96Xsu7E/dH/rAcaB+oMWB6sP0Q6VNCANMxv6GzMau5oSmzoPhxxubfZsPnTE4cj2oyZHq45pH1t+nHK86PhgS0HLwAnRib6T6Scft05pvXtqwqlrbVFtHadDT587E3jm1Fnm2ZZzXueOnvc4f/gC40LjRdeLDe0u7Yd+d/n9UIdrR8Mlt0tNl90vN3eO6zx+xefKyav+V89cY1+7eD38eueNuBu3bibf7LrFu9VzO/v2qzv5dz7fnX+PcK/kvvr98gcGD2r+sPljT5dr17GH/g/bH8U8uvuY+/jFk9wnX7qLnlKflj8zflbb49RztDew9/Lzic+7X4hefO4r/lPjz+qX1i8P/uX7V3v/hP7uV+JXg6+XvtF7s/2t89vWgciBB+9y3n1+X/JB78OOj4yPZz8lfHr2efoX0peKrzZfm7+Ffrs3mDM4KOKIObJfAQxWNC0NgNfbAaAmAkCD5zPKRPn5T1YQ+ZlVhsB/wvIzoqy4AlAP/9+j+uDfzU0A9m6Fxy+or5YMQCQVgFh3gI4dO1yHzmqyc6W0EOE5YFPA19ScVPBvivzM+UPcP7dAquoMfm7/BXUcfGK8z2bYAAAAVmVYSWZNTQAqAAAACAABh2kABAAAAAEAAAAaAAAAAAADkoYABwAAABIAAABEoAIABAAAAAEAAAExoAMABAAAAAEAAABBAAAAAEFTQ0lJAAAAU2NyZWVuc2hvdG3YboIAAAHVaVRYdFhNTDpjb20uYWRvYmUueG1wAAAAAAA8eDp4bXBtZXRhIHhtbG5zOng9ImFkb2JlOm5zOm1ldGEvIiB4OnhtcHRrPSJYTVAgQ29yZSA2LjAuMCI+CiAgIDxyZGY6UkRGIHhtbG5zOnJkZj0iaHR0cDovL3d3dy53My5vcmcvMTk5OS8wMi8yMi1yZGYtc3ludGF4LW5zIyI+CiAgICAgIDxyZGY6RGVzY3JpcHRpb24gcmRmOmFib3V0PSIiCiAgICAgICAgICAgIHhtbG5zOmV4aWY9Imh0dHA6Ly9ucy5hZG9iZS5jb20vZXhpZi8xLjAvIj4KICAgICAgICAgPGV4aWY6UGl4ZWxZRGltZW5zaW9uPjY1PC9leGlmOlBpeGVsWURpbWVuc2lvbj4KICAgICAgICAgPGV4aWY6UGl4ZWxYRGltZW5zaW9uPjMwNTwvZXhpZjpQaXhlbFhEaW1lbnNpb24+CiAgICAgICAgIDxleGlmOlVzZXJDb21tZW50PlNjcmVlbnNob3Q8L2V4aWY6VXNlckNvbW1lbnQ+CiAgICAgIDwvcmRmOkRlc2NyaXB0aW9uPgogICA8L3JkZjpSREY+CjwveDp4bXBtZXRhPgrXs5igAAASfUlEQVR4Ae1dB8wctRJ2IECogdB7qKFD6EWAQHQIJVSBQhcdhEQXXfQAAkGIlNB7RwFEQkTviN5DDQm999785vOLN/as17t7u3f/3f1j6bTuM/utb9Yej2f7aApKgiAgCAgCHYrANB3Kt7AtCAgCgoBBQISYDARBQBDoaAREiHX04xPmBQFBQISYjAFBQBDoaAREiHX04xPmBQFBQISYjAFBQBDoaAREiHX04xPmBQFBQISYjAFBQBDoaAREiHX04xPmBQFBQISYjAFBQBDoaAREiHX04xPmBQFBQISYjAFBoAQC3377rXrnnXcUrnLsuARwTazat4l9S9dNQODKK69Uw4cPVz/99JOaccYZ1bBhw9Tpp5/eBErSpUXg3nvvVRdccIGaMGGC+vrrr222mmOOOdTOO++sRowYoaabbrokXyJKXXfdder9998PQjFo0CC1xx57BMsayoQXCwmdg8Dee+8NryPJb/XVV+8c5juM0z///FMfcMABCdYu7m78oYce6rA7ay67b731lu7bt28mbptttlmtDMhysiHRL416AwLXXHONGj16dO6tyizMh+i4445T//zzj5/ppH799VcnVT0qy8nqGEoPXYgA/oTnnntu6s4WW2wxteqqq5rl/BNPPKH++OMP9ffff6fq9daMRx55RGH5HQu//fZbrLh0WSUhRtNGhQdJ024188wzqyFDhqh55pmnNBPSQBBoNwTGjx+vPvzwQ4+tHXfcUd18882J/uvHH39Ur776qlp33XW9er01QWtEdfTRR+feflsJsb322ku98MILCdOHHXaYuvTSS5O0RASBTkVg4sSJKdbPO++8RIChsH///mqDDTZI1eutGTfccIN66aWXcm+/biFWSSf277//egzH1sFeRUkIAm2OwCeffOJxuPjii6sllljCy5PEVAR+//13deKJJ07NiMTq1olVEmIRPqVIEOhoBD799FOP/7nnnttLS8JH4KKLLlIff/xxkjnvvPMmcR5pq5kYZ07SgkC3IPDdd995twKbMAlhBL766qvUJshJJ52kppkmPEfCZsh///0X7qyB3DCVBjqquwk2C6BY/eijjxRftsZooR3awNDuyy+/jFWtXIaBDjpQ8NYVcK+ff/65gk6m7jcW5xF8gw7/w/J6VdKtoNHoWClzX9NOO22Z6qm63YJD6sYo49RTT1U///xzUoQdXLKvi55owPKztlDG6uyNN97Q2267rd56663Nb7bZZvMM2hZZZJGkzNbB9fbbb0+RueSSS/Rqq62mV1ppJU3KUU3CwNR577339E477aRJiid9k2W63n333VN9IIMElb744osNX3PNNVfShgAy8QEDBpj+yeJa02AP9sEz0Z/lbdNNNzU0bJ2HH35Y77rrrnrWWWf1aM0yyywm//HHH7dVC19JWGmywjc06c/i9Ut6GH3aaadpGiSmvyrGrjTd12eccYZea6219PTTT+/RmW+++fQmm2yijzzySH3LLbdoelMW5t+t2AwadY0Vl08epxem3m677ZLxS8tHDx/adU/K7Njeb7/9eDdJulNxSG6gYOTNN9/UfMyStb5p7f6H7f/RXvG/rStAWhYOZ599tvdgLUN516222ipFY8stt/T6GjNmjCZzDQ2hk9UfnVdL+gEI++yzT+rPmNUW+UsvvbS+//77kz6yIpy3Z599Vn/zzTd6t912y+TN0sWDu/zyy7O6TuV/9tlneo011sjtd7nlltNvv/22blSI3XHHHZqWRLl07H3Aqpr0Qil+YxnNosGfR9mxEuPZll1xxRWFsbEY4Tpp0iTbRXLtZBySmygYgUB38VhhhRU0rSZMay7c3Hp4adQVSgmxM88802PYZSoWxyDkgQ9M2r7WfGbn9tmvXz/9yy+/mG5oF1QvtdRSDfFC1tVGGHB+3DTn7frrr9cDBw4sRY8MJd0ug/EXX3xRL7TQQoX7xeyPY5R37AizvCJHZ1ysbRwvlDvvvDPIu5vZbBr8eZQZKy6fsThePPa+y1xpOZ502w04JDdTIPLggw+mMLvnnnuSlvivZWGJGVxdoZQQe+CBB1JTxywm3XwIPx74wHTrZ8W///57080XX3wRBGfhhRfWWP7tu+++mgwT9bLLLhusF5oZuvwV4W322WfXmB3FzohhxpAVSCegsUTJutcll1xS0w5PZrltlyfEttlmm8w+0P+GG26oSYeRWQcD0S71s+6l2TSKPA+Lh73asZLFM89//vnnS83qQWfBBRdMZh3orxtw4LhkpTHbGjx4sDduyOjXq46Jh30e/Aq86wqlhBiI0s6CJjsP81t55ZU9Jvfff/+kzNbBNRRiAxMzALwZ8ZZ76qmn9AknnKAPP/zwpBvaDUnoQohgWYl6oXDTTTdpCBwO4iuvvBKqbvJivEF3dNVVV+m//vrL1CWFrdH5hZZq0DFlhZEjR6Z4wvSbtqq9ZdzYsWP1iiuumKpr7ycmxOgISLDdnnvuqSdPnuyxhuU5eWMICmUso7NCK2jEnkfeWMniO5Tvjm0spy3GuG6++eapsU3HjZJuugmH5KYiETpX6uEDjB577DGvBfTELoZu/NFHH/XqVkmUFmIuMS6JDzroILc4Gs8amJgd5L350TEZ1mno6LARkBcgGFwAEb/11lszm2Xxtuaaa3oCxu0Ag5hPn/v06aPJ95RbzcSxHIbCnvM0atSoVF1k4EUwdOjQVH20jwkx8MtphGbFLlE696axkeK2w33QyQy3WhJvBY2s51F0rCTMlohwmtD9xEK34hC6Z4xHrgbZYostUlVDkwc7rvByriu0lRCbYYYZNPREdQe8YfluXExnxQcwgIfAJh9eUdYgWO1Dstejjjoq1Qa7tbbcXrN2X21jTN+xRLb17TVLiEGXZevYa94y2tICNraNvZLfLFucXFtBA8RCz6NZY8XeHKcZE2LdjIPFw71y3Theci+//LJbxcRD1gJ2PGHzo67QVnZitP1vPATQjdYaaMAr0pd5fdKukpeOJdCW3hyKFOuxamqXXXZJldPDTeXRbmcqj5bEqTw3A4aDN954oyLTDzc7Mz5u3LhUGQnUVF4og3ZAFS3TvSIyr/HSSLSCRorolIxmjZUserH83oQDqR0UzpC6gUyO1CqrrOJmmTgfQ24F2gRxk5XibSPEAELRP1kjd0xKWK9ZGRBptqNIF+a1DyXI5k3hjJ0b+PEVlMEY1w3zzz+/2njjjd2sYBzCmPRjwTKeCSNcNyyzzDKFaKANLdMUzdrc5sbwmN6cXl4raHgEpySaPVZCNGN5vQkHbtgKQYUXSijEhBgtSUNNGsrzX7cNdVFPI1j5YrZRJZAtl7F2h8U7fkjb4w1cmNAUuAqpzLYQZLCCt4EfJEY+KdVtsbmiTdV79zqkBP9j0U4qrxJNgyfaLk/q4KgI2bQp92XQChoJA06kjrHidFc52ltwILMIRfZ0Hl4bbbSRog2plNsir1IgUWYSEWjuZbWNEPO4KpF4/fXXzTLrtttuKwUkn1WUIBmtSnoArxxvHBw5gdsWG/hMbIEFFrBFtVxxpIMLbTpNUapvzA55+OCDDxIh1goanH47pnsTDscee2zqCCCZXaVWH0WekwixKSjBDe7555+PzYkiuLWkjp35WWK0oWCj5govoNAruIHMBNxk5ThmehyTIsvhPMJun62gkcdPO5T3FhzIsNXohevCXIQYIQnfRfjqT1YgQzvjZRZTXQQsL7EkanbgQgs+1maaaaaELJax+LkCgU4iJOV1RKA748E9oMvLQmkyF0llA1MbWkHD0mrna2/AAS/mY445ptbH0JU6sTIIwYMk2Yh5TaBEhPvgAw88UJE5hCIbFa8cinOy5UrymqUTg97IDViWuQIBfEJxDqFqA3R3dQbspoKO66TSpVeEFh1gTlWjo15JXitoJMTaONIbcMDn18g43HsKJ598svlcoJfJEtit5+1slV4/E+MfIoBAgvlByMTBgtaq67vvvuuRCumioBx3hQp0TXUGCDDQdTcYypiUgBe++QB/Wu6ytxU06sSkWX11Ow4QNvAN5gbocOkUjfnuqZvP43TOl2cl6TqFWLXtwISl/0fg16kV4cknn/TI4AOmzRRg+NpzkfDaa68p8jThVV100UW9NBJk7ezl4W0Vmvl4laYkQrudoXrc1IOOhKSU/aF2yMPy9u677/aK3VmYLWgFDUurna/djMOFF16YGjeYheHDzXnBXYHwumXVG7y9m64kxLg+wP06skukzjiWa3zJRmc4c0lUEbDkI6zQV7axzOUB9lk80OFunqXosHgqj2fgjQgFa5HA/1hwtkhnPos0VfjKOHZU3UDHatykibeCRopoG2Z0Kw5YLXC9M9x05xlm20cUE2JFJwa2r+iVFMwNB36eD6f6izrT48c6dthhh0J84MA1LR+xHZn86CtL0bZwBOjWR5y+1JTZhvNm28aOKj333HOaPlvn0cFRp5BPLpqxefXQP03RNRzpZYXQUSC0yzp29Mwzz6Ro4BhI6HiIS5OWw8Y7g71nXHGWkmaAbjUTbwUNEOLPo+hYSTFcIoPTjB076lYc8B9xxwHiriOGPDjhIYW3t2m40qorVDo7ecQRR6SYpNmIxxs8ksLtDA98kJQZmNyXGO3+BQ9ag+7BBx+c4hFAwpNDVuC8WeBxhccM1zkj+sBn27knUNSNef5cb731UnyRJbrmLmRAa9iwYam6lqcsIQa+gKmtZ6/wR4bD6qEAr7UhbxzHH398qLrJawUN/jzKjJVMxnMKOM2YEENX3YYDvEzwyQLG0LXXXpuD3NRiuJOy445f4TyUj/WpLcvFKhm7hqzASXqr++67T0EXhHODWP6QKxcVWmrRjTUUyBOqIu8VSVsoCcnlsqI/m/mQKeywYISH845FdUhJZzmRq6++Wt11112KZqHmLCWWmviAKsHutYQFPowDs8IhhxyiyH2QVwzdGHYu119/fbX22msbezJyFW10VF7Fggns4MLqHktJG+gQuzl+RF5uDWaY8mNjhPw7KRgOczu3Oeec0+Bq2/NrK2hwmu2Y7iYcsNFEDglSYxq4kwuqQvBDPxzbTMI4g94V8qJyKCfz/NpwyRFz7EfMGUkMn/Q88Dddmbcr/IyRBXymlLd0Y9dGZ2KxPm0Z3mA0qPkte2n4I6PNiFL3ACdzJBi9NrGZGAieddZZ3vcKLI9FrnC3UuSbAc2mUWWseKCXSHCaeTOxVmDNeSrznyly61i5wM8dVBtZ4wMupLDacn2puX1D3QNfY4MGDcrsw/YNVz3w9wcvM1VCpeUkCOOmQ9NOyyiu22+/fYrHqg8E7mxoFpELFOgPGTJEw22uyxPW+1khxNs555xTyKst9GJF3YzAvQ7NyDy+XB7dOAQKvGHSrM+rnyfEcI9wVkczY6+d23cojo9m8GVzFl7NphF6HjFe6ijjNIsIsU7HAR/4CI2FUB6Z4ARhPuWUUwr3YfvN09MGCTmZlXYniQlFOic1fvz4lKsblCHAVgSuXXjgHyOlGR2vEk3TF5HUhAkTjGkFlkOhAFMG+nKRWVLh683uIWvX5inUludhqfr000+rddZZJyly6SKOZSDMP2B0WySAn8suu0xhG9s9WO32C2t/cretyCmhIoFlzmC6pwKw3MsL9DUphen9oYceqqACgG1TVoCh8OjRo81uaRmMmkmj6ljJutdYPj+mVXR8djIORc18gEXI/hF4Fu3DYo9TIMsvv7xNNnTtA4HWUEvWCN3AQBIn3bE1iz/fwIEDjf8rboqBpqgPUwkcBULd0IFjRiIz+cMPPxgdGbwJ4EOeGPQwY4DuzBUIqIdvLMLGBYPULXM7hxsa10cUTduNHszWgUEr9FcQ0Hho4B1/flcQ2bpFr9ARQC8FDNEvsIFe0Qoutx/YceE+oc+C4aE9WuXWicWh18A9wEcY9IcQVhiYGEzchi3WT6ysThp1jpUYz7wMzwAHvKuMz27AgePSbunahFi73VgVfvKEWJW+pa0gIAjUi0Dl5WS97EhvgoAgIAiUQ0CEWDm8pLYgIAi0GQIixNrsgQg7goAgUA4BEWLl8JLagoAg0GYIiBBrswci7AgCgkA5BESIBfBy7clQzNOBJpIlCAgCPYSAmFgEgKcD3caA19qw0deNFR2jCNSULEFAEOhpBESI9fQTEPqCgCBQCQFZTlaCTxoLAoJATyMgQqynn4DQFwQEgUoIiBCrBJ80FgQEgZ5GQIRYTz8BoS8ICAKVEBAhVgk+aSwICAI9jYAIsZ5+AkJfEBAEKiEgQqwSfNJYEBAEehoBEWI9/QSEviAgCFRCQIRYJfiksSAgCPQ0Av8Dsrr2cXpTACgAAAAASUVORK5CYII=;" vertex="1" parent="1">
          <mxGeometry x="-11.719999999999999" y="240" width="111.44" height="23.75" as="geometry" />
        </mxCell>
        <mxCell id="5wV4bRW26JI0M855Ar_4-4" value="&lt;font style=&quot;font-size: 10px;&quot;&gt;Public Key&lt;/font&gt;" style="text;html=1;align=center;verticalAlign=middle;whiteSpace=wrap;rounded=0;fillColor=#d5e8d4;strokeColor=#82b366;" vertex="1" parent="1">
          <mxGeometry x="380" y="222" width="60" height="18" as="geometry" />
        </mxCell>
        <mxCell id="5wV4bRW26JI0M855Ar_4-9" value="Verifier" style="shape=umlActor;verticalLabelPosition=bottom;verticalAlign=top;html=1;outlineConnect=0;" vertex="1" parent="1">
          <mxGeometry x="300" y="160" width="20" height="40" as="geometry" />
        </mxCell>
        <mxCell id="5wV4bRW26JI0M855Ar_4-10" value="Signer" style="shape=umlActor;verticalLabelPosition=bottom;verticalAlign=top;html=1;outlineConnect=0;" vertex="1" parent="1">
          <mxGeometry x="40" y="160" width="20" height="40" as="geometry" />
        </mxCell>
        <mxCell id="5wV4bRW26JI0M855Ar_4-11" value="" style="endArrow=none;html=1;rounded=0;" edge="1" parent="1">
          <mxGeometry width="50" height="50" relative="1" as="geometry">
            <mxPoint x="190" y="460" as="sourcePoint" />
            <mxPoint x="190" y="160" as="targetPoint" />
          </mxGeometry>
        </mxCell>
        <mxCell id="5wV4bRW26JI0M855Ar_4-12" value="" style="endArrow=none;html=1;rounded=0;" edge="1" parent="1">
          <mxGeometry width="50" height="50" relative="1" as="geometry">
            <mxPoint x="410" y="220" as="sourcePoint" />
            <mxPoint x="-100" y="220" as="targetPoint" />
          </mxGeometry>
        </mxCell>
        <mxCell id="5wV4bRW26JI0M855Ar_4-13" value="" style="endArrow=none;html=1;rounded=0;" edge="1" parent="1">
          <mxGeometry width="50" height="50" relative="1" as="geometry">
            <mxPoint x="-40" y="460" as="sourcePoint" />
            <mxPoint x="-40" y="170" as="targetPoint" />
          </mxGeometry>
        </mxCell>
        <mxCell id="5wV4bRW26JI0M855Ar_4-16" value="" style="endArrow=none;html=1;rounded=0;" edge="1" parent="1">
          <mxGeometry width="50" height="50" relative="1" as="geometry">
            <mxPoint x="414" y="280" as="sourcePoint" />
            <mxPoint x="-106" y="280" as="targetPoint" />
          </mxGeometry>
        </mxCell>
        <mxCell id="5wV4bRW26JI0M855Ar_4-18" value="" style="shape=image;verticalLabelPosition=bottom;labelBackgroundColor=default;verticalAlign=top;aspect=fixed;imageAspect=0;image=data:image/png,iVBORw0KGgoAAAANSUhEUgAAAioAAADSCAYAAABkbuvuAAAMQmlDQ1BJQ0MgUHJvZmlsZQAASImVVwdYU8kWnluSkEBoAQSkhN4EESkBpITQAkgvgqiEJEAoMQaCih1ZVHAtqIiADV0VUeyAWFDEzqLY+2JBQVkXC3blTQrouq98b75v7vz3nzP/OXPuzL13AFA7wRGJslF1AHKEeeLoID/6hMQkOqkHEIA2IAMboM3h5oqYkZFhAJah9u/l3Q2ASNur9lKtf/b/16LB4+dyAUAiIU7l5XJzID4IAF7NFYnzACBKebPpeSIphhVoiWGAEC+W4nQ5rpbiVDneK7OJjWZB3AaAkgqHI04HQPUy5On53HSoodoPsaOQJxACoEaH2DsnZyoP4hSIraGNCGKpPiP1B530v2mmDmtyOOnDWD4XWVHyF+SKsjkz/890/O+Sky0Z8mEJq0qGODhaOmeYt1tZU0OlWAXiPmFqeATEmhB/EPBk9hCjlAxJcJzcHjXg5rJgzoAOxI48jn8oxAYQBwqzw8MUfGqaIJANMVwh6AxBHjsWYl2IF/NzA2IUNpvEU6MVvtCGNDGLqeDPccQyv1JfDyRZcUyF/usMPluhj6kWZMQmQEyB2DxfEB8OsSrEDrlZMaEKm3EFGazwIRuxJFoavznE0XxhkJ9cH8tPEwdGK+xLcnKH5ottyhCwwxV4f15GbLA8P1gblyOLH84Fu8wXMuOGdPi5E8KG5sLj+wfI54718IVxMQqdD6I8v2j5WJwiyo5U2OOm/OwgKW8KsXNufoxiLB6fBxekXB9PE+VFxsrjxAsyOSGR8njwFSAMsIA/oAMJrKlgKsgEgo6+xj54J+8JBBwgBumAD+wVzNCIBFmPEF5jQAH4EyI+yB0e5yfr5YN8yH8dZuVXe5Am682XjcgCTyHOAaEgG95LZKOEw97iwRPICP7hnQMrF8abDau0/9/zQ+x3hgmZMAUjGfJIVxuyJAYQ/YnBxECiDa6Pe+OeeBi8+sLqhDNw96F5fLcnPCV0Eh4RrhO6CLenCArFP0U5HnRB/UBFLlJ/zAVuCTVdcD/cC6pDZVwH1wf2uDP0w8R9oGcXyLIUcUuzQv9J+28z+OFpKOzIjmSUPILsS7b+eaSqrarLsIo01z/mRx5r6nC+WcM9P/tn/ZB9HmxDf7bEFmMHsLPYSew8dhRrBHSsBWvC2rFjUjy8up7IVteQt2hZPFlQR/APf0NPVprJXMc6x17HL/K+PP4M6TsasKaKZooF6Rl5dCb8IvDpbCHXYRTdydHJGQDp90X++noTJftuIDrt37mFfwDg1TI4OHjkOxfSAsA+N7j9D3/nrBnw06EMwLnDXIk4X87h0gsBviXU4E7TA0bADFjD+TgBV+AJfEEACAERIBYkgskw+gy4zsVgOpgNFoBiUApWgDWgEmwEW8AOsBvsB43gKDgJzoCL4DK4Du7C1dMNXoB+8A58RhCEhFARGqKHGCMWiB3ihDAQbyQACUOikUQkBUlHhIgEmY0sREqRMqQS2YzUIvuQw8hJ5DzSidxGHiK9yGvkE4qhKqgWaohaoqNRBspEQ9FYdBKajk5DC9AidBlagdagu9AG9CR6Eb2OdqEv0AEMYMqYDmaC2WMMjIVFYElYGibG5mIlWDlWg9VjzfA5X8W6sD7sI07EaTgdt4crOBiPw7n4NHwuvhSvxHfgDXgbfhV/iPfj3whUggHBjuBBYBMmENIJ0wnFhHLCNsIhwmm4l7oJ74hEog7RiugG92IiMZM4i7iUuJ64h3iC2El8TBwgkUh6JDuSFymCxCHlkYpJ60i7SC2kK6Ru0gclZSVjJSelQKUkJaFSoVK50k6l40pXlJ4pfSarky3IHuQIMo88k7ycvJXcTL5E7iZ/pmhQrChelFhKJmUBpYJSTzlNuUd5o6ysbKrsrhylLFCer1yhvFf5nPJD5Y8qmiq2KiyVZBWJyjKV7SonVG6rvKFSqZZUX2oSNY+6jFpLPUV9QP2gSlN1UGWr8lTnqVapNqheUX2pRlazUGOqTVYrUCtXO6B2Sa1Pnaxuqc5S56jPVa9SP6x+U31Ag6YxRiNCI0djqcZOjfMaPZokTUvNAE2eZpHmFs1Tmo9pGM2MxqJxaQtpW2mnad1aRC0rLbZWplap1m6tDq1+bU1tZ+147RnaVdrHtLt0MB1LHbZOts5ynf06N3Q+jTAcwRzBH7FkRP2IKyPe647U9dXl65bo7tG9rvtJj64XoJelt1KvUe++Pq5vqx+lP11/g/5p/b6RWiM9R3JHlozcP/KOAWpgaxBtMMtgi0G7wYChkWGQochwneEpwz4jHSNfo0yj1UbHjXqNacbexgLj1cYtxs/p2nQmPZteQW+j95sYmASbSEw2m3SYfDa1Mo0zLTTdY3rfjGLGMEszW23WatZvbmw+3ny2eZ35HQuyBcMiw2KtxVmL95ZWlgmWiywbLXusdK3YVgVWdVb3rKnWPtbTrGusr9kQbRg2WTbrbS7borYuthm2VbaX7FA7VzuB3Xq7zlGEUe6jhKNqRt20V7Fn2ufb19k/dNBxCHModGh0eDnafHTS6JWjz47+5ujimO241fHuGM0xIWMKxzSPee1k68R1qnK6NpY6NnDsvLFNY1852znznTc433KhuYx3WeTS6vLV1c1V7Frv2utm7pbiVu12k6HFiGQsZZxzJ7j7uc9zP+r+0cPVI89jv8dfnvaeWZ47PXvGWY3jj9s67rGXqRfHa7NXlzfdO8V7k3eXj4kPx6fG55GvmS/Pd5vvM6YNM5O5i/nSz9FP7HfI7z3LgzWHdcIf8w/yL/HvCNAMiAuoDHgQaBqYHlgX2B/kEjQr6EQwITg0eGXwTbYhm8uuZfeHuIXMCWkLVQmNCa0MfRRmGyYOax6Pjg8Zv2r8vXCLcGF4YwSIYEesirgfaRU5LfJIFDEqMqoq6mn0mOjZ0WdjaDFTYnbGvIv1i10eezfOOk4S1xqvFp8cXxv/PsE/oSyha8LoCXMmXEzUTxQkNiWRkuKTtiUNTAyYuGZid7JLcnHyjUlWk2ZMOj9Zf3L25GNT1KZwphxIIaQkpOxM+cKJ4NRwBlLZqdWp/VwWdy33Bc+Xt5rXy/fil/GfpXmllaX1pHulr0rvzfDJKM/oE7AElYJXmcGZGzPfZ0Vkbc8azE7I3pOjlJOSc1ioKcwStk01mjpjaqfITlQs6prmMW3NtH5xqHhbLpI7KbcpTwv+yLdLrCW/SB7me+dX5X+YHj/9wAyNGcIZ7TNtZy6Z+awgsOC3Wfgs7qzW2SazF8x+OIc5Z/NcZG7q3NZ5ZvOK5nXPD5q/YwFlQdaC3wsdC8sK3y5MWNhcZFg0v+jxL0G/1BWrFouLby7yXLRxMb5YsLhjydgl65Z8K+GVXCh1LC0v/bKUu/TCr2N+rfh1cFnaso7lrss3rCCuEK64sdJn5Y4yjbKCsserxq9qWE1fXbL67Zopa86XO5dvXEtZK1nbVRFW0bTOfN2KdV8qMyqvV/lV7ak2qF5S/X49b/2VDb4b6jcabizd+GmTYNOtzUGbG2osa8q3ELfkb3m6NX7r2d8Yv9Vu099Wuu3rduH2rh3RO9pq3WprdxrsXF6H1knqencl77q82393U719/eY9OntK94K9kr3P96Xsu7E/dH/rAcaB+oMWB6sP0Q6VNCANMxv6GzMau5oSmzoPhxxubfZsPnTE4cj2oyZHq45pH1t+nHK86PhgS0HLwAnRib6T6Scft05pvXtqwqlrbVFtHadDT587E3jm1Fnm2ZZzXueOnvc4f/gC40LjRdeLDe0u7Yd+d/n9UIdrR8Mlt0tNl90vN3eO6zx+xefKyav+V89cY1+7eD38eueNuBu3bibf7LrFu9VzO/v2qzv5dz7fnX+PcK/kvvr98gcGD2r+sPljT5dr17GH/g/bH8U8uvuY+/jFk9wnX7qLnlKflj8zflbb49RztDew9/Lzic+7X4hefO4r/lPjz+qX1i8P/uX7V3v/hP7uV+JXg6+XvtF7s/2t89vWgciBB+9y3n1+X/JB78OOj4yPZz8lfHr2efoX0peKrzZfm7+Ffrs3mDM4KOKIObJfAQxWNC0NgNfbAaAmAkCD5zPKRPn5T1YQ+ZlVhsB/wvIzoqy4AlAP/9+j+uDfzU0A9m6Fxy+or5YMQCQVgFh3gI4dO1yHzmqyc6W0EOE5YFPA19ScVPBvivzM+UPcP7dAquoMfm7/BXUcfGK8z2bYAAAAVmVYSWZNTQAqAAAACAABh2kABAAAAAEAAAAaAAAAAAADkoYABwAAABIAAABEoAIABAAAAAEAAAIqoAMABAAAAAEAAADSAAAAAEFTQ0lJAAAAU2NyZWVuc2hvdHtXQzoAAAHWaVRYdFhNTDpjb20uYWRvYmUueG1wAAAAAAA8eDp4bXBtZXRhIHhtbG5zOng9ImFkb2JlOm5zOm1ldGEvIiB4OnhtcHRrPSJYTVAgQ29yZSA2LjAuMCI+CiAgIDxyZGY6UkRGIHhtbG5zOnJkZj0iaHR0cDovL3d3dy53My5vcmcvMTk5OS8wMi8yMi1yZGYtc3ludGF4LW5zIyI+CiAgICAgIDxyZGY6RGVzY3JpcHRpb24gcmRmOmFib3V0PSIiCiAgICAgICAgICAgIHhtbG5zOmV4aWY9Imh0dHA6Ly9ucy5hZG9iZS5jb20vZXhpZi8xLjAvIj4KICAgICAgICAgPGV4aWY6UGl4ZWxZRGltZW5zaW9uPjIxMDwvZXhpZjpQaXhlbFlEaW1lbnNpb24+CiAgICAgICAgIDxleGlmOlBpeGVsWERpbWVuc2lvbj41NTQ8L2V4aWY6UGl4ZWxYRGltZW5zaW9uPgogICAgICAgICA8ZXhpZjpVc2VyQ29tbWVudD5TY3JlZW5zaG90PC9leGlmOlVzZXJDb21tZW50PgogICAgICA8L3JkZjpEZXNjcmlwdGlvbj4KICAgPC9yZGY6UkRGPgo8L3g6eG1wbWV0YT4Kkpg5zAAAQABJREFUeAHtnQf8f1P9x4/SUlZDSxFSMpJUsiuhxQ9JS8koCgllForsvQpFiBAVGpQ98iMlsiK0I4WGdvf/ft6c+z/n3HPu+qz7/fze78fj+/3ccebrnnvu+7zPe8yVCRklRUARUAQUAUVAEVAEeojA43rYJm2SIqAIKAKKgCKgCCgCOQLKqOhAUAQUAUVAEVAEFIHeIqCMSm8fjTZMEVAEFAFFQBFQBJRR0TGgCCgCioAioAgoAr1FQBmV3j4abZgioAgoAoqAIqAIKKOiY0ARUAQUAUVAEVAEeouAMiq9fTTaMEVAEVAEFAFFQBFQRkXHgCKgCCgCioAioAj0FgFlVHr7aLRhioAioAgoAoqAIqCMio4BRUARUAQUAUVAEegtAsqo9PbRaMMUAUVAEVAEFAFFQBkVHQOKgCKgCCgCioAi0FsE5u5ty7RhioAioAhMMQKPPPKIuf76682dd95p/vCHP+R/H//4x80LXvCCKe51fdd+8YtfmEMOOcQ84xnPMM985jPNS17yEvOqV73KzD///PWZNcVUIjCXRk+eyueqnVIEFIEeIvCvf/3LnHXWWeb444833//+900YvP7GG280K6ywQg9bPr4mgcGKK67oVTjXXHOZlVde2WyzzTbmHe94h3nCE57g3a86+f3vf5/jDVP4t7/9zay22mpm9913N0984hOLbH/605/MCSecYG644Qbzu9/9ziy66KJm4403Nm9961uLNHowOQSUUZkc9lqzIqAIzEEI3Hbbbea9732v+dGPflT0+tWvfrWZNWuWWX755XMJwrLLLmue8pSnFPfnxAOYiVtuuSWXMIHV17/+9ZyBsFi88pWvNKeffrp56Utfai8lf8877zyz+eabG6RXLu27775mjz32yC+deeaZZttttzV//OMf3ST58VFHHWW222670nW9MF4ElFEZL95amyKgCMyBCNx+++1mlVVWMQ899FDe+2c/+9nm5JNPNm9605vmQDTad/mb3/ym+cAHPmCQjkBPf/rTzbXXXptvC6VKO/TQQ83OO+8cvQ2z84Mf/MAccMABuXQllGzZTAsuuGDOMCHRUZocAsqoTA57rVkRUATmAATY7ll66aXNXXfdlfd23nnnNdddd5152cte1rn3f//7383555+f67j86le/MmxdLLTQQuZ5z3ueWXXVVc3aa69t5p57siqISDGQXCAd+djHPmbWWWedzv0lI+Ww/fOXv/wlLwfdlZ/85CfRfp522mnmfe97X57u7W9/uznyyCPNJz/5SfPFL34xv8a/z33uc2brrbfO86MbtNNOOxn0Y9Zaay1PugK+z3/+84t8ejABBNBRGTX99re/zb7whS9kBx10UHbSSSdlwhWPukotXxFQBBSBXiDw+c9/PpOpvfj7zGc+07ld//73v7P99tsvE8XSojy3bHv8rGc9KzvuuOM61zNIxv/+97/Zl770pUykRkUbZWtlkCKLvPvss09RJn098cQTi3vuAd8Y0fXJRKcloz3Q4Ycf7uUVHZXsyU9+cnbhhRe6WbMNNtjASycMpndfT8aPAMpcI6dXvOIV3oNfbLHFisEz8sq1AkVAEVAEJoiASAG8+U+UNTu15uGHH85EWuKVxcdadFqypz3taaXr3Ft//fWzf/7zn53q65JJdEoy2eIqteUTn/hEl+JKeVj0WmaMX+pKkWVQ7H2YFjcvx6KfYm8Xv+985zu9dH/961+Le3owGQRG7kdFBpanPCaDw9xzzz3FXi3nSoqAIqAITCMCf/7zn/PtGdu3F7/4xQb9lLYkkpTc2uXqq68usorUxJxxxhn5VghbP7NnzzZLLrlkcZ+Db3zjG+YjH/mId20UJ+jeoJCKtc4111xTqmJYCsLPec5zzOKLL16UjyWP3QoqLj52EOqVYNHjEjovwpS4l/Ljm2++ubi2yCKLmHnmmac414PJIDDyTUxZBZR6hmmZaxpWSqAXoghgNXDVVVeZf/zjH+apT32qedvb3pbvS0cT60VFQBGYOAL33nuvgcmwxIevC6HrcfHFFxdZZcvCyJaFwWrIEsd8uJdbbrlc18Jel+0Rs+6665oNN9zQXhrar6yvc72P3XbbrVB0jRU+TH0ZTId/9rOf5dWg/wPGWEtV0aOPPmpuuummIgnz52c/+9ni3B6gV3PHHXfYUyO7AcWxHkwOgZEzKjgvgpvG5MwSSlAiqrSn+tsQgfe///25prpNzgrm6KOPtqf6qwjMsQhgwQETj2+Sn/70p4YFEh8dJBqyBVCLy7HHHpv76KhN2DLBgw8+6OVYYIEFvPMmJw888IDBgsWl7bff3mNS7D2coh188MFmk002sZfy309/+tNGdC9MKGXwErU8AXPmICQ5dfS4xw1PeB9iiLO8OoKBcxlGfKQgnQkJaZA7Xl7zmteESfR8AgiMnFGBIcEOHi1sJg48DW6xxRYT6OrMr/I///mP1wn3xfNu6IkiMIcg8J3vfMfwEYZBGYTcVfQg5YR5RT/Eu4Q0tC3BeLjbG3z0d9xxx2QxOETbc889CysjEv74xz/OJTKDWt5QFhZHH/3oR40YRngfdcyvMbdmOwrpr0uPf/zj3dOBjqnfpSaYhttRKenSpZde6hadWxl5F/RkIgiMnFGhV5jK8aekCCgCisAwEGDVi8krDrn6TOHqP+ZUrKr9bK3gkMylpZZaqlbPBY+qYuXiZsvNmYfBqMAYfOUrXymYlGWWWcaIZVPxUWdxusMOO3h1D1OSE0pQQoy9ih87cRkV2oIJd4y++93vFpdRUcB1v9LkERgLozL5bmoLFAFFYFoQgEnBN8bXvva1aJf4EKFoirMudDma6EeMKr4Ofk1cQp+iDbFl8etf/9rL0mQ74i1veUuJUfn2t7/tldP1hO0lvLruvffeZq+99sqlO65L+xe96EVdi26Uz/qjsYlDjO11+wuz50rcUD1gbIQEE4mvFks4hRuWErAtU3+7IdCJUfnNb35jEGmyjTMuXRMGG3u1TDpw0MMUJbrQUQ+WSkyGCy+8sHtroGNWIffff3+OGw6fumj+D9SAHmQGA8YOzw4HSm2eIUpzPH+2u174whcOda+9CzRsY7KyYyziJXNUNKrx2KS9YI2FHhYlKDDyvjchntXPf/5zw1aluCJoFZelSfnij6nEpKCcL6a45l3velfuWKwvlhqM1fnmmy/HkL4x/rGQiX0oY31HYTakJoxKLA1MEvXXfdjD+mLnbD1ttdVWjfsRK6PLNTzTuhIVsK1jMm+99dZcZ8nW99rXvtYeer/o2vC+WUpJXex9/R0jAvJgaunuu+/ORK8kd6AjjIlnYy4f80ziV2Syt5csRzwAZvLiZKKNnv+K6+hkWvfG5Zdfnr373e/O8MMiE09Rr+zRZhLnIXvzm9+cycqh9Pee97wnk8nALSo/FjFxJlxy3o7VV189o1+WLrjggkzEpbkDIIE/r0uid2ayZZXJ6iGTj6RN2uhXmJLsiCOOyNZbb71MJvii7bZs+bhltEGihGbyAY+WKV4X8/y2j/JSeuXIJFjqO2nPOeecUnmy+in6zrOQ1WgpTeyC7DcXzw7scNqXohS+OEySFXDGc7P9x/cDz7aKZILJZC88E3PETFbJRV7GIL4pPvzhD+eOpeSDWlXMUO798pe/zHDUBXY4irL94FeU8jLxZpmJuDsTkXhjH0EpvGjwsMdjGxDw1yEfIu9dAP9NN9200ieHKLFmr3/96zNZTBT4MPaHSaJr4ZUP/oyHSy65ZJjVDLWs0K8I81pTYv5wxxrHYr3SKLvrcM2WcdlllzXKO0giMYkutfnAAw8cpMgiL98Z2xd+q/yo2Ex8f9w8EnzQ3vJ+aaObTnQri/u8j2JpVJzrwXgRqHT4JiujTFwLlyZm92G6xynvg6Jg5Q0APP9VkbgxzkRr3cvj1tPkWJTsSlWE7WAgygojEzPf2rrErLDRBAGDIvb5jTGjL+L7IIu1V8znatsVwwIGLiRx4e2VhfOjJrTZZpt5+cRPQjJbDF+xxMhgymLt5JqsjqLliRWG96FM5ef6GmuskT/HaEFDuPjVr341kxVwsg9h22BuRVxfW3MMr2GPx9pGBAnw6Pnyl7882VdR0gxy/O9U/Ht4iwmLiaxeo+m7XhTLN69tML8S86VrcWPJB7Nt8eC3jcdYmHQ3L8epdybsTOhojrypj3SYd5DzUTIqxxxzjIcHi4M6gsF2MZTtnWgWmHM3ncRnytOdeuqpmUh/M5ECZ8zvVQQTKmbimUitMhbx1C2m0VVZ9F4DBCptxoiNgMZ5qLkuDzNKRKoclMQLoJFVWR4KfZCynvSkJ9Vmx4wR3wPCLdemRZSNVnuVKR6ibsSFBBtrihkV0w58otx5551eO1wzOe9GzYk895oU47lNf9grTykQoj8QPifSYkaJk6pQuz/V6iuuuMLIx9XIajGVpNN1TOo/9KEP5foQNphck4Lwd4Ffh7bvw7DHY5O2umnYmhPmKbcQca+7x/KRLT0XAu7Jyt/gqyKklVZaKbzU+RyRP0qcLqGrkhLlu+kmeczYdIl4Mk2I8R/TaWm63c62W0j33XdfeGlGnYftb+LnhOCFltgqSsVYCuciWczl8YJwC8HcjmJtneLu7rvvnvuyYYuNGEFYu4qE21avvx0RSOqo4AGRvWCX0CngI4JDIT6GsnViiGppP0RtPs5uue4xmvyU6xL7uSIlyL0uoqeASaJ1+OOmQ/cDYjC53gvdNO6xuHV2T/Nj6uKPFyJkFGCiMIWkzzHCZ0Ko6EU69lAJSc4vug2Y7jG5u8S+Pvu+btnsM4N5aJbs5osdw1D1gXbZZZfKZjAR02+X8BZJsDWXwIAxB1PJJA1+aPGjO2GJvWvZ8svHxbAU4DDzjOkIUCc6RjxTPjqxjwnvBF4vec5NxiJlDns8UmYbItIsvjGgNddcM/fdgZ+eU045Jb/GP/rF3EDgNgjmAebGzgH5ReffMJmIK6+8Mnd26BRvcDTWdwqVS8Mxn2o/Yzqcg9DFaeosU7auS0XjV2YmU/iNiTFjbv8kXIH3rWBOxbw7RuG8KdKRIhkuNQhiWKeYHTJSFBCbH4qC9aAZAimpCyI1KaH4Q0dEJrFScvQrCDgoL2Meh6KUQC6EIu7U1g9xItw6ORYuNmMryCVZ6WZsM4VpZSJzk5WOw3a4+dnacfULhKHIdSDcNByzV4/uRIzQY7Hp2adnC0g+qLGkGbofwlAV6W2+cP9ZPuYZsSb4C0XyW265ZXHPpuE3RpPY+rF94pftHwKIiXJmjol8YLLtttvOaypiUzcPx+yzx56rSLhyPZUwfZUOjVdZzQl7+WHZnEtE1oy6XUIcjEja1c2weYkbkqJRj8dUvbHrjHcCtNFuMX8txNVsM4hFh4cFOluQfES9d5t0wtTk+jW8T/yh2zMsol6LK79ivTGsokdajiw+vHYff/zxjeoThtzLR595j5rSrrvuWsqPruGoaZRbPxIF2euTSC8ru/O9733PS/+pT32qMj34uGNMlMiz008/vTKPexN9NTc/x3V1uvn1OI5AUkclDH7F/l1XCifkFKMSRhll4ktFrkSBcvnll/cGBboBVRS2ww4oFLLYm4+RhAH36iCPnahj6bmHbkmq3W6eMJonZZ911lluEu84DO5I25rSJBkVmA1XcTnWZj56MKX2mfCLMrOIT2PJ82voUPFRDfPw0R2U2Gd2y+VY3JhXFovCHUrCbj4Y2xiDT0HjGI+VDQ5usicvjrAyFFZdQkHW7dMb3/jG/LarfIiuSFMFbbfsNsehLtmsWbPaZJ9YWrGOKfAT1+2NFfPFNLnIZ/FHgb4phZGGKaOKcW5abl26UTIq6H5Zhpr+yBZxXXNa35ct6wzmkvegraI+EZvts7K/fNeUBkMgLgMThNljcwlTxVGTG4uButDbWGKJJaLVsh3ANoFLmKG1JVE4Mzj5SZlesn1BXS7JKtE99Y6JyYE4OtVuNzF7oKEYd9rEhOz7futb36rd/sB7cRg0DO+amDGnCDEsfhxcYivC9Zng3mt6jG4J/itcYutRmFD3UukYJ1the+T1NPJBL6VNXRj2eEzVE7vOVta5556bb7O599/whje4p0as0fJnxfOxJBIlI4yDPR3JL8/WJQL8sY0yjD+e0ygIR2h4cIXwNSISp9zHS5O6XG+0Nn1MD8jeC39jW6Dh1kmYp+/nmFaLQnAxJ7Mdgx7IMInAjrzvbDeHc39dPcIc5q75aScqCKuttlo08GFdOXrfRyDJqOAUxyUmsKoPtJu26zEToEthJFD3HsdWJ8VexzFSG4aKvWMUaWMvtC0T/xHoRriEn5VhEB/x0AdAbI9zGHVNqgwx6TWyyqitPmQu0BMS8+PafMTsCH1mxPSXagtyEsQcY+20005OivThZpttVtrHDsd1Kvekx2OqXWJG791i/LOIsLoWsoU3kjg5XqVy4uokcQ9Ff6uzMegvumfDIvSa0DdDoVqknrk+H3pKF110Ua6Y3bSeUD+FfLwXTSlUDiUfCuwzncSSJtcdw0cN+nuyHZvPMbLVlWM8yf6xWOH9QJEWBXz0qlDgVRoMgSSjEmpTwwSw2kspFw7WjP/lDj84bRW/8EZZp+zktlO2jho56wodv4XSJrfMtsehxKDNiqltXeNOD75NP/ChAjV5Q2lTrP0oxoXPZ1BGJWwLkgYs0ZoQSrasxlxCStZkxd6H8ei22x5j7RB+4EQvJ7+NtOWwww6zSUf623Y+aNOYlDJwmzJsWtFpyL3CWgaVhQ4K4K973etskka/sQUUlllNyTKSbnqiBk8DEQ0aKznGJiT6jbnkEolVH0i2fPvQjKlpQ9LqZ/PNNzeiuGREObPoLFwiKymYGMxHsWoY5sAnhgWrDktwo6wqUlrashdqk+a/iOpGQWGUTSx32hDWQHDZ9o9zu1qCAXRpmgY4EoLUs3P7zHFoLYVlCVY3TYgJyyW8qQ5CIaOSMmdM1cE4dC2XsG6CuQ2Z0lT+uuuDjse68sP7rMx550OpF9JG0alqtTgIy25zbt+ZNnkmkXajjTbKrdNEkTP30Ms2Ih9UtiywOmlKsbm1DaMS2+aJldm0PX1Kd+ONN+bSKmulxrsFIyh6X31qprZlSAgkGRVElZgmYpYVrgbhXsXiJBdv4kaZSJrhFkaX9oWMBnEXCKwVW5WzZRMyKqG/gi5tiOWps52P5aHtX/7yl83ZZ5/dyjwtxDpW9rRdo8+hFITVYFf/A4NIpfCdEjKPiJjb0HOf+9xScvo3LEaly3gsNajlBXH0V2JU0CuKmcC2LLpxcvTIwu1npLzDIJjqYRHbkfzBWB166KG52fnNN9+cf0jFeWBJ4paqN5Qwk66N5Cf2HkzDNgTuKWAGbf/EeCHHuK0+SQp3vd4/BJKMCk1FWRWlIBzeWFGv2wX2jHkRxYuoOeCAA8z2228/UAwW4nSg0+AqlFrfDh/84AfzGC9IdVitint6tym5opq48veuTeoEBVz2z+dEpqML5owtGIRhUVvGwq0Xx37hcwslGG76psdhmU3z9SUdAdpCWmihhcJLIz1nW80l8Zpd8vXk3p/0MdJE2sgWkHg3zce4hI3I57cmuiYxJhAGvmmsIPywhFTndyRM37dzGDUk+ZZJQV9lJvjS6RuOM609lYwKnSEsOGJ5xJYwBzAKISHaJqw3IniYlq7EPjgrJJdRoSy8UYYeKcM6UIYL9WrCNOM4xzIkdJTn1ksfmeAt9892EPjNyZTytIlX27aEvsogE1dMAbGtbgTWHSGFOh7h/b6fx94/xO5sBY+LQkYFvY+ZQEhXYFQgto2RqiCJriPxmZIrz4ZekWHsmzA6ODsLqc5AIUzft3Mk1O7WO0yL0vQjUMuoAAHWNWy/wIxgagoz4uqSWJhwr42SU9fJC52U2IRoy4/9otOBxCfm1TOWfpTXUKJDDOkSyr2IKXHFDiMViu1R0nRdv49LR8WuSNy2TuoYRgXmDa/DlvAyC57jJrYweWau9RjMZBsKtyfIiyntTCV01RC3hzRuRgXprkszhVEJrRNDnSq3T+Exbg5Cs31CU6DgXUcxV/0znVG54447vG6H86l3U0+mBoGk1U+sh0gBYEKYtFAQiykZfulLX4plbXSN2EKuu3jcb1eJl1FMI44DsXWaKm02akjHRGHMIJgO9FRgvlD0muRLFVoQxLbyOnZ7KNlCN/Oxj/1QKqopBCYl3DpqazLO9pFLrH5ZHc9Egolm+zVG1113XezyyK4h3XUJyatVpnSv9+04HD9WmtqknbE51loTVeVnHg3DdMDcxLaTqsrp270QuxDbvrVX2zMcBFoxKm6VaLFjmRE6NvvhD3/oJmt8zN6r62SLjzrB5hiIWBvg1Ac9GHHXn8d5wfkTE+Uwg541bmwiIXi4hMi3qeWKm6/pcRsLgFDBsymj0jRd0zan0oV75zjvG6beSqre2PWwLYzDUME2lo9rOOkKlbxnqjQF6ynGsJUuiUdar9ssEuw978aITgj4iQsCl/ogSXXbEztGkdalNoYHIeaU486TbrnuMUxKuKUcms276WfKcbiIEO+xM6Xp2s4BEOjMqFAnK0WCFLrUdUuBl9l9sTCLhhlBEgAzgqIsSqqYTaPH0rcVKuanoX+VJlZIbZiNUH8ipiznPgv3OGRUEJtjJl1F+++/v4k5P6vK0/VeKFHh2VuPnl3L7JovZFRYnX7xi19sVByMtLuHTqbQYWCjgiacCL0IpKfWGywMyyGHHOK1CqYMM9FxEavp9ddf36sOic+4xqhXcYuTUOoTk5KkioNRCbeDMXt258pYXrboQ8IZ2TjIlYrb+obF0OLCwqVwW8y9p8fTg0CUUcGsDvFibMCFXQ9fmK6ixdC+HwkLL9ZRRx2VtwU9AayMmrQpbOM4ztGzCCeUOt0G3O27Icjr2hnu0WMm3tSaJGRUYJBw750izMIJWT4u4kMYinVRSg4VCcfRnjA0A3UyDsMQD2FbUDrH2sslGG08Zs4k4p2GIbA6IBJcMFem5wMbbiGGumpIP2FoeH9HQURXDxWT3/72t+duDPrqZyWUqIRuGKpwYus7DGHAYlDiKlVly/3buAmoc80113Qveccseuaff/7cLxZzMX+4g+9CMdf/w3qP8fbrUoite28Sx7ghwKM2hgDrrbdePm/0dVxOAp/OdcqHrkQ22ifRT2XLJRmYiWjH8oH2gjCJYmupvDD4WiooIfVJR2r/RLKQRxEl0B5B1IjEK5Nqqd7wQtN2hPlEd8Zrk1iWhEnycxHxe+mIOE2Aq5CI/ixxfry0tt9E502RmH+X8oSRPcVCJaP8kIhAbOuwv+Ao+jNeUplQMjeImk1rf8WfhpfePemKry1DTNBLbRRRb3bVVVfZJNFfkQxlBHhcY401MlH6jqZpe5Exavtsf8UHRSYr+GhRl156aSYSxlIeItimqCteTcdjqt7wOtFdZVGQydZq9vDDD2eiC1L0g8CgssVaZJHYJcU9cBEF8eIeee07LG73i+vDPhBPuF4b7PMhkCRzl0iBhl1l5/JE18prK9F12xJjy/bR/oq+SSbMYLSoWFBAsZaJprUXiVBvy7a/RH/vQryDtgz7Kx/tLkVF8whD5ZUvkuxouklcDN9p+i/+hibRlKmqkxV5iUR87Q0EWclnolCXiaJsRthsccSVEblXVldeOh6KmOGVygsfXopREff8mXDypTLtYK/6FWlGJiurrGrQNm1H2IGmHwbxkVBqu+ja5B8AGAVw42MMo5PqSxWjIgG4SvlECpGJ/5mMDyIfGM7FYibsQn7ORB7WC2584GWlmjMosY+tm2eUjIqYU2ZiIVFqI32S/fVM9BEycZGdv/gnnnhiJkHxMtkGzEQBtsgD8zoMIpIw9bp95xi8JA5WxnMiJLw4Psxkiy8TZe5SWpEu5h/+VHtGPR5T9YbXZdWet50+hB8BGECXWBSEmJx55pmZrCQzWbEX98RdgJttqMeyQs1EOb2oK2wP5/RJ9OdyRkr06fLI3FW/zD2jIJg8t31iINCpGrGm9MqhzBgjwXOAGXLrJC+YVZH4J/HykJ/5pC2JhDhjAeTWzzFjS4ww2hYXTR/OY6KzE003iYuif1Tqe13U9Um0c6bVGWVU4L7DgdbkXMT30f43nZB5mUTM2alu2z7CbIvocaB2hJmbMiqifFia6G27mv5WMSqit5NPwHVlbbLJJmEX8nPx39AKW8v8ufWNklGhkTBjMQbBbUPVsYiGo33vcnG//faLMiBV9dt7MKMwp1XU9L0Iy2g6HsN8sXM+bLbN4S+LkZCQboXpwvO11lorky3aMOtQz3nHeVfCurueI60cBYn+jNdGJFddCKmheM/1yqKvor+XwShecsklmeiUlaR6MGswIXUk232lsmHsqgimhG/F8ccfn8k2cSZWmKUywuchCtH5opf3HGnuxRdfXFVF9B7SGbdc2X6MppvERcv0u+1jQaU0GAJRPypES0W7vo2yJgqumAkPQphBygvnFcH+LBZGWIDYP/ZAsfiJ6YBgdYTDL3QKxk244UYBFO+TTfboUVbE8RN7mZaEObCHpV9cau+99955nCV57KX79kJKQRd/LuilbLvttrXtw+qKEOo42cJB1bgIfzN4QUVpmjAEbUk+/m2zJNOjo4OliXwQ85gtyYTBDfQ7UL7tm8J30Mz8lPcoRozNY445pnRrlVVWMSiJp6wtUBzGKdeo3QWgQ4ErBMz+mTes0m+pwRO+EDr/C/VrmjYP3T+UaGUR4plk8/xSzxAfTfgiwuihjtyYbjatbOPZw+gv80hbK08sI13rSOa0WN3RCh+7GAYrlYVNVfKx3uM5uf6gqJzQD0oDIpDic8QsNWPvWgKPedwrq2ypsvhDgiEu7VPF5NfDlY98jErp4YrdcjlmK0W0xUtp7QX0UhCrhWJ30Qy3SbzfJu3wMjx2IhO21zb5kMaSFdckqF0mZsn5NkHYJ85ZbYuX3zy9mOF67WcLpo5YhcREjJSNHkXdnigrfYnUW2yZuM+U7Tz0jMQcN28GekguvoiRU9QV31h5ElAtY/tgmWWW8UTJblsttqwat9tuO0+XIlZm12tixZNJEM5MlEkLzGzd7i/6GuLBuXE1XfFqOx6rGhTqEyDNEuu6jBV2isRlQL6t4vad7Te2wsBq3MQcgaSHrUFW7LwbvAfo17htrDoelURFPuReG9Zee+2B4OG9kLAl+XuR6g+SDbZG20i1xJGa107KrtuyEIukUp5Um1LX0UFrS2Dolscc1ReSBXI+XzKPMv5kwZ+hp6Q0GAJzkV0eeiXhwIrVLZwicU+wvsGEk78m3CJVYLqLNQEcdGiBQuWshF3vlzgnwqqlyQpkxx13zLX+bSeQSohinwkDcDVphy0j/EW6hCt1uHna34SLpw1YghCNF+yQUuF3BgkRbbREOmJYYFEBvu49myb8pS88F/yNIFkCV2Eqc2lEaMYc5rXnPA+05qkfPyFYFWEKjva/S7Z9rA4JrJdaLQ+Cr1tfeIylFz498EpJG3AGx7gDT9FJabRiDMvsek5EWjyLYhWHjxmkJlhm0A5hQFsVOwheXcZjrHFIIvDLgUk1z5b3DlzrCBywggILpG5YYzB2lXwEwBc8edaQMN6dJIV+qf87w+Ed3meZlzD/pR7mgC7BLzHxDv2scA1P430jxpp1esdciZuFPkkv+dYhUecdwWdOk29Y3zDuW3saMSrjaDRbDa7/CeIKEZW5CRHnZ6+99vKSMkH0afB6jdMTRUARmGMQwDTYbmOywIHxT8W3mhQoBPdzQ1aw5Ymjw9SiZFLtZNufhZQ1+YVp6ZuJ8qSwmeZ6o35Uxt1hVvYuk0L9cKNNyXLXNj3Ow5RJsWjoryKgCEwSAdcpJtJBsf6bZHNKdSOZOffcc4vrSHbRseobk0ID0X+yTArnLracK00nAr1gVBCNhc7MZI+1kQIjSrPhi0+MICVFQBFQBPqAAJJhNzAhgUvZPu8DId3BORmGCpaQZvcx7ANtFUs828x8a59AuUrTj0AvGBVgxmrIJXQ7xBQ2j9qMCBK9BDwyErqcPXXxp2FEkbe0PQTTo4PXRVKPFQFFYJIIIN0ltILVPUNnDcuw0DpkEm2EibLBC2nfcccdZ8TX0ySaUlkn+mBYR6KrBiHtwcq0iUVTZcF6c0Yg0BsdFZgPzOnamqqFKIvDOcN+q5IioAgoAn1CgA8rJr02HhoMjHiozpkWTL5Ds9txtF0c3ZlZs2blLvPRUcEsvS9kFbYJ8omrBAwOIEzTYajEaq4vTdV2jBiB3jAq9BM/Abwo6Ky0JZTTUKhNhaRvW56mVwQUAUVg2AggKUb5n+3q0N8Rcxg+RpoEMx1mu4jXhLWQeFweZrGdy8JHD8q8KM66hDUj0ejFbUZuPene0+PpRqBXjApQY62DIycck2H6WEeYfxEECkdhKgasQ0vvKwKKQB8QYJ67/PLLzezZs/N5jnMC96Es2ia6ch/6Muw24HIBx3bM5zhQW3LJJXO3CQRVVCOJYaM9M8rrHaPiwsZergT1M2ilsyWEpIWBCvdv/1wlNTevHisCioAioAgoAorAzEeg14zKzIdXe6AIKAKKgCKgCCgCgyDQG6ufQTqheRUBRUARUAQUAUVgOhFQRmU6n6v2ShFQBBQBRUARmAoElFGZiseonVAEFAFFQBFQBKYTAWVUpvO5aq8UAUVAEVAEFIGpQEAZlal4jNoJRUARUAQUAUVgOhFQRmU6n6v2ShFQBBQBRUARmAoElFGZiseonVAEFAFFQBFQBKYTAWVUpvO5aq8UAUVAEVAEFIGpQEAZlal4jNoJRUARUAQUAUVgOhFQRmU6n6v2ShFQBBQBRUARmAoElFGZiseonVAEFAFFQBFQBKYTAWVUpvO5aq8UAUVAEVAEFIGpQEAZlal4jNoJRUARUAQUAUVgOhFQRmU6n6v2ShFQBBQBRUARmAoElFGZiseonVAEFAFFQBFQBKYTAWVUpvO5aq8UAUVAEVAEFIGpQEAZlal4jNoJRUARUAQUAUVgOhFQRmU6n6v2ShFQBBQBRUARmAoElFGZiseonVAEFAFFQBFQBKYTAWVUpvO5aq8UAUVAEVAEFIGpQEAZlal4jNoJRUARUAQUAUVgOhFQRmU6n6v2ShFQBBQBRUARmAoElFGZiseonVAEFAFFQBFQBKYTAWVUpvO5aq8UAUVAEVAEZjACWZaZPffc01xxxRWdenHttdeaXXbZxfz3v//tlL9PmeYSMLI+NUjboggoAoqAIqAIzMkI8FneZpttzOc//3nz1Kc+1Xzzm980a6yxRmNIYFLWXXdd8+c//9m8733vM1/60pca5+1jwrn72ChtkyKgCCgCioAi0HcEfve735njjjvOXH/99ebRRx81q622mvnkJz9pnvzkJxdNf/jhh3OGgzS//e1vzaKLLmo22mij/K9IFBz89a9/Nd/5znfyqxy/5S1vacysXHPNNeZNb3pTzqRQwN13351LVR73OH8D5fe//705/vjjzfe//31DHbG2P/TQQ+Zzn/ucueGGGwx9XWSRRfJ2v/3tb/da/Mc//jFP94Mf/KBIt+GGG5qNN97YS9f5BImK0mQQ+Oc//zmZirVWRUARUAQUgYEQOPvss7N5552XHQnvb++99y7K/fKXv5wtsMAC3n2b/qCDDirSxQ7uvffeTJiaIu8888yTXXbZZbGkxbWrr77aa9NrXvOa7JFHHinu24OvfvWr2fzzz1+Ubdvktv2UU06JpiGt2/YvfvGL2dOe9rRSWaTbf//9bZUD/erWj6A5btp5553NkUceaf7973+bxz/+8WbXXXc1++6777ibMcfXN3v2bHPHHXc0xmGuueYyT3ziE/PV0pOe9CTz9Kc/3bz85S/3Vk+NC9OEvURAx0QvH0tto+Sjbq688sradIMkYCvl2c9+dl7EgQcemM/bsfKYE2666SYjH2mz++67x5Lk14TJMUhbQkmHm+EXv/iFed3rXmfuueee/LIwK7lkZc0113ST5cdIUmjjX/7yl/x8xRVXNN/73veMMCRe2iZt32effYwwLV4+94QyaTvSo6pvF9tWwijl3zk3f+vjgdgczdwJARHLedzn+uuv36kczTQYAmuvvbb3HOTlaX0ujEv22te+NpMXNhMx6WAN0twTR0DHxMQfQacGvO1tb2v97rZ934URytuGpMHm3WSTTbL7778/++AHP1hc496xxx6bnz/hCU/IhFnJZGsku+WWW7JnPetZXjqkJnUkzEq2xBJLFPlikpWrrrrKk2q84hWvyOsMyxZdlaKcVNtlEZ2nkUV0JgxLRv0//OEPs2c84xlFXvrInMfv3HPPne22227ZH/7wh+zmm2/OZAHnpZOtp7AZrc9N6xyaYWAElFEZGMKhFLDKKqt4L5SdfLr+MgmdcMIJQ2mbFjIZBHRMTAb3QWsN59Su73Aqn0g9sp/97Gd5Mx988MHsVa96VfaRj3wkE4ua/Jr9uNv8MCiip5KJEqzXNdHZ8Oac2267zbufOvnVr36VvfjFLy7ywqxceumlefKQSVluueUy2hijWNuPOOKIolzaT9uf8pSnZBdccIFXhOjVeOlIy0Lt/PPP99Kx8LY48PuTn/zEu9/lRJVpBUmlORMBecHNMcccY7bffvtKABBzsuWDYhnbdSlCOU1WVkZ0j4xMYqlker3HCOiY6PHD6dA0YSjMy172MrPggguWcn/lK1/JFT/tDbYx1llnnfyULeEtt9zS3sqVQhdbbLH8XCQLufJscVMOwi3kf/3rX+bUU081b37zm91k+TziXnj+85/vniaPSXf55Zeb17/+9ebOO+/MFXff+ta35ubHBx98cLHds/TSS+fbPbQxRrG2U55LtP3MM880lO8S2zghnXjiiUakWd5l5kqXXvjCF7qn3Y67cDeaZzAEQu5/Tt/6+fGPf5wdffTRmbxwmWihZ7/5zW8GA7hFbjHf87h/eYu884UWWqgoTZiU7L777ss++9nPemLWMA+rkdtvv73IpwczCwEdE4M9r//85z8Z70rd32C1+LnDOZV3km2OFNFGYWCKd10Ygezvf/97kfy9731vcU9002qlAqIPUqSn7s0226woyz1A2mHnC+psS2I1lC211FJFGbYsfrnONlRbCtv+zne+M1rESiut5NX77ne/O5rObd/iiy8eTdP2om79tEVsCOnDl2pOZ1QQo7ov3Ic//OEhoNysCEShbt3hMXvfMZLVTWW+HXfcMZZNr80ABHRMNHtIYtaaiWJmNmvWrPwj+bznPS+TVXfle+G+X4cddlizihqkCudU8R1SmQuLHbctbN1YuuuuuzL0M+x9McW1t6K/Ytqb62nY9GAQW2zBALvlisQiWl7dRTETzmBybH38ipJvBhPTlsK2s8gSyXCpGBg799myrfXLX/6ylE4UbDO2yWzb3vWud5XSdLmgWz+CqNJkEZCXwGtAeO7dHPKJvGyVJYp5X/Q+zpcQ637rW9+K3hcpUfS6Xuw/Ajomqp+R6C6Yz3zmM7lvjeqU1XeFIahO0PEulpQi9Uzmlg9l3n6b4DnPeU6+ZWvP99tvP2PnICz92BKqIvyjuFvC+Eh57nOfW8qCVY4tl5upuaWUMbgg0tp8G9q9jAWOKLIa+tKGwrYL02me+cxnlopgawtfK5ZEmmIWXnhhe1r84mjO9YS76qqrFvcGOfA9wAxSkuZVBGYgAqKJX9nqqslk+eWXT+atKzeZUW9MHIG6Zzenjgk+suherbfeegMzKaN8yOiZoNORoq997WvGfcYf//jHCxcDmAGffvrpRVY+3LJdU5zHDmBAXIJRiZEov3qXxVrQO29yIn5UcudvOJdz6R//+IehrZgjt6Gw7XixjdF1113nXZbtIe/cnoR9XH311e2tgX5VojIQfJp5piMQvoBuf1hNvfrVr3Yvecf4QUgRCrVKMxMBHRPl58YqGU+jYuFRvilX8AWCFAGlVbyyislqNJ178UUvepF7OrRjPtgpCqUpooNmtt566yI5vk+sdIT3/1Of+lRxL3WAFMElsRxzT4vj7373u8UxUp8qhrdI6BzApKDgapmUZZdd1qAQ/I53vMPceuut5m9/+1vOROJuH98rTchtO0qwqXzuO8GzxYttjC666KLiMpIZlHuHQfWjaRi1THEZDHxExXC0PJiYdnmX7rN6+fWvf52L0XBbzEszLKLNuDyWvXgjXhMLJ0bDKt+Ww4sDNryUL3jBC0oa7zbdJH/dFzBshyiFmfnmmy+8XJzjUjpFL3nJS1K39HrPEdAxUX5ABxxwQIlJwekhzIvoIRjxP2M4nxRtu+22+Uea+mlTiti2whmbpZ122sngRA36+c9/7sXEwZqlSmpKHuZS92O/5JJLmpjFDVszbr3i58SIN1eKaEQhk0K7kJ5Q1yWXXGJwAMf2DHMuzAxb0nWxgcK246gu9QzF423RThgkN0SAvYHVoyupQpoytO+WNFapJQI//elPs/e///0ZGtwoH8mDKv5QasKRjsRpSJYaKn65yrTYrktch9yW3ZaLq2PhdDMRUXZSmKIh8hJme+21V/bKV77SU+iiDmGwMhnUuV8AMakrfAMkO/DYjcMPPzyTwZ1rz+P0DFwgMXfLNthgg0wGaYGLvAAZSmn4HcApEBiIiDb/E2agSEd7ZO+zuGfT8HvGGWc8VvNwfkJFMou3/f3ABz5QWRHPxKYNf1Na/5UF6s2JI6BjovwI5APrKYsy1nEdLx/PcuKeX2H+s+8q8x4KrpZEslLcI43ErbG3kr/4CLHl8ct3IUYiafDS7bDDDrFk0Wv4S8Fviq2HPuBAziWUd10/Kyi+Wgd1bjr3OGy7MHvu7eIY5XJ3Lse5XYy+8Y1vFG2krfhnGRap1U8LJInNgzUHDnHsoKn6/dCHPhQtPcaooLEte7+15aLtLQGiouWmLp511lnJeBOx9gt3nnsjTJVnr4f9kL3fTEKSZyJVSvbjgQceyM17Y/XWXcNr6DCJtlbVKZFLk9XhrdHVbg/Lca0IkoXojd4hoGOi/EiwoHHHN+NepE7lhD2/cuGFF3r9wM2AJZH85s7LbD9ZLDYh5gibh18J4BfNduihh3rpiLVjiXbZRZ69Zn9FWuIxKbIVnfSAjVM4zIFte4i/Q+yfFIVtZ5Eao5ABEd8psWSZKFgXddMGCUdRpKMM6zCvuNjiQBmVFmB94hOf8B6EHRCpX9cHh1tN+IGXfbxM9msbl40Up2oA2rpYHW6xxRaNy3X7gRRHnP7YoqK/YT8IQBUL0mXLRarypz/9KZPYEJ3ahFRlmCTi7Mp2sJJMESsi26/wF4kQ2CvNPAR0TPjPDFNV3lt3jItOhJ9ohpzxkbf9wM07c5ElvMzae/y6H1mbJvYbMnH4hIpR+O1AqgwRtBCTZbHWyWSr38saMikrr7xyNMCgmwnJ+aJOIEPmY9macpMUx2HbkYTHSLbHPGxS8yISGRdDFnMQQQthbjFf7+LnhTKUUQGFBsRKyxV/8UAYYGzziDlb/vFlq8CN5YBkIUbhB959uPYYsaTsd5a2aez9N77xjbGivWtiPusNHJuXXwbNG97wBk9c6N7nmP7JvqdXpnvSpB9hmYgReQGJDxHeqzuHYx8midJdsg2ITnFYFSNRiiuNBbftYjUQy6bXZgACOib8h3TeeeeV3pEf/ehHfqIZcMZWvPuOfvrTny5aDYPgMmMS2K+4V3fgSjBgCkS3MJrFxsWxbVhrrbUyHKvZbwo+VVyHc8yT7naPKK9621TRSh67SPwg0Qks+st3iN2AkNy2k8aGAwjTidJvURaLZPFcGybJz0OGhm8U2/22z7xbossZzVt3URmVOoQeux+uoBlEBGoKiQGBR0SYDLEhD2/n51UfeCQr55xzTjFoJBJmFtZtH3yKs6US9jVtOvcX3YmQcyeYFGLA2JaWKKZF+8DFqn6Iklf2hS98IdeNYXXCi/rRj360KIvBzqDlT5SzvLaK6+rink3TdYAXFUYOWMW42LjHoggWyZFlMCGu4yM3D8esNlMvfLRAvdgrBHRM+I9jjz328N4R5rWZSOjQ2XdVDAgyHJNZYl6y9/hNSSBsevuL4zU3Hwu/FIWMkpsPyUaMkbDSPXTh+A60IQIBoibAYjMmGQ/bnpJWi4WR911AqpOic88918PD7ePmm2+eZHBS5bnXlVFx0ag4hulwgf/Yxz5Wkbr6VuoDD9cMJx2j7bbbzquftiBOTFHo7ZX07p5sLB8vk8vF2/7igTJGqX6gUNxmP3KFFVbw+pbS7Ym1oes1Vh22f7FfsIWZQkkNhhAX/3UB62CwUlKYru3UfONDQMdEGeswKrGr+F9O3c8rSEDdd1xMjouG8sF2DSKaSKptZiTDbrksxqqIec1NL9acGZGYq+jrX/96BrPQhdB7EeufaNaw7S4mbga2stw2u4tNNx3HLNDc0APkY+E9DAmzMioh2olzV0zGA0hpSCeye5djH3g+gmJa5qVzT1D2CrdLUrEWUNRyBxfHbAM1oVDpi7yI7GIU6wci1BtvvDGWPHltEowKq4wQo67nEnSrFEE02Vm90VsEdEyUHw0raPe9YIHGPDWMv9Q2SbkVg11hAWj7gIWhazETblcQiXiUBPNARGUWP6ktlFHWP46yURegjzA5w1q4KaPS8MmF+h7i3CgPUNcwu5cs/MDDdbL9UkfuC8eLh0gwRqzs7Ytpf+GgmxDKc4Tutvn4XWKJJaJZw36QlsCCbWkSjIpETPb66Pa36TFK0Mcdd5wqzrZ94D1Nr2Oi/GDCbdmm70aTdLvvvnu5wiFfwYTabYtbJxaIrgRZIhMPuXYtblgIqAt9GcVNKHT8I+bEBhfIYnYFs9ekiGQaXDSLFnryvr0RuoWWbQl7y/uV/UnvHOdjhAdvQjitw2GQSzhCwgFdHYGRmG/XJevF/SqnXk0bSIjzbbbZpnAY1TSfpusnAjomys9FLGPKF4d05aGHHhpSSeli9tlnn+ImDtbc+Umkx4WXVxI18UJbFKYHY0VAGZWGcIuZb8mTIMyKbIvk3gtPOOEEI86DGpbWLVkY6OqRRx6JFhQyKhLOPJoudTGMbSEiytzDbCq9vY4HXVxp951Eu96I5UKymaKRb4gHsueee5oqD7Pia8GI06RkOXpj5iCgYyL+rETvIH5jBlyVbRwjUc6LlhKnyHqNFQm2OfbYY4t74vCy1pNrkVgPxo6AutBvCPliiy1mjjnmGCMmyCUJClErRVHK4I4Zhkb2cQ0f7WGT+DapLRIXyrjed0l0KNzT2uOQISKDKMcasc+vzTsTEoi1loH5ShFB12BA+WNyw911zF0+K0Lch/P8xcwwVVyj62LVZL797W8b8S45tPgYjSrWRDkCfRwTfXg04m7BW6Qg1ZWt6qE0TbaUh1JOqhAxQS5uyRZPPj/bC4cddpgRSxp7qtKUAol+Hiij0uK5iHvkPCqnmJMZpCkhMfDFI6kR74SGUOEwLMOUMDT5GLJNE25FiRVO2NQ5+lysmCr7LwqExX3CphPSfquttiquuQdIVMTHTh5rw73e9JhnJU6fcukNz058OOQMS9P8mm44CPRpTAynR8MpJZw7iJp7yCGHDKfwEZZC/B03kjBbtDBdEAsMFp2WxKKz8da4zaO/40Wg/3L68eJRWxvbAqK5beDIU5IKVsc777yzF5WztuAhJYgFi3JXDk2qiUU+jZXbpKw+pqnSRWDlRXAul0Rp2D0tHRMArAsRTVXidphNN900D4hGGWI11aUozTMgAn0ZEwN2Y+jZiS7s0m233eae9vbYlaaI+bGROGlFWyUGjXF1b1Q3pYCmtwfKqHR4NChlIS255557DCG1xSIoWgrKlug6jJOIUhwyGjHpT1WbJGZE6faoxbSlCkd4oeqjJG62S/gh7l5mmWWSLRLLguS92A0ijCI5IeJsqCsjTvdiWfTaiBGY9JgYcfc6Fx8q8M8ERkUcTBoJAlj0WYLoFRHi0es76qijinsYRIjvlOI8PEAqI7HS8j/0mJQmg4AyKgPgLl7/ciYFZkUibUY/ZuKldoAa2melTaGkRxxZtSrovvvu89KLa+jiRfduzMATmLAYI2a74m772Gv8Ih5OEToq4lkydbu4jpUWOkxYR7kTaZFADkIm072nx6NBYJJjYjQ9Gl6p4rHUK4ztyeuvv9671rcTtmotIaEU5432NGdSxCttcV4lTcHSUVzAG7a7+BuHlVLRMD3wEFBGxYOj+wkifLTMxcW0V0i4YvZujugExV+XaFfVx9lNK8H0jHhDdC/lCp7ehRGfjHLlUrVyplspRgWF2hTBpIhzo9Tt/Dq4YkEkAboMlhQwKyeddJK3uiNhEz2kyor0ZmsEJjUm3IairM1HE0mbhG8w4rrehO8BH9gDDzzQbLTRRvk4FYePRtyWu8UM/RgGPdz+cT/8Q69wwAJZMLJwtCQ+pYzENctPscpk28cS0lPwThFzd8qyMpWH6xgzUA+LEvDDOlA8i+dSGXGAZm644QYj7vZz1YBRW4pWtXNG3RuWQxYt538I7LrrrjhVKf4ILhhS6CitqVtq8QlQlEsdxCWJUeiqmbR77713LGnpGq7i3fZzvPXWW5fScaFrP8LC3Dgc1NfUi25YTpPzWCgCt78px3uyiizh4uYT5bza6uUDkxFnRMwii+BlMhF65aa8DdcWrgk6IzDJMUGjzz777GjUcfedJcouY8cdc/b4oIMO6tz3Jhll66RU7wUXXNAk69jTiMVe0VYcV+LR2xIhRCxm/Nb1Afzd9ITTqCKiMTP/uy753fwcE17EehjHi/coYphVtXGm3sNCRKkGAVw9E566icvjMMCVrKJLpXf9wDdlVGSF6L1gvCAECaxzbX/XXXdlCy+8sJdXlGgzG6477EjXfoTl8AF3X2giO4/KvfZLX/pSry63XiKOpgiX4XaCcfPYY6Jo1xFjCM+/LomkxWtPW0YF75pEbWVytH+yMneraH2Md2Fblv1NBWlkcrZp7C9BG4mbEyNZZZbSi0VVLGny2rD7PMkxYQPP2XHk/opSd45B+IF103BcFbU3CWKLG6KXkjEPuPXyrBknw3KR3qI5yaQiAfHa6C6wRHKRsWi0fRAJeLIcbjDXi2S6SE++KkaFGG0idfXSEzdo//33zwOyigTVu0d5LNCUmiGgWz8yYupIgvXlYnuJ92NOO+00g/guRoj/Ee27JMEB3dOxHEtYbiNRj726cHC05pprGomq7F23JzhGIl+4RYTIEgXdUZIwR17x6HJgsusSIlJ8xAxCKAJKHIpkEaFuj5sQq6fQGsi9f/HFF9fqqSBCx/PvMAkLM4sN+PCHHsEghI8ZW5b9Dbch3PJtGvvLNpdM3G6S4phtMpvO/jbR7ykKkINh9nmSYwL9NVmB510TRtcII2tQ/LTEfCIhGoy4fTcoWfMrcWoMytjW1Ja0PH9ZTNhsQ/9daqmljHxwvXJ5dljSoIx64YUXGuaXSZOrmwJeFlvaBY7umJQAgpXNPfnkk3NjicpEj92k7xLOpFCMx3KQZ8ucQBuwQGK7Bx9JLq200kruqR5XIKB+VCrAsbfYP2Z/mD98qOyyyy6G/WGJg5H7VeG6xNLJBycvsEvsRU6C8OOCe3/X9T0TGu1BjwamRFaSBkVblOPwBxJ6oVxwwQXNbrvtNvLmxzzn4lgPs1+czLFXjPb9xhtvbCRwXKf28PGtm5xuv/323BFcyvKGSVmkUtH6UbTbd99980kpmmBEF7FACwlGb5ppWH2e9JggVAULGXQlZMs110+S+FHeo9thhx0MTDK6KNa6kPeSRcc555xTpA3nneLGkA5EUpwzJMxzLvEBlgjL+SWYJwn6l/+h1F9HKKoylw6DYN5cC0t8XlmnmxJ92OAu3xL6YbLdbk+9XxhBrDXr5go3ExKFb8MAACYPSURBVM+I+i194QtfyJVv7Tm/KMmjxyhS6+Iy84lSQwSaCV7m7FTsIQucrf/Y0ohR1y2Tpls/tk5ExuJwrnW76SvbLyJlsUVFf7v2IyyMMOYibahtp0xsYdZG54iEJSxAbfn0m22IVATVuui6YC2OpTLx4tuoXSQadOuHPe5wbNaJtesaF9tqkI9pNBtbP2H9nMsHLJpefMaU0stHJZo2dXEYfe7rmGD8hHgy7kJ6z3ve46VD12nUJP6YMp5V2L6u5/R1WCSLGK9dsiDL32XeZ3ED4N2jvcLslf7C7a2wX7GtH1lAeWUzvlPk6s9Qtqs/k8qj1/+HgOqoNBgJIlHJZLXgDchwEIfn7D+KBCNaetcPfFtGhcqvvPLKTKQSrdouK6SMPdc66tqPWLnHH398JhYvle3kRe9CsvqsLDd8drJij1aDoq2sFGvLQk+pKQ3KqBCyPmx/ikFu2qa+MyrD6HNfx8SKK67oPc/NNtss+thcxlt8nUTTjOriKaec4ul7hOOv6fmwGBWRZnZekDVtK+lijIr7vFioVC1SxBdT8WzRBVRqjoDqqMgIrCPcSN966625+SBbEVWEGStbLrhwjomoyRua+4VuqlPlh+nC81i+1VZbLTedJWYNWyypbQ3yIhLF/f/5559fBO+KlWmvde2Hze/+iuJbvqeb0hPBl4tM2m6Wxsdtt0JSpshEuF5llVVq603lr83YIYEo55Zy8RwHoZgeTewadYhlRXKcx9pgg8K591Jlu2nc42H0uY9jgi2Km266qeiqKCUbYRqLc3uAp2nmI0vjHG/UybYK2+FXX311vnWDCS7vLds+VfOLbe+wf6lz1B6dKZ/n4RLbOJhDWyJGWOgawt5Db4utZUuqn2KRaPY7FzxNs6SayiKAsiJ7kmJ9kCuy8cFmgPLnKrnZ9OEvkDNRoqDI4CeeTFNCIQz3z7ycBA9s6yCMffk777wz10lBeY+PL+1nbzxUaq1r0yD9SJVNmeDLRIxHXbEuyPVU2N9lr37aiI+TOwGi+xQqElf1mUCGVnfBpqvylmzTzOTfae0zCu0oZVpCHy7mMBJnga7/D5RIifStNF4EwN11GCeSppyJi7UC31QbbLBBcQudmR133LE414NqBFSZthqf6F2UtKyiVjRBzUWceoWuqWuyFLdZfbZdgRaZ5QAGB3fwVS7h3fRVx4P0I1UuZS4qUiv+lOoROOOMM7xESHzcj5h3c0pOprXP11xzjfeEZAvPO7cnoeWeKmVaZMb7i0TJJRScUxQaAegzSyEVv65bP3Fc9Koi0HsEsNg677zzinYifcI8fpgRu4vCe3IwzX1mu9il1DYjwSwtYV2DBZ/S+BFwXTmIM77k4hVrS3EuVzSQ7dIVVlihONeDegSUUanHSFMoAr1DANfeuOZm68jS4YcfXgrhYO9Nw+8095ktT5dRwYVATJ8HVwiuHgv6KSlduGl45n3ug8uohPp6brtxp++aj/PMRq1T49Y/DcfKqEzDU9Q+zHEI4NfCKuexXSYu/I2ETphqHKa5zziegwmxlNoawOcRTI2lqmCZNo3+Dh8B/FOhK2gJaWaMCFiKfyWXUs/WTaPHPgLKqPh46JkiMFYE8LLqUsrrsZuGY5xlIfbHGgpFPay6pp2muc+hfkrqY4ZjRpdcRgUlatehmJtOj4eLAO+eK/HCMCEk6yA09LysFj8hUvXnqkxbj5GmUARGhgAWWC41dX+PV1Ncl6N0jIfhOYGmuc9NGZXwg2ijtaNgjJUQVod4T7YRg+eEcTGpPhJaxIYOwFx79uzZhb6Q+FPJt2Z5v9EZc71+K6PS/okpo9IeM82hCAyMAPoWuB/faaedvLKY7Iir8t73vjc3F2dbJ0XTbt0T6/e09tllVJCSpazyQt0GTFyxAjzrrLPyLSFxQOat9GMY6rXhILDWWmt5+kJYaRHmAz8/+KJCiRaFaGLEnXrqqXmluJQYxGJ0OC2feaWoH5WZ98y0xTMUgXvuucewmmICqwryZ7uHjxycaGH2SKwXpelEACmJ60uJeFzEtopR6EPFTYNE5aSTTpqI0zW3HXPKMb6wYEJS7zL+jZB0wTzefffdOSz4UnEt9eYUrAbtp+qoDIqg5lcEGiKAWSKrrdTEFhaDvgpB0tyor2EaPZ/5CLheZunNyiuvnOzUOuusU1KaZoWOszGcw03CM2yysVN+g+21yy67rLTNxnUs8DBJRnJqmRTg0G2fboNCJSrdcNNcioAioAhMDAGUZvnDcSRepdt6qJ5Yw6ewYvRP0EXBxw96K+iMWYbx5JNPNptvvnnR6yuuuMKsvvrqxbkeNENAGZVmOGkqRUARUAQUAUWgFQISTdmcfvrpeR6YSSQs88wzT6syNLExuvWjo0ARUAQUAUVAERgBAm64AyRfyqR0A1kZlW64aS5FQBFQBBQBRSCJANtBbpRuotcrdUNAGZVuuGkuRUARUAQUAUUgiYArTSHRddddl0etd32qJDPrDQ8BZVQ8OPREEVAEFAFFQBEYHIGQUUHZdtlll50jvEgPjp5fgjp88/HQM0VAEVAEFAFFYGAEllpqKbPllluWypk1a1bpml6oRkCtfqrx0buKgCKgCCgCioAiMEEEdOtnguBr1YqAIqAIKAKKgCJQjYAyKtX46F1FQBFQBBQBRUARmCACyqhMEHytWhFQBBQBRUARUASqEVBGpRofvasIKAKKgCKgCCgCE0RAGZUJgq9VKwKKgCKgCCgCikA1AsqoVOOjdxUBRUARUAQUAUVggggoozJB8LVqRUARUAQUAUVAEahGQBmVanz0riKgCCgCioAioAhMEAFlVCYIvlatCCgCioAioAgoAtUIKKNSjY/eVQQUAUVAEVAEFIEJIqCMygTB16oVAUVAEVAEFAFFoBoBZVSq8dG7ioAioAgoAoqAIjBBBJRRmSD4WrUioAgoAoqAIqAIVCOgjEo1PnpXEVAEFAFFQBFQBCaIgDIqEwRfq1YEFAFFQBFQBBSBagSUUanGR+8qAoqAIqAIKAKKwAQRUEZlguBr1YqAIqAIKAKKgCJQjYAyKtX46F1FQBFQBBQBRUARmCACc0+wbq26IwK77babOfLII83f/vY385SnPMXssssuZq+99upYmmYbNwIPPPCAueSSS8xPf/pTwzF/f/nLX8x8881nnvGMZ5inP/3p5lnPepZ5xSteYVZccUUzzzzzjLuJWl+AwKmnnmruvvvu4Or/Tl/ykpeY97znPdF7VRdvvPHGfAxUpXHvzTXXXOaJT3yiefKTn5z/MU6WXnpp84QnPMFNpseKgIfAPffcY374wx+aX/7yl/nfr371q3y+mX/++fO5xs45iyyyiFl11VXzuccroAcnyqj04CG0bcKPf/zjnEkhH8wK50r9RgBG5NhjjzVnnXWWuemmm0yWZY0aPPfcc5vlllvOHH744Wb11VdvlEcTDReB22+/3WyxxRbm3//+d7TgtddeuxOjsvvuu5uLL744WmbTizCxr3nNa8xaa61ltt9+e/O0pz2taVZNN8UIMN+cc8455uSTTzZXXXVVq57CeK+22mpmhx12yBnhVplHlFi3fkYErBarCIDA3//+d3PggQeaF73oRWbXXXc1P/rRjxozKeTn48hq6K677uJUaQIIILFMMSk0569//WunVj3yyCOd8rmZHn30UXPZZZeZPfbYw/CBOf30093bejyHIcAC6OijjzbPfe5zzeabb96aSQGuO++805x00klJCeIkIFWJyiRQ1zrnCAQQtW644YbmBz/4QbK/iF9XWGEFg1h/9uzZyY/ea1/72mQZemN0CMAEXHDBBZUVwCx0oWuvvTaXlO28886V2ZGasL3z5z//2fz3v/9Npv3Nb35jNt10U/Ovf/3LfOADH0im6+MNGEF3a40+v/CFL+xjU3vbpt/+9rf5c7/ooosq27jooovmUtr77rvP3HbbbUkm/NWvfnVlOWO9KRyY0gxD4E1vehP7BsXfBhtsMMN6MP3NveKKKzLRMymekfu8OBZdg0wkLJmIaAswRPqSiU5KKY8wM5l8oIp0ejAeBMBcmMjS8wifpUgyOjdIpCqV5T/nOc8pyv7HP/6RiV5T9qlPfSoT3bRkPtn+yX72s58V+WbCwS9+8QuvP6973etmQrN708brrrsuE10TD8NwnH70ox/NwNklzhljYdqFF17YTTbxY936kSekpAgMEwF0ht7ylreY3//+99Fi0SO4/PLLzf7772+e+tSnFmme9KQnmdNOO8087nH+a8nKBomL0ngRYBuFbbc66ipRodx//vOflcWjf2IJRdoXv/jFZp999jFf//rX7eXSL/oJiO6V5gwEhCk1b3vb28wf/vCHaIeZV9BVOeKII8wLXvACLw3n6LKE5I678N4kzv0ZcRIt0DoVgSlC4He/+10+afCxiBEWG2wlpLZyXvrSl5qlllrKy7rSSit553oyegRQUkfvowl11VGhbLYHqyj1wUCBFwXaFKmCfQqZ6boOc/LmN785uShCGf973/ue2WyzzZIdx9IHHTqXerXtIw1TRsV9OnqsCAyAgMhHzcYbb1z58Tn44IPNmmuuWVnLEkss4d1XRsWDYywnWFm5TMSzn/3sZL2DSFR+8pOfJMvlRopR4R7m6ym6+eabU7f0+hQh8M53vrPSxP0Tn/hEbnJc12UUsV2qGnduunEdqzLtuJDWeqYegTPPPNNcffXVyX6+6lWvMh/+8IeT9+0N0uFbxVLfJg3brmn9BfsDDjjA696ee+5pZI8/qsyKZRdKruGWnVdA4uT73/9+4o6sImULkLGQIvzupKhuSymVT6/PHATY/kNakiKYD9FnSt32ri+zzDLm17/+dX6NbeZXvvKV3v1JnyijMuknMKL6Wd2jBc4EKopRQ60FqwImczT10cwftv6EKA0aLBge//jHm+c///n5b9MOjLptqXawVYD5cYr46Hz+859v9DFjy6HptkOqPr3eHQGcJ2JhYwmx+Ac/+MHcT4m9Fv7y/F19o/B+6lyUIFO3zMte9jIz77zzJu+zzZiiJZdcMnVLr7dAgDkOh2l/+tOfDNYyz3zmMxvlZh76+c9/bv7zn/+YxRZbbOhO+WBEP/7xjyfbwpyMnhL6KU0ISS9/fSXd+ql5MnzoZ82alYtZX/7yl5tVVlnFXHrppTW5jHnwwQfzvUPEs/ytu+663io5VQCTj1j1FPWxD+1Omql89vq3v/1ts/766+cea/nIoyzFy7XOOusYVoUpBU+bP/WLGRsOgNiWYPDD/PDisqoDk4985CMG7528mHWEnT8eV8FzjTXWMCiDQZgnsnWCaSIvN54SmajrvH4Os211bU/dp0/uVkGYjn3kKlF9mF7PJ4MAY+nEE0/0Kkd5FUXWKoa8i54KeW655RavLvekTpJWtb0T6jm55epxPQL4uNlpp53y+QfJBJKthRZayLzvfe/Lzb9TJeDv6A1veEM+h6H4jM7Z8573vFTyztdxHumac4cFvfGNb2y05RPm6+35xO2Oet4ATAJlgvLMt+SjU9tq4Wa9PDIAsuOOO64231FHHeXlE6lCJtILL1/MPPn+++/PMFOmnqo/+fhn4hnVK6/uRF6KTJRAK8u1dQrjkYk0pLLIsP0iwszEe2ImLsGTdYjSWLTMYbctWknNRcxYF1988WTbwUY8kNaUorf7gIBYa3nPUUTimTDfedN4F+04D3/vvffe1s0Xy69keZQvDFOyzPvuu680L7ltajLXJAufwI0+mSfLYi6TRVTy2ciCL4qQbPtmssgq5RPF+Wj6rheZb2SRWKrHff5iydO1+F7m060febpVxEqK/TrXaRdOoBD1EmcnRd/97ndLt771rW+ZbbbZpnTdvUAal4j5UiduRCKBFQkiyjpCHIkEhFgzdSu2P/7xj7nr8CpTyLA+8R+SS0pwFS++EMLb0XM8Ie633365eDWWAEuZUIQ5rrbF2hNew0W1lQqF9zhndcsKZybTIYccUuxhj6sfwniPNWwA78Q3v/lNr3uf/exni+06tu9SEsMuCrVV2z40our9POyww5IejtmOrbLy8DqoJx4CbDsj0a6ymhImMN+aZV6yRJiF9dZbz8TGwbCV4dFrEkbVVl365ZuBVH2qqJfsU88a9elPf7rEvV544YXJVsLxxpx9wW0Lg5PMJ4O8JLnYaqutSulDiYQMyFL7FlxwwUy2TzKZXEv3SN9EKiQvXikvq0rZwsg+9KEPZSIazWiLbP+U0okL54z+xKhJ+8M+PfTQQ15Ro2qbV0nDE/kolPrvtl9c6Dcsqb/JeOZun8ZxLH4fxgYIUpOwjyuvvLJXf5VU8YYbbvDSNjmRj0kSU5y2WUlOWBbSuVDK6z6Pr3zlK2GW3p/3RaKy7bbbFs9ErPMyCRyZxd5vWYgWmMo2f4ak2n0G7vHZZ59dpB3GgSjkJ+uiXvF0PIxqelUGXLlSDQLCXZcGBoMlReIkqpTeDtzvfOc7qWyZrOZK+WIMUdWHnheGiQpmCcLzZWxgM9HdeuutybbExNJiopldeeWVpTwipcmY1G0f7e9BBx1USsuFqvaz/YPIW6RD2TXXXJNJpOhsu+2288oZZdu8ihqcgHPVlhVYiAlqg5L6nST8iNtnPMrfcTIqp5xySmn84l3YJZiHVH8Zk22J9ylVXsoz65e//OVMlHaT+cRctW0zepG+D4wKc6VlRkUKWiy02HaWEAYe5qLsnuPG++/OZ6RjLImvpJx5YT4W3bWhYSxKuplI2L22hGNIpDtDq68vBSmj0vBJhHuCDMAU8YEOB489lwinqWyZKKR6+ZgYcasekvti2HL5lS2djP3VGG299dZe2aS3L1uYnpdPlMe89LhnlvDgYdLinBeIl9ttD3l4+UNKtZ+JWxTEwuTe+ajb5lXW4ARmz+1zeCxi+Aal9D8Jukdh30Z9Pi5GRZRaM1yGu/0R5ffSQ1lggQW8NG562bItpa+6ACPu5g+PCa+ARAXdM1G4zdDFkoi2lXnEMikphalqSx/u9YFRAQc+8hKfK2Nx6tLrX/96D3vZys1vIy21zw7p9de+9jU329CPJahpUZ+t1/1Fij6NpIxKw6cKg+EOCI5TK2UGcZjWnovVTLJGMYP08m200UbRtLEPPRKN1FYLhdwryn6hMuD73//+aPnnnXee1w7aLg6womndi0hybD/tb0yCFGu/6KDkYla3vNjxqNsWq7Pqmpgcl/ps+84vDOI0kFie5R9NPpzj+oOBGAftu+++3jNE2sgHIaSqlexXv/rVMHnl+RlnnOHV6Y4Ze5zatrX37S/M8Pnnn19ZX99v9oVRSeEkOnTe82Jr+/rrr/ckLeNQYK6bbyQYZaoLM/q6KtPK296EUE4SixwvKYp3Sy+9tHcN509VTr8wKcOEDdM1l+644w4jzIR7qbFCFH4ecMtepdyLKTFukV0HU/gqiZGbhvui79LIURmmxYQWdxXKqpRM3bo/85nP5FGE3Wux40m0LdYOe022p+xh9Bfz61ETYw7zaEuYkKOIOkwiPhF/00bCdBlZFXvd2mSTTczyyy/vXeMEd+Qpcsd8Ko17vU6RlrQiPXSzlI7xs4JbAFlwdPLhMspxIwx6Ps+VGp24QFtcEkYxN/N1r1Udo+iMgvGyyy5blazzvdVXX93Li48q4uvgLwWS7elaQwmvgMdO2j4DYY5ixRTXUvMN83CV+4SigMcOMKuWYIXh5cmdz2g2a4yNZ2sjFP3K4C21QDwFepw3ClmhDkNMpC0vmZdPJsUsZZIbSiSaRk8WRsKrA9PLGIVmzqn98lhecTTl1bHjjjuWkoXtl49CY5H1qNtWamzNBUwP5e1N/o1jvxjTbrcNM1VPoQbqkdxGKdzFjvdOFhLRusLtITff8ccfH82TuhhurbplNT3uosDrtmeU42badJqEoSj0V8LnI35TMr4PXajtM6gym6ZdSM5jVKW4HfaH82ErAMfa1OZaeokgrVX6fwRYTeG0S0S2xcVrr73WPPzww0YYmOJaaJaMozcRExrcq1vCBBl33C6FZsmyH22EwXGTDHwccsi0PUZIfFxCQvSOd7zDvZQ8ljD03r0mJtNIhFgRNaFxt62uTVXeQZFwhZKzuvK63A9X57IN2KWYOS6P6BeVogxjUi9bpCXpZh04bSQqrKLFl1GySEzZhYHKXSKce+65ScmEMPwG03hWv11Ix01z1HCPIMyXJ5EmN5JqXDFUSduqamn7DERPMFkcZum0J0ahtD6Wxl5j/FeFbrDpxvmrjEoLtNn+cRkV3CuLqaD3EQ8ZFTzL4iHWZVTwNcLEhgdWiEi7Yk3jtYS6hk0uQ5UqW7jckk8QxJuxUOCpMtzrbSZwN1/suI9tq2JUiJ/BSz9qmj17tlcFfnKU6hEgYFvoF4X3F6/IbanNOBeT12LLIFYP777op+V/Yi6bb4m6sZ9sHrxfv/vd7zZiZWgvtfod5bjBr5ONHdOkUWxz0R+X8ATbhux82iZPm7R40w63nvExJUYDbYrx0rZ5BoxVcdPg5XdPqra9WFSzxckWexXRx9NOOy3J8FTlHeU9ZVRaoIt0BAdwbsAv9FSstIGQ2+5KiQEMFy4WQrnEwO4541QI51LscUIcu2VybRSMCuXWEXv2OLMbFsHlD4v61jbif1RhJd5qh9X1ynKYoNAjgpBMLbfccpXp9abJg7mFUsxBcGnDqISr6LBeVyLGIgcX/ilHkehyoCfVhTkd5bjBxTt/TQn9CXeuQLLVJFRJ0/KHkS4WqK8tMxW2o80zwMml/YaE5XAeSszdNMShgjHff//98xht7j17zLft9NNPN2EkZXt/kr/KqLRAn7g2onOSS1FsNmLrMHj4QMBwuANJTNry63iWRZTmcs9MkpZRCSdMYuCkRHi23lH9phQmxbV46yqJByR+UFrnS2XoW9uYOKpo2Ft3qbqaRkhN5W9yHSa9Ki5NkzLapOF9Ep8hI/FMyztaFdCtTTtt2jaxfsJVuS2DX8Z4yGiy5VxFzB9dGJVxjJuqds+0e2LVWGoyHsvtPF662eBCm2dQN8bEvUNljUickPCyExAj4sH1kUmhrcqoxJ5YxTUkHWz3WCLInyi15e6uw5Dbrtt0JhuXUYHBseQec21S0hTqZqJkleCKmgkKCKc9aepb28BJTFkx8Y9CMy5GJVr5kC8yHlJWYkOuqigOaUFobVHcHOCA4Jmu5JOiPvnJT5pNN920slQkp2E+m2FYEhUs88LtQiQN6KFgGRgjcTYXu6zXhojAkUceacTVQqnEQRmVUoEVFwhuCAPvLobd5FUSFdLhdh9pforQeeorKaPS8skQzwGTQJfY/iEuR6if4jIqSCT2kvDxloi5Q6RWBl1oNjZJRoX2sWXhMiph+2wfJvHbp7axQkE0n1JwC+MTpfAiUit7yJZY1VTpScAYYY7Mx9H+sQWFLhEfXCJmK8URAC+iiLvEBwDJX5V5P+mRqKaoKaPCu1Slu+Fu+7h1rbrqqklGBYaOVXKdQqeOGxfR5sfEdhO39NEMddt4YaZBngFbMzCtMBwxmn/++WOXi2voRlURBhx9JWVUWj4ZtjPYq3QfOqJXwn+7A4gPqrt9s8IKKxhEc+hZWCJfyB0zEEk7SeIj6YqnsY7gQ1g3kY+jzX1rm5hjJxkV91lXYYMOgjjUK5Kwty9hD4rz8AAmN7QaIw2rrUMPPTRMPpTztddeOw95P5TCGhYCEzhsAp+QUYC5azK2xT16sjniEC95z71R92FLMSrouqWId1OcT0Z9v7h5JjFu3Ppn4jFWi/iHstslLD7dBSkLjCZMou37oM8AK0L3O2PL5bdK0Zb7MFwpgskJfYKl0k7iujIqHVBHquIyKmjdoyntkitN4TpbBIjWJA5EkSzGqFD2pClUAkVJ+KSTTsqdGmnbfASYOFJKf00kUUxcRGN1CfF/FWHuLjGgjPjjyZVCbVommnnnndeeDvX3gAMOGGp5kygMJ10S3sKrmkiz4s3Tu5Y6qWJUeEeaEObEVZSKtFvFqFAejsBiTurcuiYxbtz6Z9oxH370T+yzhWFBGocOoSUsNvkWVEW6tmn5HfQZ4MzRZZTcsqu2ZrEYEq/ebnLvmPbzjeorNXNe0dfWT6hd4dYM4jyJsOy1BrPkkEKlODhcTJVdCst2743rmBcy3Cdngq/j2MfRvr61LeUJEixuvvnmSjNUtmokPou3b0zoeHcijGHKlhJbibvvvrt3G5NQpTQCbO/wYXFJnOOZplt0VRZe6Ko1IVe/LUyPdaC13grvMSbCd9JNU8cAkVbHjYtY9TG+bpiL2Z6HeDYnnHCCwRtwKH276KKLvMKQRh9yyCHRd3/QZyDO5by63BMJo+Ceesfcq5Lw9n3uUEbFe5zNTpg0GLgpQgSPxU9ISFmq9pHxc1L14QvLG9U5/j+22GILr3j0MFixVYUHIAOrD1b6a665ZnJf1yu45Unf2saHLiWux8nSwQcfHO0hK5zNNtvMU8wmIdt+VSt3tzAkBC71fbJx2zruYxYEKNGGhN+IphRuGbn5cFGecqBo0/HRu/POO+1p6dc1zw1vog/F2E8RH0u7PZFKY6/ruLFI/P8v+oNIT/A1gs7YrFmzcmd6pOB9xKkb8zPzdzhm8KViibzvete7cquy2GLVpuv6DPCvk/pGoGwdGmZQH0x01VYyaVJzGPd6QSINUOqAgMR2wNQj+od77BThdj+VT5w3pbJ510MX9E1d6MtevFc3LsFTJI7MMtlG8NLTblnVZSIZysQmPw9nLi9pduKJJ2YiEs1ksGfyIhd5ZCsiWnzX9tvCRtk2W0ebX1FmLAV8tM+YsPEENBPxcCYfkozga7L9l8mWUYGTTctvLORAqi0iIfDKkIkqlXSOvk5EblGY9bCymDN2mxDRdN2xbfO7vzzXFImfpDwqr5s+PCboYZUr9lgEdLcMceaVqt673sdxM+mghGLBl48PWWRmoq/hjZUwIGuIH89AHHpmwqxmskAr8oqU3cPdPQnLaPPuMhaZh91nb4+Foc1EDSET6XceuZ5gmaJcH01r8xCEU5hst3m9O9boyR0fSRjTxz50fkUknyxV9vqTg0a49mQ+90bXD30bRoX6Pve5zyVfCLe/qWNxZuQ2uzju2v6igBG2za2jzfEee+yRfK4pfGLXm44B2iZSu6JO4kmJYnabJk99WtmqyYhom2JSwF/0sTIxvU8yCLJCzhlLscQqsI49N67JijsjKjJxYVwSk+ZMfKPU5qcMYg+JAzc3e3HMByhVN9f5eIkn20wkeUWe2EEfx80kGRUYjBSusejnYXyeWF6RplTGLxv0GQxrvqHtqQVlbOxM6poyKh2RZ4XExBQbpKJ7kixV9BaiecT0LBNPp8l87o2uH/q2jAp1EvgMhiPWz7prSF1i1LX9YVmjaFtYR5tzEb9nYpXUCSuLpSjXNqoS6Ywr8QJTJR8B2epp/CxSuItDrsZl2GeIhM0ld5Vt01T9sqKPkbgMyFjxV+Xlnjizi2XPr/V13EySURHHglFMZSsol4KGYLIgkO3/aB7wF2X4TJxBhtmK82E9A/HrkokKQrIddePE3t9yyy2LtvX1QHVU5Gl1IfYtt9pqq1JWtLKr9vtwmRy7T8yOphYbWCq41NSNc+i5MDx3y7TH7Mei1Y6yMHvkruJhTEuc/hPyHDNM9ntj1LX9YVmjaFtYR5tzTHgxE0XJFX0e9ArqiICMm2yySa58R7ynKj0FtywUdV2TWNVPcdH533ETqytS8v6kcG9ahq0dZejQzLNKt8Xmc39TFj68NymrIDd/lfWPjhsXqf8dh7GSUFreZZdd8vhmHIfEvPeNb3zDMNe5hP4Kun1Y5aSUokk/rGeAJ1nmm5122in3ZszYixHfqg033DB3WIcuFbo2EP1gTkfvpe80FxxU3xvZ5/ahPIU1DP5Q0AbHO2DsAx72AYdq1iUyDApu9psSjwxTNDTT+Rhi8taUUKziA4fzIPLFXsSqslACxbcAilu8AEzktJ1JlAm66gW15Q7SfltG7HcYbYuV2/Ua/QQfsCJ4IZ518VfARMEvuNlJo20dRx11lOdLhcmxSnmvbfmafjoR6Ou44T1xmUU+wjFPsKN4KhgAYN7NXI7vHrwAh4upWL3EZ8NTMRHjWfSxCK3zDks5o3oGfIPwsXL77bfn3yR8frEQ4ted5/Gmy3eAxU3X+SeGxyivKaMySnS1bEVgRAhgbYQlAoSVGRYnTSVyI2qSFjsDEOjruMH0G79SlvAlNK0elvv6DCz2ffxVh299fCraJkWgBgHX5T6SLGVSagDT2zkCfR03SKNnwhbEMIZRX5/BMPo2qjJUR2VUyGq5isCIEHjwwQe9+FBNvWKOqDla7AxBQMfN5B+UPoNuz0AZlW64aS5FYGIIoEDnkuuA6pZbbqmM6eHm0+M5CwEdN5N/3voMuj0DZVS64aa5FIGJIRDG9LAKzFgviH8Gs+666xosiJQUARcBHTcuGpM51mfQDXfVUemGm+ZSBCaGQBhr5LDDDjOzZ8824qDPPProo2appZYqmU5OrLFacW8Q0HEz+Uehz6DbM1Crn264aS5FYGIIYMpJhGuCGoaEySEByNqYu4dl6Pl0IqDjZvLPVZ9Bt2egWz/dcNNcisDEEMBs89BDD/V8I8w333xGPA/nWz7KpEzs0fS6Yh03k388+gy6PQOVqHTDTXMpAhNHgP1uvFziPA5nUziUU1IE6hDQcVOH0Ojv6zNoh7EyKu3w0tSKgCKgCCgCioAiMEYEdOtnjGBrVYqAIqAIKAKKgCLQDgFlVNrhpakVAUVAEVAEFAFFYIwIKKMyRrC1KkVAEVAEFAFFQBFoh4AyKu3w0tSKgCKgCCgCioAiMEYElFEZI9halSKgCCgCioAioAi0Q0AZlXZ4aWpFQBFQBBQBRUARGCMCyqiMEWytShFQBBQBRUARUATaIaCMSju8NLUioAgoAoqAIqAIjBEBZVTGCLZWpQgoAoqAIqAIKALtEFBGpR1emloRUAQUAUVAEVAExojA/wESDaJnOu5PPQAAAABJRU5ErkJggg==;" vertex="1" parent="1">
          <mxGeometry x="-30" y="300" width="211.05" height="80" as="geometry" />
        </mxCell>
        <mxCell id="5wV4bRW26JI0M855Ar_4-28" style="edgeStyle=orthogonalEdgeStyle;rounded=0;orthogonalLoop=1;jettySize=auto;html=1;" edge="1" parent="1" source="5wV4bRW26JI0M855Ar_4-19" target="5wV4bRW26JI0M855Ar_4-26">
          <mxGeometry relative="1" as="geometry" />
        </mxCell>
        <mxCell id="5wV4bRW26JI0M855Ar_4-19" value="" style="shape=image;verticalLabelPosition=bottom;labelBackgroundColor=default;verticalAlign=top;aspect=fixed;imageAspect=0;image=data:image/png,iVBORw0KGgoAAAANSUhEUgAAAf0AAABRCAYAAADYZX+pAAAMQmlDQ1BJQ0MgUHJvZmlsZQAASImVVwdYU8kWnluSkEBoAQSkhN4EESkBpITQAkgvgqiEJEAoMQaCih1ZVHAtqIiADV0VUeyAWFDEzqLY+2JBQVkXC3blTQrouq98b75v7vz3nzP/OXPuzL13AFA7wRGJslF1AHKEeeLoID/6hMQkOqkHEIA2IAMboM3h5oqYkZFhAJah9u/l3Q2ASNur9lKtf/b/16LB4+dyAUAiIU7l5XJzID4IAF7NFYnzACBKebPpeSIphhVoiWGAEC+W4nQ5rpbiVDneK7OJjWZB3AaAkgqHI04HQPUy5On53HSoodoPsaOQJxACoEaH2DsnZyoP4hSIraGNCGKpPiP1B530v2mmDmtyOOnDWD4XWVHyF+SKsjkz/890/O+Sky0Z8mEJq0qGODhaOmeYt1tZU0OlWAXiPmFqeATEmhB/EPBk9hCjlAxJcJzcHjXg5rJgzoAOxI48jn8oxAYQBwqzw8MUfGqaIJANMVwh6AxBHjsWYl2IF/NzA2IUNpvEU6MVvtCGNDGLqeDPccQyv1JfDyRZcUyF/usMPluhj6kWZMQmQEyB2DxfEB8OsSrEDrlZMaEKm3EFGazwIRuxJFoavznE0XxhkJ9cH8tPEwdGK+xLcnKH5ottyhCwwxV4f15GbLA8P1gblyOLH84Fu8wXMuOGdPi5E8KG5sLj+wfI54718IVxMQqdD6I8v2j5WJwiyo5U2OOm/OwgKW8KsXNufoxiLB6fBxekXB9PE+VFxsrjxAsyOSGR8njwFSAMsIA/oAMJrKlgKsgEgo6+xj54J+8JBBwgBumAD+wVzNCIBFmPEF5jQAH4EyI+yB0e5yfr5YN8yH8dZuVXe5Am682XjcgCTyHOAaEgG95LZKOEw97iwRPICP7hnQMrF8abDau0/9/zQ+x3hgmZMAUjGfJIVxuyJAYQ/YnBxECiDa6Pe+OeeBi8+sLqhDNw96F5fLcnPCV0Eh4RrhO6CLenCArFP0U5HnRB/UBFLlJ/zAVuCTVdcD/cC6pDZVwH1wf2uDP0w8R9oGcXyLIUcUuzQv9J+28z+OFpKOzIjmSUPILsS7b+eaSqrarLsIo01z/mRx5r6nC+WcM9P/tn/ZB9HmxDf7bEFmMHsLPYSew8dhRrBHSsBWvC2rFjUjy8up7IVteQt2hZPFlQR/APf0NPVprJXMc6x17HL/K+PP4M6TsasKaKZooF6Rl5dCb8IvDpbCHXYRTdydHJGQDp90X++noTJftuIDrt37mFfwDg1TI4OHjkOxfSAsA+N7j9D3/nrBnw06EMwLnDXIk4X87h0gsBviXU4E7TA0bADFjD+TgBV+AJfEEACAERIBYkgskw+gy4zsVgOpgNFoBiUApWgDWgEmwEW8AOsBvsB43gKDgJzoCL4DK4Du7C1dMNXoB+8A58RhCEhFARGqKHGCMWiB3ihDAQbyQACUOikUQkBUlHhIgEmY0sREqRMqQS2YzUIvuQw8hJ5DzSidxGHiK9yGvkE4qhKqgWaohaoqNRBspEQ9FYdBKajk5DC9AidBlagdagu9AG9CR6Eb2OdqEv0AEMYMqYDmaC2WMMjIVFYElYGibG5mIlWDlWg9VjzfA5X8W6sD7sI07EaTgdt4crOBiPw7n4NHwuvhSvxHfgDXgbfhV/iPfj3whUggHBjuBBYBMmENIJ0wnFhHLCNsIhwmm4l7oJ74hEog7RiugG92IiMZM4i7iUuJ64h3iC2El8TBwgkUh6JDuSFymCxCHlkYpJ60i7SC2kK6Ru0gclZSVjJSelQKUkJaFSoVK50k6l40pXlJ4pfSarky3IHuQIMo88k7ycvJXcTL5E7iZ/pmhQrChelFhKJmUBpYJSTzlNuUd5o6ysbKrsrhylLFCer1yhvFf5nPJD5Y8qmiq2KiyVZBWJyjKV7SonVG6rvKFSqZZUX2oSNY+6jFpLPUV9QP2gSlN1UGWr8lTnqVapNqheUX2pRlazUGOqTVYrUCtXO6B2Sa1Pnaxuqc5S56jPVa9SP6x+U31Ag6YxRiNCI0djqcZOjfMaPZokTUvNAE2eZpHmFs1Tmo9pGM2MxqJxaQtpW2mnad1aRC0rLbZWplap1m6tDq1+bU1tZ+147RnaVdrHtLt0MB1LHbZOts5ynf06N3Q+jTAcwRzBH7FkRP2IKyPe647U9dXl65bo7tG9rvtJj64XoJelt1KvUe++Pq5vqx+lP11/g/5p/b6RWiM9R3JHlozcP/KOAWpgaxBtMMtgi0G7wYChkWGQochwneEpwz4jHSNfo0yj1UbHjXqNacbexgLj1cYtxs/p2nQmPZteQW+j95sYmASbSEw2m3SYfDa1Mo0zLTTdY3rfjGLGMEszW23WatZvbmw+3ny2eZ35HQuyBcMiw2KtxVmL95ZWlgmWiywbLXusdK3YVgVWdVb3rKnWPtbTrGusr9kQbRg2WTbrbS7borYuthm2VbaX7FA7VzuB3Xq7zlGEUe6jhKNqRt20V7Fn2ufb19k/dNBxCHModGh0eDnafHTS6JWjz47+5ujimO241fHuGM0xIWMKxzSPee1k68R1qnK6NpY6NnDsvLFNY1852znznTc433KhuYx3WeTS6vLV1c1V7Frv2utm7pbiVu12k6HFiGQsZZxzJ7j7uc9zP+r+0cPVI89jv8dfnvaeWZ47PXvGWY3jj9s67rGXqRfHa7NXlzfdO8V7k3eXj4kPx6fG55GvmS/Pd5vvM6YNM5O5i/nSz9FP7HfI7z3LgzWHdcIf8w/yL/HvCNAMiAuoDHgQaBqYHlgX2B/kEjQr6EQwITg0eGXwTbYhm8uuZfeHuIXMCWkLVQmNCa0MfRRmGyYOax6Pjg8Zv2r8vXCLcGF4YwSIYEesirgfaRU5LfJIFDEqMqoq6mn0mOjZ0WdjaDFTYnbGvIv1i10eezfOOk4S1xqvFp8cXxv/PsE/oSyha8LoCXMmXEzUTxQkNiWRkuKTtiUNTAyYuGZid7JLcnHyjUlWk2ZMOj9Zf3L25GNT1KZwphxIIaQkpOxM+cKJ4NRwBlLZqdWp/VwWdy33Bc+Xt5rXy/fil/GfpXmllaX1pHulr0rvzfDJKM/oE7AElYJXmcGZGzPfZ0Vkbc8azE7I3pOjlJOSc1ioKcwStk01mjpjaqfITlQs6prmMW3NtH5xqHhbLpI7KbcpTwv+yLdLrCW/SB7me+dX5X+YHj/9wAyNGcIZ7TNtZy6Z+awgsOC3Wfgs7qzW2SazF8x+OIc5Z/NcZG7q3NZ5ZvOK5nXPD5q/YwFlQdaC3wsdC8sK3y5MWNhcZFg0v+jxL0G/1BWrFouLby7yXLRxMb5YsLhjydgl65Z8K+GVXCh1LC0v/bKUu/TCr2N+rfh1cFnaso7lrss3rCCuEK64sdJn5Y4yjbKCsserxq9qWE1fXbL67Zopa86XO5dvXEtZK1nbVRFW0bTOfN2KdV8qMyqvV/lV7ak2qF5S/X49b/2VDb4b6jcabizd+GmTYNOtzUGbG2osa8q3ELfkb3m6NX7r2d8Yv9Vu099Wuu3rduH2rh3RO9pq3WprdxrsXF6H1knqencl77q82393U719/eY9OntK94K9kr3P96Xsu7E/dH/rAcaB+oMWB6sP0Q6VNCANMxv6GzMau5oSmzoPhxxubfZsPnTE4cj2oyZHq45pH1t+nHK86PhgS0HLwAnRib6T6Scft05pvXtqwqlrbVFtHadDT587E3jm1Fnm2ZZzXueOnvc4f/gC40LjRdeLDe0u7Yd+d/n9UIdrR8Mlt0tNl90vN3eO6zx+xefKyav+V89cY1+7eD38eueNuBu3bibf7LrFu9VzO/v2qzv5dz7fnX+PcK/kvvr98gcGD2r+sPljT5dr17GH/g/bH8U8uvuY+/jFk9wnX7qLnlKflj8zflbb49RztDew9/Lzic+7X4hefO4r/lPjz+qX1i8P/uX7V3v/hP7uV+JXg6+XvtF7s/2t89vWgciBB+9y3n1+X/JB78OOj4yPZz8lfHr2efoX0peKrzZfm7+Ffrs3mDM4KOKIObJfAQxWNC0NgNfbAaAmAkCD5zPKRPn5T1YQ+ZlVhsB/wvIzoqy4AlAP/9+j+uDfzU0A9m6Fxy+or5YMQCQVgFh3gI4dO1yHzmqyc6W0EOE5YFPA19ScVPBvivzM+UPcP7dAquoMfm7/BXUcfGK8z2bYAAAAVmVYSWZNTQAqAAAACAABh2kABAAAAAEAAAAaAAAAAAADkoYABwAAABIAAABEoAIABAAAAAEAAAH9oAMABAAAAAEAAABRAAAAAEFTQ0lJAAAAU2NyZWVuc2hvdNisJZ8AAAHVaVRYdFhNTDpjb20uYWRvYmUueG1wAAAAAAA8eDp4bXBtZXRhIHhtbG5zOng9ImFkb2JlOm5zOm1ldGEvIiB4OnhtcHRrPSJYTVAgQ29yZSA2LjAuMCI+CiAgIDxyZGY6UkRGIHhtbG5zOnJkZj0iaHR0cDovL3d3dy53My5vcmcvMTk5OS8wMi8yMi1yZGYtc3ludGF4LW5zIyI+CiAgICAgIDxyZGY6RGVzY3JpcHRpb24gcmRmOmFib3V0PSIiCiAgICAgICAgICAgIHhtbG5zOmV4aWY9Imh0dHA6Ly9ucy5hZG9iZS5jb20vZXhpZi8xLjAvIj4KICAgICAgICAgPGV4aWY6UGl4ZWxZRGltZW5zaW9uPjgxPC9leGlmOlBpeGVsWURpbWVuc2lvbj4KICAgICAgICAgPGV4aWY6UGl4ZWxYRGltZW5zaW9uPjUwOTwvZXhpZjpQaXhlbFhEaW1lbnNpb24+CiAgICAgICAgIDxleGlmOlVzZXJDb21tZW50PlNjcmVlbnNob3Q8L2V4aWY6VXNlckNvbW1lbnQ+CiAgICAgIDwvcmRmOkRlc2NyaXB0aW9uPgogICA8L3JkZjpSREY+CjwveDp4bXBtZXRhPgrtqArRAAAX1klEQVR4Ae2dC/QWwxvHJ4ouFBHlLuQScsul20mSSxwSByVUKo7rcSlKEYekojjH3ckl/BxFp3BQKcklckkpRVFuhZB7kv0/3/Xfaff97c7Oe/m9777vfuecX+/u7Mzszmee9tmZeeaZWo4ExUACJEACJEACJFDxBDap+BqygiRAAiRAAiRAAi4BKn0KAgmQAAmQAAmkhACVfkoamtUkARIgARIgASp9ygAJkAAJkAAJpIQAlX5KGprVJAESIAESIAEqfcoACZAACZAACaSEAJV+Shqa1SQBEiABEiABKn3KAAmQAAmQAAmkhACVfkoamtUkARIgARIgASp9ygAJkAAJkAAJpIQAlX5KGprVJAESIAESIAEqfcoACZAACZAACaSEQO2U1JPVTCiB77//XrVv397q6R566CHVrl07q7RpS7Ro0SI1Y8YMXe2zzjpLNWnSRJ+n/WDSpEnqm2++cTFss802qkePHmlHYl3/3r17q7feeis2fdeuXdWYMWNi0zFBaQlQ6ZeWf+rv/s8//6glS5ZoDptuuqmqX7++PvcfrFu3zn/KYx+BN998U1122WU6pm3btlT6moZSY8eOVXPmzHFj9t9/fyp9H5u4wzVr1ugPJn/aDRs2qD/++ENHHXzwwfqYB8klQKWf3LZJ5ZO1adNGzZ49O5V1Z6VJIIkEpkyZEvpYc+fOVUceeWToNUYmlwDn9JPbNnwyEiABEiABEigogYL19N977z21dOlS64erVauW2myzzVTdunXdv8aNG6uWLVuqOnXqWJfBhCTgJ0AZ9NPgcakIUA7tyGfLqVmzZqpjx46BwqdPn65gF2Qb9ttvP9WqVSvb5BWZrmBKf/DgweqVV17JCxLmco844gjVuXNnd35yiy22yKs8Zk4XAcpguto7qbWlHNq1TLacYJyaqfR79uypvvvuO7sbSqoRI0akXukXbHh/7dq11uCjEsIoZObMmWrIkCFq7733VhMmTIhKyngSqEaAMlgNCSNKQIByaAc9W06ZCh/6Yv369XY3k1SbbLKJ6tChg3X6Sk1YMKUP6+HRo0fHckJvvlGjRm4DmBJjeU2vXr3U+PHjTcl4jQQ0AcqgRsGDEhKgHNrBt+W07bbbqqqqKjVgwIBAwdAl0BN9+vQJxIedoBOJ1RswFE57KJjSx1dUv379jDybNm2qfv/9d/Xzzz+rP//807UBGDZsmKpXr15kPixDWr58eeR1XiABjwBl0CPB31ISoBza0bfhhJImT56szjzzzNBCYROGzqEpQL+8/vrr6qijjjIlS821gil9EPv777+N4DBf7wUY8e21115q+PDhbqN68Zm/v/32m4JTFgYSsCFAGbShxDQ1TYByaEc4jhPW/sPnhCnA14cp0FFVkE5Blf6XX34ZLD3jzK/0/Ze6dOniGu/54/zH8+fP95/ymAQiCVAGI9HwQhEJUA7tYMdxOuGEE2ILKkQZsTepoAQFVfoLFy40oolS+shk8ub00UcfGcvlRRLwCFAGPRL8LSUByqEd/ThOWMkVF0xlYGl4p06d4opI1fWCKn2Tf2bM37Ru3ToSbsOGDSOvxQ0BRWbkhdQRoAymrskTWWHKoV2zmDjBJffhhx8eW9Dbb78dmQYGfNhrgWEjgYIqfRN8OEXYcsstN94542jVqlUZMRtPW7RosfGERyRgIEAZNMDhpaIRoBzaoTZxOuCAA1SDBg2MBaFD+P7770emoZvg6mgKpvRhlb9gwYLqd/h/jGloH0lMQ/j77rtvZLm8QAIeAcqgR4K/pSRAObSjH8fJxtr+ww8/VH/99VfkDW3KiMxcoRcKpvTnzZunTFaUpi+uFStW6B2wwjib5vvD0jMunQQog+ls96TVmnJo1yL5cPLuYJoeQBqT3vHKSNtvwdzwmoZpANXU07/jjjuU4zih7HfZZRd1/vnnh15LayScIH399ddFrX63bt0S782KMlhUkeDNIghQDiPAZETHcbLppZvKwHQytlFmCBIomNI3fXHBhz420wkL06ZNU3fffXfYJTfu9ttvNzrvicxYwReefPJJ9cEHHxS1hrvttlvilT5lsKgiwZtFEKAcRoDJiDZxgvEd/LjEBVMZMByHATlDkEDBlL7piysKPpRX//79I3v5cKoQ5YkpWA2ekYBSlEFKQRIIUA7tWsHECX71Tz/9dGNB//77r8LUcFTg0H44mYIo/c8//1ytXr06/A4Si6F9NNAPP/zg7og0e/Zs15cyXCNGBXwM3HvvvVGXUx1vWt6YVjCUwZppeWxbil3M9txzT7X55ptb3wSutr/66ivVvHlzBR/ptgEeOL/44guFab1ylHPKoV1Lx3GCm/ZJkybZFRaRymZ6ICJrZUfLXHreQXrsmJA3/skwi/G6l1/+sztTpkzJ+5kquYBff/3VkY+sov6JpW2NIJUNMwJy0b59+5zuk3YZfPDBBwMcZa/ynDh6meSl65x22mm6TFHcziOPPOJdjvyVj3vnwgsv1Plq167tjBw5MjK9/8KNN97oyNpsN684VXGuuOIK/+W8jtu1a6efSeZ58yrLlDlNcig9dc0U728ZmTWhCVyz4eTphFx/5YM1cE+e/EegID190zCNNJgb0NM3Bazjv/jii9V5550XuzbTVE7mNawogJtGUZQKtgU77bSTgt//cg6oB/4YNhJIsgxufMryORo1apR69tln9QNjuBWjb/JR5vbe9YWMg0cffVTdd999Ohb//wYNGuTmM/W8ZsyYoUTp63zyelJjx451d0U744wzdHzSDyiHdi1k4oR5eKzRjwsm9+wYmcLufIUKlaRHCqL0TcYUttDxsjjssMNskxvTYRoBFu7PPPOMWrlyZWApofQ83A1+unbtaiyDF8uLQNJksLzoVX/aV199tVokHKFgSg5D9lEByjssoLw4pR+WD+WVk9KnHIa1YvU4EydY3GP9vSmsX7/e3aId0wBhoRDz+ZWqR/I2bYRjBFMDHXvssWrixInq2muvNVpjYmOFTz75JKz9sop77LHH1O67765kSFFvyQv/y17AFxs9/Hk0KuM3aTIIqlCQL7zwgsKe4eUYolxfR8V7dYy6HhWfbz4vfxJ+kyiHSeCS+QxxnGwUNpy5RSl83M/0gZn5PGHnlaxH8lb6Mneo8NUVFU455RTVvXt3NWLECDVz5ky13XbbhSbFV1WPHj1Cr9lGTp06VfXp00fBGAgBy/1++eUXt7ffrFkzNw5DPjZLQdzE/KcsCCRJBjEsXVVVpeBF8qSTTlK33HJLWTDMfMhDDz00M8o9jxuNi7oeFe/dJOp6VLyXL0m/SZLDJHHJfJY4TjYK2zRSgPvZfDhkPpd3XvF6JF/jBhlGDxhzCLjAufhFDtxCLPID1zPTz5kzJ5De9kSc1Tj16tXTZfft2zeQVeYZHRnSdwYPHhyI50lpCRTCkC8pMihD2I4oKS2DkG0YwxUjFNqQTyz2HflwCdTl6quvjq2KzP07bdq0CeQ7++yzY/Nt2LDBkQ5CIN/RRx/trFu3LjavTYJiGPIlRQ5teBQijczLB9rL1pAvjtPixYtjH69nz56Be/v1CIxOpSMaW0ZYgjTokbzn9E1fXDA2O/DAA6U9NoYTTzxx40nI0Ysvvqjatm0bcsUcNW7cOD3cg+H8a665JpBhwIABCn+VEI4//njjPgeFriMMa5544onEOucptQwuWrRIDRw40B3Oz2RfrkajTZo0cTcywfJaLNnD/+PM/8uZdcW5fHgr5MEfDGixy5nJG6dXBmRs8uTJ7nQIlvvh3SGKuqycq5RaDj2WSf81cdpqq61cmYmrg8kQEKNDsN3KJaRBj+RGxkfTBB/bImJ7RH/A+tt99tkncv5+1qxZ/uRWx7DMv//++3Va3Bcvm0oNeAlLD7mo1YMHwA4dOhT1nrY3K5UMYmfIG264QT388MNKeqqhj5sp/6GJEhpZt25d1aVLl6yfDnWWXnrW+ZBBRglyypeETKWSwyTUPZtnMHHCB6LfBiusXPiOWLZsWdglNy7Xof206JG8lD6+5E0+4KP+A+MLPspoD8oFxna2X2poqMsvv1ytXbtWC8GaNWvUPffco8/hHOTcc8/Nq9cgQ0HuagAsY/r2229Vq1at3JGDMPfCWJ4ow61uzw+9FtgQDB06VMGVLUNhCZRKBmE3AoNQyB8CesEXXXSRguxdf/31upLowTJUPoFSyaFHFooQzszeeecdd8QTSytlKjOwPBn2TQ888IB69913FT5Y8T7CygjYnhQrxHGymc83fTSgHjZlZNY3TXokL6UfBz9K6Zt2zYNF5sKFC9VBBx2U2S6B89dee03JvI7rCRAfCf7w2WefuWv+vTj0PODOF0OPuQQo8fNl05/HH39cZ8fwJTxGwSiladOmOh6Wqaeeeqp6+eWXdRyWOQ0fPlyf53uA3hc2kyhm2HHHHYt5O+t7lUoGMfx8zDHHuMapN910kytvkDN85PmVvnVFmLCsCZRKDgENHREYMPs7PlgiWadOHTVkyBCX61NPPaUuueQS9eOPP2rOeIfBSv2uu+5Sl156qY6vyYM4Tja99EKU4dUxjXokL6VvcqMLqFENaFL6yIev1Til//HHH7ujAVBGGOr2ryDYddddUYwO6GnnqvBRCF7ifoXvFYz7YloBQ7wIGA3AfgF+hY94OIqAU6BChdtuu61QRZV9OaWUQfSs0JP3r0gp5+H8sheGElagVHI4ZswYJQaWoTV/7rnnXKWP9wV6/Xg/hQW8v/BBEDesHpY327g4Tjb2H6Yy8O73d8Lini+VeiTMgtE2TubNIy0oBX5kMXDpKi/HyLznnHNOZN6wC/KBoMsS5RqWJOc4WGTLi90tXzyEOTKK4IhQ6fv5XXrKEL6Ohzth2SnKPe/Xr1/O96/0jPla7ydFBr12kiFULQPywnF69erlXarR30Jb79fow5ag8Jq23i+FHEovXcuabE7jwPJcevw6DvKHVUv4hTvk6667zpGl0Q5WVDVu3DiQTvZJyLpVpMcdKMPGet/ESaYbYp8B/79kBCNwX9TP+5NR1tgyohKkRY/g6y+nIF9IGrQH3P8b50Nd5sQj84vlsPWSC5mLCXxAFHqJlPTaHVnb71xwwQWa08033xx4dpnHdZ5//nlHvpTd+E6dOjkyzOssWbLEkdUIjmwuofPyIEggH6WfFBn014hK308jOcc1qfRLJYfwLX/IIYc4YkviYM8DhDvvvDPwbpLVI44YZLrvJ39rdOvWLZDu008/9V+2Os5W6efLCQ8lq4gCz+3XOTiWaQqrZ89MlCY9kpPSF+9agc04MsHjHIrStFbSvylHWH4oVpsgbjoDQiBDWTbZskrz008/OVh/7AXxBhW4pwzx6y9nWW7o1NTmNN79K+k3V6WfJBn0tweVvp9Gco5rSumXWg49Ze+RxgdA5vtU5vO9y/oXvXJ/ulzeWdkofRtOGEHNrI9+YDnAe1gMZgPP7a8DjsXeyZ/F+jhNeiRrpS8ud2PBew0h6+KdN954IxS8zJEbGw/D/zLPFNtLzux1Yzi+pgMEM3N4DHUW2wF3+Kym719J5eei9JMmg/72oNL300jOcU0o/STKYaZzqN69e4c2gmxwpt+/pqnY0Mz/j7RV+tlwkk3XnLBRB3Fp7eywww76mT0dk/mLof9bb73VgXOpbEKa9EjWSr9jx46x4P0N0ahRo1D2aBRvrtyfPvNYnOyE5vcixWe/fh6Uh5duMYIsc9H3xTOLNb0jTlqKceuKukcuSj9pMuhvECp9P43kHNeE0k+aHKK3jrl77x3aoEEDR5YXV2sETD363725zoPbKv1sOcEuwR/Qydp66611vbz6mX5lRYK/iNjjNOmRrBcRm9blSyNUC1GW+vD4FWXd7y/EZMUvLalE8HRyOP0p1lK2TCtTWPHD3zpDzRNIkgzWfG15h6QSSJocYtWTf/ky1uCHWbLL6KsSRaqxZr7L9IUCHeTLCWvovf1UbB8pSu+E5U+bHsl6yd7SpUvDuOUUB+HLJ8DBj8zz6CLgia9YIdN5EDwNMhSHQJJksDg15l2SSCBpcpj5PhWj5lBsWMPvD1H+VPxp8jnOl1PDhg3dXSvzeQZT3rTpkax7+iZ4xb6WuW1psZT+/Pnzq+2eNm/evGJXn/cjARIgAU3Ar/Sx5l6mNPQ1/8G0adP0KRz4tG7dWp+n8SBteqSslX7mxg3FUPpwwXvyySdXG27yTzOk8T8O60wCJFA6Ahii9r8PZT28knnwag8Ej3wLFizQ8dhCOR/HZbqgMj7wc0M1Kl2PlLXS93+hYXMQm13A8pFNzC3J9rzu7mHYDQqufb0Al5YMJEACJFAKArIG3nUB7d07yv/83LlzYbztJYscDdAJUnCQNj2S9Zx+UmQAc/n+TXtg8IehqlzCSy+9pG0DsJGOLGepVozs660wR4YNgRDGjx+vZO2+evrpp91zsUJXsjRFuw/GvBlGBbA/AEN6CMh65EBl/YZVgQs8IYECEvAP7aPYKKXv7+UjnX8KQByMue++5s2b41IqQhr1SNkqfQyn+79Y8xmSwWYVUNAI8GM9atQo97h79+5KlsGoK6+8UsHH9fTp0934q666yt1UZ8WKFe6598+ECRNcpb969WolroTdMuGLHf74GewIYDQlaqoEqyNkCahdQSVKJV4YA3deuXJl4JwnJFATBGyVPt5N/oBpAATsLSJr+l1rf3HTG9hPYvHixYHNfLz8GF0o95BKPSKKsyyDbIITWLcpCjfnesiGOLqsHj16uOWIxamOE8HWx7JPuCO9N30vv5MLOIaAMwxZOuiml/kyB56oGKIJZK7T97POPJYRmeiCSnwFa5/FQKqa4yq4Zh45cqQjW4oavY3l+/hwdgUvmN6fGJvmW2RF5YdfDY9NnIvwcqz4Hnvsod9RYu3ubNiwIbQa8L/v/3+FNfTYH8JzIY41+zKqGcgru0kG8vjz+49tfO8HCk7ASRr1SNn29AtpfOGfFvCGY+fMmSPyHAywGcA2lv6d1DBK4O1yhZ3+MOyPAD8EVVVVOU85BO9cuWfiQMR6W8/M3RNLTWXZsmUKy50wOoEtocOCvNfUoEGD3D8s88Tyo86dO+tpobA8ucRhZAl/DOEEpk6dGn6hAmJXrVqlIItewLp7cb7jnQZ+xU144HzWrFn6vG/fvko26HF3L9WRcoCtwsOmPP1pcAyjwHILqdQjCfjYyvoR4NNf9jPXX5/YoMfksznuBttvv70uS/ZGd5P3799fx4kgO2LAF+piV172TocOHQJpZRjagX9+hsomIDYlgXaHnNj8oefEQAKFIiDTjgG5GzZsmLFoUe6B9NjdLp+RUuPNEnwxrXqkFtqk3L7O8HUqw+z6sWUHPCVbi+rzbA5khzwlSl/JcJibTTZeULJLnmukB8M8cauqZPjf/YsqF3kxDyauhVWzZs3cef2oL+2oMhhPAiRAAsUiAIc5sk24kq3IVcuWLQOjl8V6hlLfJ616pCyH92W72oC8wOAu1wADFk/hwzofCh+hfv367tCtTbkY7k+7gwsbTkxDAiSQDAItWrRQ+EtzSKseKbuePnwwy252CvNYCGKco7Bczj8vbyvIWH4nRj2uhb4McblW4+j1M5AACZAACVQugTTrkXBrj4S2NWYiBg8erBU+HnPcuHE5KXzkRVlYkgcDFBh0UOGDCgMJkAAJVC6BtOuRsujpT5482XWKA4c3fqt6DOtPnDgxZ+lcvny5Gj16tLsuH1bkDCRAAiRAApVJgHrkv3YtC6UPL3liDa8lEUufBg4cqIYOHargfpeBBEiABEiABEwEqEf+o1MWhnw777yzu3mEOKBwLU2PO+4499fUwLxGAiRAAiRAAh4B6pH/SJRFT99rNP6SAAmQAAmQAAnkTqCsDPlyryZzkgAJkAAJkAAJUOlTBkiABEiABEggJQSo9FPS0KwmCZAACZAACVDpUwZIgARIgARIICUEqPRT0tCsJgmQAAmQAAlQ6VMGSIAESIAESCAlBKj0U9LQrCYJkAAJkAAJUOlTBkiABEiABEggJQSo9FPS0KwmCZAACZAACVDpUwZIgARIgARIICUEqPRT0tCsJgmQAAmQAAlQ6VMGSIAESIAESCAlBKj0U9LQrCYJkAAJkAAJUOlTBkiABEiABEggJQT+BxT2+x3tg0X9AAAAAElFTkSuQmCC;" vertex="1" parent="1">
          <mxGeometry x="-5.620000000000004" y="410" width="171.24" height="27.25" as="geometry" />
        </mxCell>
        <mxCell id="5wV4bRW26JI0M855Ar_4-34" style="edgeStyle=orthogonalEdgeStyle;rounded=0;orthogonalLoop=1;jettySize=auto;html=1;entryX=0;entryY=0.25;entryDx=0;entryDy=0;" edge="1" parent="1" source="5wV4bRW26JI0M855Ar_4-21" target="5wV4bRW26JI0M855Ar_4-22">
          <mxGeometry relative="1" as="geometry" />
        </mxCell>
        <mxCell id="5wV4bRW26JI0M855Ar_4-21" value="&lt;font style=&quot;font-size: 10px;&quot;&gt;Can only be computed by using the trapdoor&lt;/font&gt;" style="text;html=1;align=center;verticalAlign=middle;whiteSpace=wrap;rounded=0;fillColor=#d5e8d4;strokeColor=#82b366;" vertex="1" parent="1">
          <mxGeometry x="-140" y="310" width="90" height="50" as="geometry" />
        </mxCell>
        <mxCell id="5wV4bRW26JI0M855Ar_4-23" value="" style="edgeStyle=orthogonalEdgeStyle;rounded=0;orthogonalLoop=1;jettySize=auto;html=1;" edge="1" parent="1" source="5wV4bRW26JI0M855Ar_4-22" target="5wV4bRW26JI0M855Ar_4-19">
          <mxGeometry relative="1" as="geometry" />
        </mxCell>
        <mxCell id="5wV4bRW26JI0M855Ar_4-22" value="" style="rounded=0;whiteSpace=wrap;html=1;fillColor=none;" vertex="1" parent="1">
          <mxGeometry x="40" y="320" width="80" height="40" as="geometry" />
        </mxCell>
        <mxCell id="5wV4bRW26JI0M855Ar_4-24" value="" style="shape=image;verticalLabelPosition=bottom;labelBackgroundColor=default;verticalAlign=top;aspect=fixed;imageAspect=0;image=data:image/png,iVBORw0KGgoAAAANSUhEUgAAAXMAAABfCAYAAAAaoydrAAAMQmlDQ1BJQ0MgUHJvZmlsZQAASImVVwdYU8kWnluSkEBoAQSkhN4EESkBpITQAkgvgqiEJEAoMQaCih1ZVHAtqIiADV0VUeyAWFDEzqLY+2JBQVkXC3blTQrouq98b75v7vz3nzP/OXPuzL13AFA7wRGJslF1AHKEeeLoID/6hMQkOqkHEIA2IAMboM3h5oqYkZFhAJah9u/l3Q2ASNur9lKtf/b/16LB4+dyAUAiIU7l5XJzID4IAF7NFYnzACBKebPpeSIphhVoiWGAEC+W4nQ5rpbiVDneK7OJjWZB3AaAkgqHI04HQPUy5On53HSoodoPsaOQJxACoEaH2DsnZyoP4hSIraGNCGKpPiP1B530v2mmDmtyOOnDWD4XWVHyF+SKsjkz/890/O+Sky0Z8mEJq0qGODhaOmeYt1tZU0OlWAXiPmFqeATEmhB/EPBk9hCjlAxJcJzcHjXg5rJgzoAOxI48jn8oxAYQBwqzw8MUfGqaIJANMVwh6AxBHjsWYl2IF/NzA2IUNpvEU6MVvtCGNDGLqeDPccQyv1JfDyRZcUyF/usMPluhj6kWZMQmQEyB2DxfEB8OsSrEDrlZMaEKm3EFGazwIRuxJFoavznE0XxhkJ9cH8tPEwdGK+xLcnKH5ottyhCwwxV4f15GbLA8P1gblyOLH84Fu8wXMuOGdPi5E8KG5sLj+wfI54718IVxMQqdD6I8v2j5WJwiyo5U2OOm/OwgKW8KsXNufoxiLB6fBxekXB9PE+VFxsrjxAsyOSGR8njwFSAMsIA/oAMJrKlgKsgEgo6+xj54J+8JBBwgBumAD+wVzNCIBFmPEF5jQAH4EyI+yB0e5yfr5YN8yH8dZuVXe5Am682XjcgCTyHOAaEgG95LZKOEw97iwRPICP7hnQMrF8abDau0/9/zQ+x3hgmZMAUjGfJIVxuyJAYQ/YnBxECiDa6Pe+OeeBi8+sLqhDNw96F5fLcnPCV0Eh4RrhO6CLenCArFP0U5HnRB/UBFLlJ/zAVuCTVdcD/cC6pDZVwH1wf2uDP0w8R9oGcXyLIUcUuzQv9J+28z+OFpKOzIjmSUPILsS7b+eaSqrarLsIo01z/mRx5r6nC+WcM9P/tn/ZB9HmxDf7bEFmMHsLPYSew8dhRrBHSsBWvC2rFjUjy8up7IVteQt2hZPFlQR/APf0NPVprJXMc6x17HL/K+PP4M6TsasKaKZooF6Rl5dCb8IvDpbCHXYRTdydHJGQDp90X++noTJftuIDrt37mFfwDg1TI4OHjkOxfSAsA+N7j9D3/nrBnw06EMwLnDXIk4X87h0gsBviXU4E7TA0bADFjD+TgBV+AJfEEACAERIBYkgskw+gy4zsVgOpgNFoBiUApWgDWgEmwEW8AOsBvsB43gKDgJzoCL4DK4Du7C1dMNXoB+8A58RhCEhFARGqKHGCMWiB3ihDAQbyQACUOikUQkBUlHhIgEmY0sREqRMqQS2YzUIvuQw8hJ5DzSidxGHiK9yGvkE4qhKqgWaohaoqNRBspEQ9FYdBKajk5DC9AidBlagdagu9AG9CR6Eb2OdqEv0AEMYMqYDmaC2WMMjIVFYElYGibG5mIlWDlWg9VjzfA5X8W6sD7sI07EaTgdt4crOBiPw7n4NHwuvhSvxHfgDXgbfhV/iPfj3whUggHBjuBBYBMmENIJ0wnFhHLCNsIhwmm4l7oJ74hEog7RiugG92IiMZM4i7iUuJ64h3iC2El8TBwgkUh6JDuSFymCxCHlkYpJ60i7SC2kK6Ru0gclZSVjJSelQKUkJaFSoVK50k6l40pXlJ4pfSarky3IHuQIMo88k7ycvJXcTL5E7iZ/pmhQrChelFhKJmUBpYJSTzlNuUd5o6ysbKrsrhylLFCer1yhvFf5nPJD5Y8qmiq2KiyVZBWJyjKV7SonVG6rvKFSqZZUX2oSNY+6jFpLPUV9QP2gSlN1UGWr8lTnqVapNqheUX2pRlazUGOqTVYrUCtXO6B2Sa1Pnaxuqc5S56jPVa9SP6x+U31Ag6YxRiNCI0djqcZOjfMaPZokTUvNAE2eZpHmFs1Tmo9pGM2MxqJxaQtpW2mnad1aRC0rLbZWplap1m6tDq1+bU1tZ+147RnaVdrHtLt0MB1LHbZOts5ynf06N3Q+jTAcwRzBH7FkRP2IKyPe647U9dXl65bo7tG9rvtJj64XoJelt1KvUe++Pq5vqx+lP11/g/5p/b6RWiM9R3JHlozcP/KOAWpgaxBtMMtgi0G7wYChkWGQochwneEpwz4jHSNfo0yj1UbHjXqNacbexgLj1cYtxs/p2nQmPZteQW+j95sYmASbSEw2m3SYfDa1Mo0zLTTdY3rfjGLGMEszW23WatZvbmw+3ny2eZ35HQuyBcMiw2KtxVmL95ZWlgmWiywbLXusdK3YVgVWdVb3rKnWPtbTrGusr9kQbRg2WTbrbS7borYuthm2VbaX7FA7VzuB3Xq7zlGEUe6jhKNqRt20V7Fn2ufb19k/dNBxCHModGh0eDnafHTS6JWjz47+5ujimO241fHuGM0xIWMKxzSPee1k68R1qnK6NpY6NnDsvLFNY1852znznTc433KhuYx3WeTS6vLV1c1V7Frv2utm7pbiVu12k6HFiGQsZZxzJ7j7uc9zP+r+0cPVI89jv8dfnvaeWZ47PXvGWY3jj9s67rGXqRfHa7NXlzfdO8V7k3eXj4kPx6fG55GvmS/Pd5vvM6YNM5O5i/nSz9FP7HfI7z3LgzWHdcIf8w/yL/HvCNAMiAuoDHgQaBqYHlgX2B/kEjQr6EQwITg0eGXwTbYhm8uuZfeHuIXMCWkLVQmNCa0MfRRmGyYOax6Pjg8Zv2r8vXCLcGF4YwSIYEesirgfaRU5LfJIFDEqMqoq6mn0mOjZ0WdjaDFTYnbGvIv1i10eezfOOk4S1xqvFp8cXxv/PsE/oSyha8LoCXMmXEzUTxQkNiWRkuKTtiUNTAyYuGZid7JLcnHyjUlWk2ZMOj9Zf3L25GNT1KZwphxIIaQkpOxM+cKJ4NRwBlLZqdWp/VwWdy33Bc+Xt5rXy/fil/GfpXmllaX1pHulr0rvzfDJKM/oE7AElYJXmcGZGzPfZ0Vkbc8azE7I3pOjlJOSc1ioKcwStk01mjpjaqfITlQs6prmMW3NtH5xqHhbLpI7KbcpTwv+yLdLrCW/SB7me+dX5X+YHj/9wAyNGcIZ7TNtZy6Z+awgsOC3Wfgs7qzW2SazF8x+OIc5Z/NcZG7q3NZ5ZvOK5nXPD5q/YwFlQdaC3wsdC8sK3y5MWNhcZFg0v+jxL0G/1BWrFouLby7yXLRxMb5YsLhjydgl65Z8K+GVXCh1LC0v/bKUu/TCr2N+rfh1cFnaso7lrss3rCCuEK64sdJn5Y4yjbKCsserxq9qWE1fXbL67Zopa86XO5dvXEtZK1nbVRFW0bTOfN2KdV8qMyqvV/lV7ak2qF5S/X49b/2VDb4b6jcabizd+GmTYNOtzUGbG2osa8q3ELfkb3m6NX7r2d8Yv9Vu099Wuu3rduH2rh3RO9pq3WprdxrsXF6H1knqencl77q82393U719/eY9OntK94K9kr3P96Xsu7E/dH/rAcaB+oMWB6sP0Q6VNCANMxv6GzMau5oSmzoPhxxubfZsPnTE4cj2oyZHq45pH1t+nHK86PhgS0HLwAnRib6T6Scft05pvXtqwqlrbVFtHadDT587E3jm1Fnm2ZZzXueOnvc4f/gC40LjRdeLDe0u7Yd+d/n9UIdrR8Mlt0tNl90vN3eO6zx+xefKyav+V89cY1+7eD38eueNuBu3bibf7LrFu9VzO/v2qzv5dz7fnX+PcK/kvvr98gcGD2r+sPljT5dr17GH/g/bH8U8uvuY+/jFk9wnX7qLnlKflj8zflbb49RztDew9/Lzic+7X4hefO4r/lPjz+qX1i8P/uX7V3v/hP7uV+JXg6+XvtF7s/2t89vWgciBB+9y3n1+X/JB78OOj4yPZz8lfHr2efoX0peKrzZfm7+Ffrs3mDM4KOKIObJfAQxWNC0NgNfbAaAmAkCD5zPKRPn5T1YQ+ZlVhsB/wvIzoqy4AlAP/9+j+uDfzU0A9m6Fxy+or5YMQCQVgFh3gI4dO1yHzmqyc6W0EOE5YFPA19ScVPBvivzM+UPcP7dAquoMfm7/BXUcfGK8z2bYAAAAVmVYSWZNTQAqAAAACAABh2kABAAAAAEAAAAaAAAAAAADkoYABwAAABIAAABEoAIABAAAAAEAAAFzoAMABAAAAAEAAABfAAAAAEFTQ0lJAAAAU2NyZWVuc2hvdCEM5y4AAAHVaVRYdFhNTDpjb20uYWRvYmUueG1wAAAAAAA8eDp4bXBtZXRhIHhtbG5zOng9ImFkb2JlOm5zOm1ldGEvIiB4OnhtcHRrPSJYTVAgQ29yZSA2LjAuMCI+CiAgIDxyZGY6UkRGIHhtbG5zOnJkZj0iaHR0cDovL3d3dy53My5vcmcvMTk5OS8wMi8yMi1yZGYtc3ludGF4LW5zIyI+CiAgICAgIDxyZGY6RGVzY3JpcHRpb24gcmRmOmFib3V0PSIiCiAgICAgICAgICAgIHhtbG5zOmV4aWY9Imh0dHA6Ly9ucy5hZG9iZS5jb20vZXhpZi8xLjAvIj4KICAgICAgICAgPGV4aWY6UGl4ZWxZRGltZW5zaW9uPjk1PC9leGlmOlBpeGVsWURpbWVuc2lvbj4KICAgICAgICAgPGV4aWY6UGl4ZWxYRGltZW5zaW9uPjM3MTwvZXhpZjpQaXhlbFhEaW1lbnNpb24+CiAgICAgICAgIDxleGlmOlVzZXJDb21tZW50PlNjcmVlbnNob3Q8L2V4aWY6VXNlckNvbW1lbnQ+CiAgICAgIDwvcmRmOkRlc2NyaXB0aW9uPgogICA8L3JkZjpSREY+CjwveDp4bXBtZXRhPgpWAsm2AAAULUlEQVR4Ae2dB6wVRRfH5yFYePoABSVWVFAUu1gAxYItKlGx95anYokNRQGjxoJYIvYSQKIGo2hELLHEFkDFBrEhWFCxF7ArPnU9/803++3s23t3392dvbv7/pO8t212ym/OPTs7e+ZMgyNBMZAACZBAOyAwceJENXz4cNXS0uLWdujQoWrSpEmqe/fuha99A5V54duQFSABEmgDgVmzZqnDDz9cLVq0yL2rW7duavTo0aq5uVk1NTW1IaV8Re2Qr+KwNCRAAiRgl8CgQYPUvHnz1MiRI1VjY6NasmSJGjFihBo7dqzdjC2nzp65ZcBMngRIIL8EFi9erDD0MnXqVDV+/Hg1cODA/BY2omRU5hGAeJkESIAEikCAwyxFaCWWkQRIgAQiCFCZRwDiZRIgARIoAgEq8yK0EstIAiRAAhEEqMwjAPEyCZAACRSBAJV5EVqJZSQBEiCBCAJU5hGAeJkESIAEikCAyrwIrcQykgAJkEAEASrzCEC8TAIkQAJFIEBlXoRWYhlJgARIIIIAlXkEIF4mARIggSIQoDIvQiuxjCRAAiQQQYDKPAIQL5MACZBAEQhQmRehlVhGEiABEoggQGUeAYiXSYAESKAIBKjMi9BKLCMJkAAJRBCgMo8AxMskQAIkUAQCVOZFaCWWkQRIgAQiCFCZRwDiZRIgARIoAgEq8yK0EstIAiRAAhEEqMwjAPEyCZAACRSBAJV5EVqJZSQBEiCBCAJU5hGAeJkESIAEikCgYxEKyTKSQHslMGfOHDVlyhT1wQcfuH8fffSRamlpUSussIJabbXVVJ8+fdTkyZNVz5492ysi1vt/BBocCVnT+Pbbb9Wzzz6rFixYoLCPv19//VU1NTWpVVZZRa288sqqR48easstt1T9+/dXnTt3zrqIzM8yAcpAdcALFy5UY8aMUffdd5+q9hPt1KmT+umnn1zlXj1FXm0rgcLJKJR5FuGXX35xrrrqKkcUtNPQ0IAHSKy/jh07OltttZXz4osvZlFM5mGRAGUgHtznn3/eWW655Yzfx+abb+40Nzc766+/vnF+2223jZcoY8UiUGQZxVPfavjjjz9cJd69e3dDCOMqcx1vwoQJVsvJxO0RoAzEZzt//nynW7du3m8FHZ9HH33US0DeYI3rZ599tneNO7UTKIOMWh0zX7RokRo2bJh6/fXXK77hdOnSRUnPW4nQqtmzZ6vffvstNO6AAQNCz/NkvglQBuK3D4ZL9tlnH7VkyRLvJlHWat999/WOGxsb1VlnnaWkc+Oe22WXXbxr3KmNQGlktPZnWfU7MSwi495eD0MwG/vLLrusc8EFFzjoaejw559/OjJGbsTDfaLwnX///VdH47YgBCgDbWuocePGGbK/xhprOEuXLm1bIozdJgJlklErwyxz5851VlxxRUMw/coc11566aVQ6PPmzXM6dOhg3Lv77ruHxuXJ/BKgDLStbf7++29nnXXWMeQenR0GewTKJqOp25l//fXXaujQoa51SthLz/LLL69kDFBVGjbp27ev2mijjYxbt99+e+OYB/kmQBloe/vgN/Hpp58aNx5wwAHGMQ/SI1BGGU1VmcszVB188MEKY1CVwjXXXKN23nnnSpfd87179zauU5kbOHJ9QBmorXluu+0248auXbuqrbfe2jjHg3QIlFVGU/0ACpvYmTNnViS+zTbbqFNPPbXidX0B8WDjqcN2222nd7nNOQHKQNsb6Pvvv1fPPfeccePgwYPVMsssY5zjQToESiujaY1I/f77785aa61ljPkJeu8Y4+BvvvlmWtkxnRwSoAzU1ijnnXee9zvRvxl8DC1jEEsdZ7/99nPuueeeulSvzDKaWs/8pptuqjq8svfee7szOtN5tjKVPBKgDMRrFbHacn8rn3zyibr//vvVpEmTWt04cuRIde+99xrnMTsaY+tiQGCcT+tAJswYb9YyQUltsMEGaSXvpoPvaXh7Rz3EUkedeOKJqaYflVipZTSNxyPMBoMz0wSq0dt4+umn08iKaeSUAGUgfsNcdtllxm8j+FupdIxZoTZNFd966y2jXDJmH79SMWOOGjXKywMTom655ZaYdyaPVnYZTeUD6IwZMxQcAFUKsE4R88JKl3m+BAQoA/Eb8bvvvosf2RcTvopkfobvTPF25UGm9thjD7fgop7Vaaedpq6//vpMKlJ2GU1Fmd91111VG+O4446rep0Xi0+AMhC/Da+77jrPwVyY5ReMBGAAEPx76qmn4meS05jy7cz1AtmrVy+vhOecc44aO3asd2xrp+wymnjMHE/X6dOnV+WPKcoM5SVAGWhb24rzONcrKO565ZVXWt0MSxZ4DS1rwNj/Qw89pAYNGqTw/QBBhl/cMfRLLrnEPU77X3uQ0cQ9c5mxqRYvXlyR/dprr6369etX8TovFJ8AZaD2NpSZ0K1uFk+Irc6V7QT8MQVt6y+99FIls16tVLU9yGhiZV7NrhytAisWhnIToAzU3r5BZb7qqquqddddt/YEC3Qnhl9POeUUo8Rikuk6EjNOpnDQHmQ08TDLrFmzqqLeaaedql7nxeIToAzU3oYvv/yycXOeeuVvvPGGGjJkiFG+tA/++uuvVknecMMN7pDLrbfe6npTbRWhhhN5llHxy+OaqsI0FGana665Zk0fuhMrcyxnVS1sscUW1S7zWgkIUAZqa0T4Yvnyyy+Nm/OkzFGw4MxUo7AWD26//Xa31y6LcqSSS95kFLN+r732WjV16lT12WefKSh0HfBNZdq0aa47ZH0uzjaxMofDmkoB6xRijcIsA570zzzzjBIH/2rgwIFZZt1u88qbDBSlIYJDLCg3XVf8v/Xw0TKtkCcZvfvuu12TTCyViQDljfUcdH2h2GuZrGVVmW+yySaZ+ZcACMymGz16tPr444/dsfrHH388LVlgOlUIVPuhZCkDVYqYy0tBZY4fNPwS5SVAyWA9XtvB74dJ5wVnfLUoNH1/cJsXGcXM1xNOOEH9888/bhGvvvpqdfrpp6sffvhB4a3sq6++UrIqW02d4ETK/Oeff1ay3FKQm3eM6cBZBFkzUZ1//vnGikZwtctgn0BeZMB+TdPPIajM8RaLN8q8BAxxVFslLI1ywuZ+xIgRRlKYYPjII4+ktkh1XmQUQ2qHHnqop8jhykD88rh1xzj5xRdf7Lo5qHVoKZEyr2aSiBLafqq/9957rhIP64EXfaacId05Pqi3DOQYTdWiYXlEmT5vxMnbeLlROAsHL7zwgoIPGn/AnBTYoIvrAv/pRPt5kVF82NWdX7yFaUWuK3fyyScr/NUaEpkmwowKhaoUbClzvDKh0ptttpkKU+QoD92HVmqVdM/XSwbSrUX2qb322mvGRy+UoD2Nl3/xxRdGLxX1x2IcDz/8cKqKHOnmQUZhqXLHHXegOG7Ag3vDDTfUh6lsE/XMO3furGSdQvX555+HFibu0xUL2fpfOVHJ9dZbLzRNfDTAWBrgIEChDx8+3B1zGjNmjHcPpg0z2CdQDxnQtYKPE0w8efXVV90ez4477ujOJPS/leEV+84771RQnugE9JJp5FhAxb9Isk4vy61f3nW+7UWZw0jhoIMOMtYsOOyww5S4xXU/BmoeaW3rKaOoA3TVmWeeqaDndMAYOUwvdUAZjznmGJVIb8mHw0Rh11139bygScGMfRnYj5W2rEBu3BflSW3//fd3F3mW1xYHayciwE+yP/+jjz46Vt6MlJxAPWRAXsVdGfC3OfYvv/xyr0JTpkxx5O3QkAsd/8Ybb/Ti1WNHhhOMctn2iBinjll4TUQ5pPNl1F2UmPc7jlPOWuLUQ0ZlGMnBotzyIdmor5ZB/1ZGEhz4Wk8SEi/oLMMdFQsKJ/RRQXw6OxBkf8WkF1X1Nvni63zzzTdGHOmBGWlQmRt4rB5kLQNin2u0tV92tNtWcdzkyBBgxXjyodGBS9R6BOQbfMhIr7weRTHyzEKZT5482WiT5ubmTNohaxkFWHRKsUg3/jp16mTUW5/X2912281oi1oOEitz9H78Pyb/vkxLduSVqmK5cE3cYRr3ixVK1XsqJZZUmYt5lNPU1OTI6473J05/KmUXeV5Mjrx0dJpibhV6n3wUcWRcz4gvM8Ec8agXGv/YY4814iL9uG9B/gTTqnOWMiA2up68yKu6I2Ovjph6eecgfzLhxD1Gj+jCCy90ZIKGu8pVUIHK8KAfR6v9tPgEExY/IUZ5UeYzzjgjGC3zY9T3iiuu8P4mTpyYehk23nhjr+6Q2aweqFnKaBg0mTzp1VssV8KiJD6XWJmjMWRyjldQvzLHPoQjLGB45Igjjmh1H9KqJSRV5jILq1VZjj/++FqK4t6DegdZyMLUoenJ1/ZWcXHvnDlzQuOLeVOr+CeddFJo3Gon06pzljIg4+SOOGlyX9W1IhB/2AYPGTN30Cl47LHHjOrLBzYjnswKNK4HD9LiE0xXVhYyyoG2llWFgtFKeYwHGZaXFHPETOuXpYwGKyZj5g6GUbQ+GDZsWDBKKseJPoBK4VxrFnmdUP379/fsJ3FeBzijR9hrr70U7Cdha4kpwqLsVNgUW1F4+tZMt2FLcQWnWmdaoAwyS6vOsGjKSgYwoQK2z34rqgULFhi08IENi/YGXS8HP8ivvvrqxn3Bg7T4BNMN+/jZXswS+/bt605fDzKxfZyljAbrgg/0epIQrllr61QeCZKIzLz0njxS3pr3ZRZnTUVK2jMXv8qtyiyz8WoqC24qQs887TrXSwakI2G0XaU3Kv8rPsYqo0LafHR+/nLgt4LhH4ZsCNRDRoPLBEpn1kplU7PfEysChZVQKpkU4okUJ9SrZ45JHMEgP/jgqVIdp13nesiAWACouXPneu3S2NiorrzySu9Y78As7P3339eHsRYXT5sPMherKwXf2v6Qpyn8/nKVcb8eMup/E4PpIUYxbITEwyz+QmFtv3feeUcB2BNPPKHw+osfW7UA38147YBAY4vFLOoRwtZlTOLxEcMBwRB2LhgnznFYOli9pa0h7Toj/6xlAK+wfo9zsCHv2bNnKxRwgSrjpt75ODbdNvhgZSHplnnlwE6cshg38CARgSxlFG3tX00Kw0wrrbRSovJXujlVZY5M4CkR4+H4Q0WwxiF6RJiwgTHILl26qK5du7pbKCXs5yHAOVcwiJlb8FTsY/kgqfAXJ8AfR/AHXu2+m2++WeEvaUi7zro8WcpA0E+1fFzSxTC2QVeucTxq2uDj76XpAmL5NIZsCWQlo9B9eBvTwdp4uWSQujLXhcYWHx3Q065Xb9tflqh9MV0youywww7eKuLGhRIdZFFn2zLgV+bIC+0WFuAWWQex+Y3lndAGn6AyRy9NTFZ10bitAwGbMhpsb5vKPLUx8zq0QWpZLly40HXuoxPEU1vMx5JNrdWJ5XRbhjrjbca/Ug/cQIR5HYSjpbfffttrCbxxoY2rBRt8sHhx8McNKy+/+4FqZeK14hHwyydKT2VusQ1//PFH14RNezNDVuPHj6/Jn7DFYqaadFnq/O677yrURYcBAwboXWM7e/ZsYxirUu9d32SLz4wZM7zV6HVeMkta73JbQgL+hzfccsOXlK1Qmp45bIv9wf9RzH8+uA8HONq6AK9bcH4Td6w7mFZRjstSZ/8QC9hXUub+Xjni+ZW5TCxyFzPBeR1s8QkO22C4hwuea+rl22Ks3G9BBYMKtLmtUBplPn/+fIMR1tWLE2D9AHe5MpXfdYgPD4xlD2Wpc1xlLn58jCbVrkfhpU+ctqnBgwcbHvxs8BEfROqBBx4wynHuueeGDgsZkXhQWAJByyWbQywuJBl3LHSQV2JHPm458vpiTByRXrYzbtw417+JnvZdqaJPPvmkI0/QSpdLeb4MdZaVrLw2h18dmWUX2lbwzyLC7v3BRw4csUFGcB5eOJcuXWrcmyYf+CCCIy1/GXr16uWIHbuRJw/KRUBcchttbttlA8YSCxc+/PBD1zGVfMQyYPl/LP59OFzCLLtDDjmkcHVlgcMJwHOmv41lqbHwiHIWPlr8cf37snSX09LSUvHeWi/AhwzyhZtmMT1slX/Qb0yt+fC+/BIYMmSI0e4y78ZqYa2aJsqPxkrAeLh4eIudNuLDogEO4RnKQQAfP/2h0ng54sBHC9ZbFC+A3i3SM3Yntx155JHeuTR3pk+f7uYZTBPzLFCOoN+YYDweF5sAdA4+vOvQo0cP1bt3b31oZVtIZY4xT3nEWQHCRItBQHo9bZKBCRMmuOvFyludwuK5/fr1s7q0oN/FAIjC/BAfXlEOzHpmKDeBmTNnKqyKpgOslmBgYTMUUpnbBMK0y0sAyw3iL4tw1FFHuV5C4YsD5mibbrop7cmzAJ+TPODOxB8OPPBA/6GV/QYM4lhJmYmSAAmQQDskgB55nz59XBcmqD7clsCdtk2zRORTGtNEVIaBBEiABOpJAH3jUaNGeYocZZGP4NYVOfJhzxwUGEiABEggAYFp06YpWRnMXXgH4+U6YHjlwQcf1IdWt1TmVvEycRIggfZAAKuoyYLYXlXFHNr94H7RRRcpTOPPIvADaBaUmQcJkECpCci6pu5sXpnI5lpK7bnnnu42y0qzZ54lbeZFAiRAApYI8AOoJbBMlgRIgASyJEBlniVt5kUCJEAClghQmVsCy2RJgARIIEsCVOZZ0mZeJEACJGCJAJW5JbBMlgRIgASyJEBlniVt5kUCJEAClghQmVsCy2RJgARIIEsCVOZZ0mZeJEACJGCJAJW5JbBMlgRIgASyJEBlniVt5kUCJEAClghQmVsCy2RJgARIIEsCVOZZ0mZeJEACJGCJAJW5JbBMlgRIgASyJEBlniVt5kUCJEAClghQmVsCy2RJgARIIEsCVOZZ0mZeJEACJGCJAJW5JbBMlgRIgASyJPAfOxihIbEFuDkAAAAASUVORK5CYII=;" vertex="1" parent="1">
          <mxGeometry x="323.32000000000005" y="325" width="136.68" height="35" as="geometry" />
        </mxCell>
        <mxCell id="5wV4bRW26JI0M855Ar_4-26" value="" style="shape=image;verticalLabelPosition=bottom;labelBackgroundColor=default;verticalAlign=top;aspect=fixed;imageAspect=0;image=data:image/png,iVBORw0KGgoAAAANSUhEUgAAAgYAAABuCAYAAABcB9u+AAAMQmlDQ1BJQ0MgUHJvZmlsZQAASImVVwdYU8kWnluSkEBoAQSkhN4EESkBpITQAkgvgqiEJEAoMQaCih1ZVHAtqIiADV0VUeyAWFDEzqLY+2JBQVkXC3blTQrouq98b75v7vz3nzP/OXPuzL13AFA7wRGJslF1AHKEeeLoID/6hMQkOqkHEIA2IAMboM3h5oqYkZFhAJah9u/l3Q2ASNur9lKtf/b/16LB4+dyAUAiIU7l5XJzID4IAF7NFYnzACBKebPpeSIphhVoiWGAEC+W4nQ5rpbiVDneK7OJjWZB3AaAkgqHI04HQPUy5On53HSoodoPsaOQJxACoEaH2DsnZyoP4hSIraGNCGKpPiP1B530v2mmDmtyOOnDWD4XWVHyF+SKsjkz/890/O+Sky0Z8mEJq0qGODhaOmeYt1tZU0OlWAXiPmFqeATEmhB/EPBk9hCjlAxJcJzcHjXg5rJgzoAOxI48jn8oxAYQBwqzw8MUfGqaIJANMVwh6AxBHjsWYl2IF/NzA2IUNpvEU6MVvtCGNDGLqeDPccQyv1JfDyRZcUyF/usMPluhj6kWZMQmQEyB2DxfEB8OsSrEDrlZMaEKm3EFGazwIRuxJFoavznE0XxhkJ9cH8tPEwdGK+xLcnKH5ottyhCwwxV4f15GbLA8P1gblyOLH84Fu8wXMuOGdPi5E8KG5sLj+wfI54718IVxMQqdD6I8v2j5WJwiyo5U2OOm/OwgKW8KsXNufoxiLB6fBxekXB9PE+VFxsrjxAsyOSGR8njwFSAMsIA/oAMJrKlgKsgEgo6+xj54J+8JBBwgBumAD+wVzNCIBFmPEF5jQAH4EyI+yB0e5yfr5YN8yH8dZuVXe5Am682XjcgCTyHOAaEgG95LZKOEw97iwRPICP7hnQMrF8abDau0/9/zQ+x3hgmZMAUjGfJIVxuyJAYQ/YnBxECiDa6Pe+OeeBi8+sLqhDNw96F5fLcnPCV0Eh4RrhO6CLenCArFP0U5HnRB/UBFLlJ/zAVuCTVdcD/cC6pDZVwH1wf2uDP0w8R9oGcXyLIUcUuzQv9J+28z+OFpKOzIjmSUPILsS7b+eaSqrarLsIo01z/mRx5r6nC+WcM9P/tn/ZB9HmxDf7bEFmMHsLPYSew8dhRrBHSsBWvC2rFjUjy8up7IVteQt2hZPFlQR/APf0NPVprJXMc6x17HL/K+PP4M6TsasKaKZooF6Rl5dCb8IvDpbCHXYRTdydHJGQDp90X++noTJftuIDrt37mFfwDg1TI4OHjkOxfSAsA+N7j9D3/nrBnw06EMwLnDXIk4X87h0gsBviXU4E7TA0bADFjD+TgBV+AJfEEACAERIBYkgskw+gy4zsVgOpgNFoBiUApWgDWgEmwEW8AOsBvsB43gKDgJzoCL4DK4Du7C1dMNXoB+8A58RhCEhFARGqKHGCMWiB3ihDAQbyQACUOikUQkBUlHhIgEmY0sREqRMqQS2YzUIvuQw8hJ5DzSidxGHiK9yGvkE4qhKqgWaohaoqNRBspEQ9FYdBKajk5DC9AidBlagdagu9AG9CR6Eb2OdqEv0AEMYMqYDmaC2WMMjIVFYElYGibG5mIlWDlWg9VjzfA5X8W6sD7sI07EaTgdt4crOBiPw7n4NHwuvhSvxHfgDXgbfhV/iPfj3whUggHBjuBBYBMmENIJ0wnFhHLCNsIhwmm4l7oJ74hEog7RiugG92IiMZM4i7iUuJ64h3iC2El8TBwgkUh6JDuSFymCxCHlkYpJ60i7SC2kK6Ru0gclZSVjJSelQKUkJaFSoVK50k6l40pXlJ4pfSarky3IHuQIMo88k7ycvJXcTL5E7iZ/pmhQrChelFhKJmUBpYJSTzlNuUd5o6ysbKrsrhylLFCer1yhvFf5nPJD5Y8qmiq2KiyVZBWJyjKV7SonVG6rvKFSqZZUX2oSNY+6jFpLPUV9QP2gSlN1UGWr8lTnqVapNqheUX2pRlazUGOqTVYrUCtXO6B2Sa1Pnaxuqc5S56jPVa9SP6x+U31Ag6YxRiNCI0djqcZOjfMaPZokTUvNAE2eZpHmFs1Tmo9pGM2MxqJxaQtpW2mnad1aRC0rLbZWplap1m6tDq1+bU1tZ+147RnaVdrHtLt0MB1LHbZOts5ynf06N3Q+jTAcwRzBH7FkRP2IKyPe647U9dXl65bo7tG9rvtJj64XoJelt1KvUe++Pq5vqx+lP11/g/5p/b6RWiM9R3JHlozcP/KOAWpgaxBtMMtgi0G7wYChkWGQochwneEpwz4jHSNfo0yj1UbHjXqNacbexgLj1cYtxs/p2nQmPZteQW+j95sYmASbSEw2m3SYfDa1Mo0zLTTdY3rfjGLGMEszW23WatZvbmw+3ny2eZ35HQuyBcMiw2KtxVmL95ZWlgmWiywbLXusdK3YVgVWdVb3rKnWPtbTrGusr9kQbRg2WTbrbS7borYuthm2VbaX7FA7VzuB3Xq7zlGEUe6jhKNqRt20V7Fn2ufb19k/dNBxCHModGh0eDnafHTS6JWjz47+5ujimO241fHuGM0xIWMKxzSPee1k68R1qnK6NpY6NnDsvLFNY1852znznTc433KhuYx3WeTS6vLV1c1V7Frv2utm7pbiVu12k6HFiGQsZZxzJ7j7uc9zP+r+0cPVI89jv8dfnvaeWZ47PXvGWY3jj9s67rGXqRfHa7NXlzfdO8V7k3eXj4kPx6fG55GvmS/Pd5vvM6YNM5O5i/nSz9FP7HfI7z3LgzWHdcIf8w/yL/HvCNAMiAuoDHgQaBqYHlgX2B/kEjQr6EQwITg0eGXwTbYhm8uuZfeHuIXMCWkLVQmNCa0MfRRmGyYOax6Pjg8Zv2r8vXCLcGF4YwSIYEesirgfaRU5LfJIFDEqMqoq6mn0mOjZ0WdjaDFTYnbGvIv1i10eezfOOk4S1xqvFp8cXxv/PsE/oSyha8LoCXMmXEzUTxQkNiWRkuKTtiUNTAyYuGZid7JLcnHyjUlWk2ZMOj9Zf3L25GNT1KZwphxIIaQkpOxM+cKJ4NRwBlLZqdWp/VwWdy33Bc+Xt5rXy/fil/GfpXmllaX1pHulr0rvzfDJKM/oE7AElYJXmcGZGzPfZ0Vkbc8azE7I3pOjlJOSc1ioKcwStk01mjpjaqfITlQs6prmMW3NtH5xqHhbLpI7KbcpTwv+yLdLrCW/SB7me+dX5X+YHj/9wAyNGcIZ7TNtZy6Z+awgsOC3Wfgs7qzW2SazF8x+OIc5Z/NcZG7q3NZ5ZvOK5nXPD5q/YwFlQdaC3wsdC8sK3y5MWNhcZFg0v+jxL0G/1BWrFouLby7yXLRxMb5YsLhjydgl65Z8K+GVXCh1LC0v/bKUu/TCr2N+rfh1cFnaso7lrss3rCCuEK64sdJn5Y4yjbKCsserxq9qWE1fXbL67Zopa86XO5dvXEtZK1nbVRFW0bTOfN2KdV8qMyqvV/lV7ak2qF5S/X49b/2VDb4b6jcabizd+GmTYNOtzUGbG2osa8q3ELfkb3m6NX7r2d8Yv9Vu099Wuu3rduH2rh3RO9pq3WprdxrsXF6H1knqencl77q82393U719/eY9OntK94K9kr3P96Xsu7E/dH/rAcaB+oMWB6sP0Q6VNCANMxv6GzMau5oSmzoPhxxubfZsPnTE4cj2oyZHq45pH1t+nHK86PhgS0HLwAnRib6T6Scft05pvXtqwqlrbVFtHadDT587E3jm1Fnm2ZZzXueOnvc4f/gC40LjRdeLDe0u7Yd+d/n9UIdrR8Mlt0tNl90vN3eO6zx+xefKyav+V89cY1+7eD38eueNuBu3bibf7LrFu9VzO/v2qzv5dz7fnX+PcK/kvvr98gcGD2r+sPljT5dr17GH/g/bH8U8uvuY+/jFk9wnX7qLnlKflj8zflbb49RztDew9/Lzic+7X4hefO4r/lPjz+qX1i8P/uX7V3v/hP7uV+JXg6+XvtF7s/2t89vWgciBB+9y3n1+X/JB78OOj4yPZz8lfHr2efoX0peKrzZfm7+Ffrs3mDM4KOKIObJfAQxWNC0NgNfbAaAmAkCD5zPKRPn5T1YQ+ZlVhsB/wvIzoqy4AlAP/9+j+uDfzU0A9m6Fxy+or5YMQCQVgFh3gI4dO1yHzmqyc6W0EOE5YFPA19ScVPBvivzM+UPcP7dAquoMfm7/BXUcfGK8z2bYAAAAVmVYSWZNTQAqAAAACAABh2kABAAAAAEAAAAaAAAAAAADkoYABwAAABIAAABEoAIABAAAAAEAAAIGoAMABAAAAAEAAABuAAAAAEFTQ0lJAAAAU2NyZWVuc2hvdK6aYwoAAAHWaVRYdFhNTDpjb20uYWRvYmUueG1wAAAAAAA8eDp4bXBtZXRhIHhtbG5zOng9ImFkb2JlOm5zOm1ldGEvIiB4OnhtcHRrPSJYTVAgQ29yZSA2LjAuMCI+CiAgIDxyZGY6UkRGIHhtbG5zOnJkZj0iaHR0cDovL3d3dy53My5vcmcvMTk5OS8wMi8yMi1yZGYtc3ludGF4LW5zIyI+CiAgICAgIDxyZGY6RGVzY3JpcHRpb24gcmRmOmFib3V0PSIiCiAgICAgICAgICAgIHhtbG5zOmV4aWY9Imh0dHA6Ly9ucy5hZG9iZS5jb20vZXhpZi8xLjAvIj4KICAgICAgICAgPGV4aWY6UGl4ZWxZRGltZW5zaW9uPjExMDwvZXhpZjpQaXhlbFlEaW1lbnNpb24+CiAgICAgICAgIDxleGlmOlBpeGVsWERpbWVuc2lvbj41MTg8L2V4aWY6UGl4ZWxYRGltZW5zaW9uPgogICAgICAgICA8ZXhpZjpVc2VyQ29tbWVudD5TY3JlZW5zaG90PC9leGlmOlVzZXJDb21tZW50PgogICAgICA8L3JkZjpEZXNjcmlwdGlvbj4KICAgPC9yZGY6UkRGPgo8L3g6eG1wbWV0YT4KHvjM9AAAJkNJREFUeAHtnQfYHUXVxweNil3sLYrGhlGj2BU1KgoWUMEaRLFg1wAq2MAGYleICvYascRHRFFRQcHYSzQqiI3Ye+9Y9ju//Zxldu7O3t373i037/88z/ve3dkpZ/+7O3PmzDlndsiMnEgICAEhIASEgBCYOwIMsevXr3cbNmwo6t64caNbt25dcT62gx0kGIztkYgfISAEhIAQWHQETjzxRLdlyxZ32mmnuc2bNxe3s++++7pNmzYV52M8kGAwxqcinoSAEBACQmChEVizZo3bunVrcQ8rVqxwhx56qDv88MPdjjvuWKSP8WDFGJkST0JACAgBISAEFhmBlStXup122smtWrXKrV692u2xxx757yLckzQGi/CUxKMQEAJCQAgIgZ4QOF9P7agZISAEhIAQEAJCYAEQkGCwAA9JLAoBISAEhIAQ6AsBCQZ9Ia12hIAQEAJCQAgsAAISDBbgIYlFISAEhIAQEAJ9ISDBoC+k1Y4QEAJCQAgIgQVAQILBAjwksSgEhIAQEAJCoC8EJBj0hbTaEQJCQAgIASGwAAhIMFiAhyQWhYAQEAJCQAj0hYAEg76QVjtCQAgIASEgBBYAAQkGC/CQxKIQEAJCQAgIgb4QkGDQF9JqRwgIASEgBITAAiAgwWABHpJYFAJCQAgIASHQFwISDPpCWu0IASEgBISAEFgABCQYLMBDEotCQAgIASEgBPpCQIJBX0irHSEgBISAEBACC4CABIMFeEhiUQgIASEgBIRAXwhIMOgLabUjBISAEBACQmABEJBgsAAPSSwKASEgBISAEOgLAQkGfSGtdoSAEBACQkAILAACEgwW4CGJRSEgBISAEBACfSEgwaAvpNWOEBACQkAICIEFQECCwQI8JLEoBISAEBACQqAvBCQY9IW02hECQkAICAEhsAAISDBYgIckFoWAEBACQkAI9IWABIO+kFY7QkAIzB2B//73v+7kk09269atc3vttdfc629S4T777OMe+MAHupNOOsn95z//aVJEeYTAqBHYITMaNYdiTggIASEQIYBAsHHjRvec5zzH/eAHP8ivXvCCF3Q/+9nP3GUuc5kod3enf/zjH90Vr3hF949//CNvZOedd3bPfvaz3UMe8hB3vvNp3tUd8qq5SwT05naJruoWAssUgS1btrinPvWp7t73vrdbvXq123HHHd35z39+d7GLXcytWrXK7bnnnu4Xv/jFTOh873vfc7e//e3zwReh4FKXulQuIPz4xz/uVSiA+Ute8pLuRz/6kTvyyCPdpS99abdt2zb3sIc9zN32trd1Z5999kz3p0JCYGgEFkZj8PSnP90dc8wx7u9//7u78IUv7A477LBcMh8awCHbX3RM3va2tzk6+Sq67nWv6/bbb7+qS8m0r3zlK+473/lO8np8YYcddnDMMhm0+KNjZxC7wAUuEGfVeUMEzjnnHPesZz3LnXDCCa5OGQnGzLb5ltvQRz/60VxtT1no/ve/v9uwYYO7/OUv36aaTvL+9re/dQcddJB7xzvekdd/8YtfPNdq9LXEgZD01a9+1SEg8feTn/zE/eUvf8mFF95tNCn8Xv3qV3e77babu9zlLtcJDsut0l/96lfu1FNPzfsejvkD90tc4hIF5mB9k5vcxN3sZjdzF7nIRcYPEUsJi0B3u9vdWPIo/u5zn/ssAtud8rjImJx55pnZihUriucZPluO73rXu7bGjjJxPW3P7aPN7njHO2ZHHXVU9uc//7k1D8u5wCc/+cnsQhe6UOkZrFmzJjvwwAMz0xKU0m9xi1u0hup973tf8c6YUJe97GUva11HHwVe85rXZLaMkN+vaUmyd73rXZ01yzv6pje9Kbvd7W5XwrfJe2/Cd/bIRz4y++Y3v9kZf9trxeD+whe+MLPBPuNdbII3eejzdt111+z0008fNTRI9QtBizwIdgXwImNis6jaj8lUsa1hu+Utb1lbZ9OP1+e78pWvnL397W9vzcdyLGBq82ynnXYq8Kez/OAHP1hAYTOo0vWDDz64uNbk4IwzzshMy1DU/+pXv7pJscHyvPnNby54ZTCwGeVceTEbi+zYY4/NbGmmaMe/t21/TzzxxLnytj1XZhrrXCC47GUvuyTc3/CGN4waJgkGo3489cwtqmBw2mmnTf2okMTbklmEZy996Uun1o1WwNaGi1ndtI6UGdkQ9K9//Ss766yzir8f/vCHQ7Axtc0//OEP2bWuda0S7occcshEuec+97nZypUr8z+z4J+4nkowW4TMVLFF/Y9//ONTWUeVbjYWBc+mws9++tOfzoU/M7DM9thjj6Lu1PtrhpDZ3nvvnd3oRjcqNC1VealPNB0BsyXJbCmgFnf6FTSOd7rTnbKLXvSiybzf+ta3pjc4YA4JBgOCv9SmF1EwYKaDKq2qgwrTUHPOQrb2XFu3WZAX1f7zn//MzCYhO+KIIzJb606WY1b2/e9/vyjX1wEdUYgJHc4Y6UUvelGJz6tc5SoZ2M6LzICxqP/a17529re//W1eVXdaDxjc4AY3KHi/+93vvuT2Pv/5z2dmK1DUGb4f/nj9+vUZ705InPPu+zz+96pXvWqYTccJBFD9h8Kpx8//mq1S9rSnPS1DM+bJPFUqBQmEB/rBMZO8EuzJivpDAMMsDKSmkXX+07JUXj/33HMr032iLTf4w9zw0AYaZzNZZ+rUIj0+wJDIVH9xss4NAfz2bU29hMX++++fY1tKnPHklFNOKT2bF7/4xa0NFmdsesnFMGw1O4iing9/+MPOlleK87YHJpzmsRowcqwis+9wtoThXvnKVzrTzJSycP7e9763lMZJ+D1MXFRCjsDXv/51d4973MP9+te/rkQET5tPfepT7uijj3amJSjy8DxsKXLCbdXsaxyGz2MmCQZjfjrbGW94lDzzmc9sdFd//etfG+WLM2GNXUepjtAMF93uu++eLErnIJpEgIHOljhKF8wwuHS+lBObhRXFr3Od67h73etexfkiHPBemSq/YBVPIpspFudNDxAGTOOQHJzMjsF94hOfcAcccECySjwRrnGNa5SuM0iJ0gjgUotXCZODKsKbiW/g1re+ddVld73rXc/tsssupWu3utWtSudjPJFgMMansp3y9IpXvCJ3o/K3d4UrXMEfTvzOqjEwC+uJusKElGBAHtyJUrR169bUpWWdftxxx5Xun5gCN73pTUtps5587GMfc1/72teK4o95zGNGP9MqmA0OHve4xxVntracR2osEhoeEFmxzhX30EMPzV0Qp1WHG3BIdd9DmG85HiPA3e9+9yv1WTEOL3nJS9zatWvj5NK52d+UziUYlODQyXJGAN9ec+8pQYC/eyo6HJHkiG7Xlj73uc8li9DWzW9+8+R1/I5TNG2JIlVue07/zW9+48yQtHSLBB4ikNE86Pjjjy+qIe5B3Wy4yDjCA+JxhL7rsTA1jWWWudAGpIjB3uxkUpdL6Wbz4G54wxvmf2gy5iXElRrZTk6IxbF58+bk3dCXhEJfKiP50Cj4v0UQxgbTGPzyl790/M3S+aceABIeIVEJ7NEFmZW4M8viXHU6izpwGk9dYDKtzb6uEybWfH+L5lBpPupRj6pVq7L00JbMOCtZ5PrXv74j6EyK6iLxocYWlRFgvf/f//53KZGIf/Og3/3ud+5DH/pQURWdqrlDFuezHsAvM+8vf/nLDsGmKfHtE4yLaIYctyHWoC3OQFEEuwkE5SaEQEoEyRSxVo39C+vZTYgZLtov/lgegzfRJAL0PeEyVpyDScZrX/va5MQmzM/y6Wc/+9nir8+Q3SEfbY57Ewws+Il70pOe5MyyOo8GRXxx/jDQQXJFFeZjnre5AfJ+5CMfydceiaJmFtG54Y35mTpz6cmjsKWMRpq0Y4F48mhmqIP4+MyK15kbUB7Vik7QXKccEfxm2TylS0yq7u0tb3mLu8Md7uBufOMb52rzujXLqvKzpoHh61//+lJxDP549nVGOG3tDMj/jW98o9ROeDJNUq9bLojXCcN6l9MxmpyPf/zjzgLjOHMNnbh1IpLyPYd/fPOpNdqJCv6XQITDcAC+853vnMraKJ1IiU9+8pNzwZAZNrM4oiWyp0HYTlzZd7/7XUfbzPgxVGXN2OJbxNmmnof801dgiNiELF5DMjoo5e9yl7s0WkJo0pbynIcA0TTr7JXoO+uWHs+raUGPbObbKeG+8djHPnbCTcbgmkgjEAiBT0xKnuCpyjXPZtgZERCr6grTLARoZmuVE3VOSyCIihmXTK2ftmzAzZr6A3eJSeqeuJcQE3/chz+tWfSW2saFi5gDEJHhPC/xr4XXzfM0/WeWwcm6qNuEk2RV27Ztq41gRjS7vmmM7orPf/7zazGOnyHnJlC3dl986EMfWmrn05/+9Mzw28QgIwJjFW+k2ZJWZd2mRs6IeRGXM+1FZf66xC996UulesxmoC57fg2XNpuElMrFvJinwdR6lKEdAuAeR+qMcTf7l3aVLljuFXbDnRFuacQyx82mCaHmw0ANNU3VbCSsgzpRLzbRMmA1zeyeeNbTZo20gRrzEY94RMlNKmy76tj8XJ11Pu7d7353rhWpykNal5ik2sRN6YlPfOLE5Qc96EEO9XqXBOZsixvSC17wgkIFx7NOaVvaGiDWLSPQft2zf/nLX55c1rja1a62sOvbIe7zOJ5F+8bMCu1QG4ptRVgbn4UsloCzSUWuNk+Vx90SdS8W5p4ssJSz4ECu6h2cxXiM7wztmI0PeRPT3lUygYEJrHn+qn/E3x+TlwZ9NkutfRIeMNi1zJNMCK0ds9AeoqnZrqkrQcYG1zzCmYE3IfGiGUCCNyOYidjq5Ce6VEyxxqCqXkKyXvOa10xGtGsaYIRoYXH9zGyJxvfoRz86M5VkBj9mrDaR70pXulIyAEvXmFTtH0EoVuuUJ/gkb5VmJsZ9KedoBcAsxPI2t7lNqco6jQyzrDZknWSprbBdghR5LUVcJ9K/ddrJsl3Guo95Cc/HqDEwtXtm6+OZqVkn8DJDrPwa18M/gk61IeLQh8+OgD6z0hOe8ISirrVr12a20VZmRoxFmm/HlkeKJsz2IEPL6K/Fv+95z3uKvG0OCPwU1kV/UEfgGeaPj5/ylKfUFe/9Wvytx/x2cW4xG+Z+n1XvR8g7Ab22d0KC7YTYnCMEk2MGKMLLmhRetElHY0FvMjPuKvK3FQz4iOm8UQFBdERVHxWd/zTVeZU62tzqMmK1x0SIWga6+D7NKCvOmp93jUksGNAJmrHdBH99CAXcsNk0TLQdbx7CgB3j5895Fm2I5+TLxr+pqIEbN26sDV3aROXbhsc2eccoGHj+bTY7gfW8BCjTqpXqthm6b7bVL/2AFzxtllf0OxYToLTvAu+KaQzyuulDwkkI+zPwHrPvA/0MfwhFsxDLjeF7SRTDFNEvTovHT7jsMdH2IBjw/AlfHT6n+Hg5bDrViWBAbHPWFUNAiRttxnbJ95jwkWacmK85237mE/nCjzWsl812WEOsIvN7LvFAOd8BVOXnpTCjpFIZZivm5VCVPU/jA6bTCXmiTDxL6gOTUDAwC+qsaqDsSygwQ8CMcKshLnvuuecEjub3XsoT5jcDrYn8qQRbUkrWQ52EK0VjgF2KGShm2FxM25HOvCaSWoYUH/NMH7NgwM6G4bPimGcwD3r/+99fqnvfffeduVoGz3322SczC/xSHcSyD/k31XB+PQzvbMtcGbzMi2zprtRmnSC1ZcuWUt6QV47RjI6NYsEn5rmL83lrDJg41vFpy4pjg70TfjqxMSAMJGt7IeGaZqq8MKl0jMX/Mccck3sRWCzp0rXUic3Wcwvp1J7uWEhjDR+uYde5MuIvbOrrUnP42uPpkCIijj3bXPEIQOKJKGWsD+IV4akvTGgPtzsiruH+GJIJBbkNBD7hXRO2IiHWrK8SMjQm8EtR1fpuKu+0NVtiKOBeZ8JfqooiHZuCV73qVXnEsyJRByUEcL8KCQv/OKpeeL3NcezKF4aZbVMPefEisO2aJ4rhJRDGYCAwFt8+37sn3gHbp8GfLvk3dg2M7zNs4Itf/GJ4OnFsg/BE2tAJuJe2+WbnwW+M6VLrrItbQN14IywHSvfKS7h7U7uXSjMoNAkEQSEMapoQnRChKFNCAXXsbG6FhPwMDZmIc5CiMB958JtuwjfRsR7+8IeXPorY4LIPTOD5T3/6U25sFRtl9ikUIJDYzAt2CnrAAx6Qu0kWCf876EswoLlpQgEGYrifmkV8KeZ5zPOs50Tuw/2tKeEaGJLNInPXuTCt7hjDTowqCWgzb4q/lXmG1rXdGkvsLkUwKFUUnMQGaz//+c9zQdA0gHkujHXNmyoosfTDMMgRtZlWMVnprIIB/U6dm13cIIITbuPzIAbpeQ/U8+CrTR2f+cxnarOPUSCrZXjGi50IBjG4eATEYSFn5Lcohi++rQUV56kD4g6ERAeQIgKYhEQbTayp6YBpJwxZGgsGfWDCQIKVchhGlvvpUyigPTQoYTAjBn9zc+PSBNUJBm3iGMQD1URDDRLe+ta3OrNvaZBztix09gzusxIDZjjLbVIP+ectGODlEwvY8xQMYm1jF4IBcQzwQgiFL69hQ5uAQDVviu8jvs+wPQIw1VFqgCJWwwc+8IG6oqVrZkiZh/0tJS7jk2mCO2PCUITXHkIffSsCGGNOk/FpFn7nLhigSsLdL6R5qRjDOpsex9JwPBsJ64lfCtRKuFs2oVAoIH84Y+8LEwI9xWS2Gb0tH9A2seDjnQgJcEOY3HPOOSdmr/a8qVqSzj0WhsKKcS0yb5I82h1q5fg5+7xghasSsyhRGoF4GYGcda6g6Zqqr8Sanfi8ulS7VJYuzViupE2kBrSMuBzXCaztWjovd3wf8fl5OV1pGS5M55ilLvisojbfGN8kApLoPATqop+inSbIVZ9EdE7cQHE5N5ujUqRR3lGWv9n5cd40d8Hg97///QSPs0QKm6hkxgQ2dWlCZsEx4buKWrFqq9Im9YWD2pCYIBj1YVPgMSGCZWjTQTqR8sxYymdp/BtiWFfIvC9qo9ehRTEDtvzP3NfcrrvuWhmSlo9w3bp1jbaFruMndY24G238vBk44rC9rOW3oVh93aZsKm8sGLBUOM8BhkE7pDaao7DctGO0Q7GmiY62q5C18X3E9+n55fup6jP89ToNEM+GZbyUhs7Xwb1j95QSMHy+5fZbJxgQSwNhqi8ioi5Lmz5qKIIA3xpjFYQGoatQ7XMPiVy1bta2M+sL+LAd1IizxOYP6wiPkeo9DYkJ+7PzgvVBbPTSNNRrE36aCgbTDA8xUvWEISnhmFOEqj9e9knlbZtOeFves6Z/BMMKCc1L07I+34EHHhhWMZfjWDBgFjWPfQw8c/E6dTyg+nxL/a3aQKjLvip+n+P79PeDxrVOmxBrQX05flmuQDiv03igfjYXcWnGQuDsGPusujHAoiFGJbo7xX4OuzUvFGA4DX9oDSxWTt4wYf+70mDMXWNQJQX7m+sOxqXXnPpIZ1HTsPbDvuue+sIEW4KVK1e6Y4891jed/2JEhdq0bqZRKjDDCR1Z3WYvM1Tpmg4I8awvbIvnStz+kKZZFiPcYBcjqkYg3lNinvYFtBgPzk3fg2pu06nmLjhxkbX9vfbaayJ9HgnxfcT36duI8/l0/1u3XTl50BIxs2VGWUV4S8XbL1fla5tm7si1e5W0rW9afmy7LA7J3CIfxkvgcftNbNriMrOcY7+DsbbXvBKF1/etjC3YcCE4EGm3K5q7YMDAxAMLJd7Qba2rG1lqvQwgfKihCxHbpSJZL5X6xITd077whS/kf55vZiqo0un06rYW9vln+UUrEa/zH3744W7//fevrQ4bjricLxDPsHx6/FunMWDQitV/aHOwI/j2t78dV5WfW2ClynQl/j8C8YAzT/sCWqDzC6mL/gPXaDZqiqlLwSC+j5QbNEuvcR8a8lmnMSDftm3bJtzFw/LY0nRB9J2xUWoX7YR1ouGLPUzC622O6f9DVX1cti/BgHfTay7gxwsFnh/spfjrkuYuGKCm4oUPXWbarKt2ebPT6kZVFAoG4T1MK1t3vU9MaAtLY9bRiafgCYM7VFObNm3ySXP7ZQAP/b+pmM4NrUmdOyn56gSVJoIBz6ju/QqXEWjP02677ZYUDOhsGPzq1LG+Hv3O1/AQPON109hbaKmYW6A1Z+GEK6upEzIrC7RIjO8jvk9fFd8wwisDfBVNi/OCzU0dhVtA1+VbbtfQtDB2xQKcx6FK8+uvhb8sHYfLbWhnmtpY4XHAds6emNh0od3x9ad+5y4Y0BBeCOGgypotN2zheVN8jCKdhxeqpbGwR3KbNrg1Yb5PTOhUMCxiGcQbqsAjFvm4YR1yyCFNWG6cx6LgTQzOaAua4FZnGBm6PKaYmdaRpwQDllZSxDMn4M2Qrkkp3saWTmc5b5Uma6fMir0hGIZ4/M3DjgFvIeKOeK0HHisYx3qiQ+9CKGR5wN8PbTH7TGkMuM7acUowqDNMpCyCT4oQKlavXp26vKR0gqr13cfXYTjLzSCspQQD7HaaEDZMBHjzhG1Rk3g49Hfr168vxbdgcscmX54QXtgqHI1Sp9RFPMV4y1S7gaxp6Er7KDP+YopDItt6epyl8twGKEw4iz9TU1bmI/GII44o8vkytl6fzN/mwhCYEP7Z34f/tVlwtpQtbON7NtVhZsswpXYsSFVmLoRx1spzwiR73uJfG9Qry4SJFogmWZ76UhvV2ABQW86k9rCZQY7HGBLZlghLuNkyQifYWMTBUjvzeGd5FyyIVVGvCQh5qOT4vTNhc+73FG+7XBUePGy0bqt6My4Ms5aO6TurQqH7e7TBu5RfJ2UE2CTPYxX/sknbNDJhbmI7gGmbwdnSZWYCTkbfHLcZn9uyaLHnxzRelnK9E7EDI7iYTDBw07ZsZT0fCfC+971vXLyXc2YS8Xo01qDTJPQmzA2BCZIrluwhMRvCsKWp9BuWrTpmuSA2LiU8dFO1m19Lq6p72vtCGdsZsaponmYb3iRnmcxy42cdVkQ8A9EkAmeffXYpcd6Gh75y28vAH+a/1nmWztue+OBfZ555Zl6Ud+N1r3tdvu14rNk65ZRTStWjRcSX3EdFLF1seBLP4gmiVEd110866aRkUa7Vfdu4zIrSCKQCR1ECo9u6d4BrhP4PA1cRRGuaRg3NNMuWjH2xBpX3NPyjP4/f1/TdLOHKUqSKurLmCjQh/dgNZgbuRDEzAss3OrHbyMvYmspEnj40BjTKxjmeD/9rqvmps2y2ajX1UWYvVr4t88QNWMIQmJj6MmMraH8v/tdesErNTBXfqTQkXTOOmajbIgimikykW0TMifKeR1OXZSaUTZTxCdM2PGGTpDqyDzbZNloP+9Drind+bYwaA3ZH9c+HX3ZG7YIscmipHd7XNoT27573vGdme2RkFtQsM0v8oj7rfLNQKxBvpsUugZ4oS7/FvZqRm09u/RtrxkxAmVoHfUmIdXhctcGY2UdltgSTLEN5E3qmtrucM6ARQ1MZYh0eH3XUUZXwoKmxGCgT5ZpoPcMKbfmyqKNOux2W6eK4k90VYfTkk08ubjAE1gxrMptlZKhsGIRNgs13VAzz2Hr8xL32JRgwkFZtVYwKx9zcMtR4bMNqgVAy26ApM6O7/EUK1UC2hjfB/5CYMIDDf4gxx+w4OCuxe6MZGE7USb3g0oTY8S7ELeaPc7CuonPPPbckTFaVZdvausG9avfNsB4LElPVdG9pYxQM4q3DLeJnZ3iw3bJ/HqaBysyPu3FbZmGel0W4tHX1oh7qQ4APybRepevkOeGEEzKEk7Vr1xbXnve854XFGh+bEW1pa286/ybE91H13cKfrTVnZkeUC85m7JaZUXFm3k8Frx638BchHkFHVI+AGR8ncWcbb4QDtrRHGOAbpY8ym5BK7M2eq76x4KrZGJTaZVfQoagzwYAbwg4gfDGbHu++++4TePQlGNDw8ccfX3pATfn2+SxewAT/PmEoTJg5ef78Lx2FqR49a41+TfWfmTFMUiigbvPuyGeSqUGZjoyPCc2Q5yX1y7bM73znO0s2C+bemFlsgqllqRMB1IxfK++NjjXVLul0yhYpMbMws5Xlu04co2AQrtGbAV2nEFho7dLzOe644xq1F2sbwmeMMBgT9gthnqpj+iTzK4+LNjqPtSxs+d2UquyEqvhrkpaasDTlZTnlmxfuFl67MWynnnpq6T2kzx6KOhUMUMtwc9NmheFLjbrO3M8m8OhTMKBxDEYY4EPemh7XGQcNhQntolqN7wHVI9eaksUrmKgjrtOf22Y7ldVWGXn6MqlfpHhP4SwulT9MZ8ZYRahemVGGeauOzY+4qnjnaWMTDDDeC5eOUM93SRiwhqrxpjNtC3pT+UwtcFHl8hnvf92yEhrOlBFrk/unvH+v0GKZh0KTYkUei7dQLGf4emb5Rdsjao4Ayy7mqVY8u1kwT/WBVVygoQzbsA3QqrL1ktaJ8aHdXE7WibjDDjvMnX766XkQitBnnWueMLzAqIJdwTAyqtpbId6OORU1zNfpf+MoYfG5zxf/Ekscf2BTHzpiZIfGdCHvvhy7R7JVK+5z8ZbDPg+/Q2FCuwQhiqMfgn0bCt1Q68rxfHCbrKKmdfiyGPCELlZ1cQt8mfA35ZrIO2Xq6jBr5bHcFv8fFt5t65UKjOYd2Kio+H8HfHNhfAwCYdE/TKM4lLRpfvJ+iH1POI6Jb4O+J94Blm+DqHO4M87qKonhYriF8jOe8Yw8MmHMQ905kQpxn2XnRKJ48j1UEYZrpn7OAzexu6vfJ4b7ow8jyJmoOQK4X4I7z4w+AFfBaYRbOsbdGKueccYZyT6wqp4w9gHuiF3u9FrVfpi2A+JHmNDlMU2dYzvs2dpZPtDio4kQAADTgnZQlqhaWBfzgHy86Cb8Yt2OjyiBQyhX1TlMq4fwlPhAEy2PD5DBDX9rBhcGrVk7jr4xoT38qfEGoOPDXxxcRONDgHcsFK4YIKqi9fXFObEpjjzyyKI5rPfpPLskvGgQ7OigIfoKInvScaaIfoXBmEAzWHoT5TKeWFSVNbuVPAonO6UygUCI5vuYlfjWCKTlO3z4oO9b6vdmGo48xsFZZ52Ve0wRKZIBid+wbyOKI30fngheSJj1XlTO1hbtefJNMgbQhxItl3ELbPllPJgVZ+pm8y7vAWdLdvlOtUPh3qtgMNRNql0hsIgIILyFm1LhGkh47aEIFzpTb+bNE8iGnR+XOsg1uRc0AGh2cAeD0MixUdDYCRftgw8+OGeTAZtAb11rWcaOifirRgAhD2HA0wEHHODebBvgDUXt9MhDcal2hcAyRAB/5bGof9HU+Zkvj4INc/oQCmiL8N7Ej/fR48wwLNciELVwrMSSRyi8EB1UQsFYn9bwfIXfFtwwCRiS0vq4IblS20JACIwKAQI+IRx4sihw/rCXX3YINffavC2WFywyojMr7l7abtsINlXs0Og1HIQgJ9StSAikEAhD8ZNHgkEKKaULASEwGgTMZbTgBRubaVtXF5nneHD00UfnxsAY07HBFloLZuKsuY+BWCdGs4Emw0cDxS4DHkVCoA6BUGOAcWm8VXxd2S6uSWPQBaqqUwhsRwiwmQ87dnrCOn5WY1tfx6y/DLQWXCzfIh3NAbskYn9QFxp71rbalEN7gZHfQQcdlGsKMERj0zK8mkRCoA4BDA7DLeDxgED4HpIkGAyJvtoWAiNHAHU4e1+EW2AzOA9Je++9t2PPAws+lds5WMwRh8fGLrvsUuxj3xd/eDLgCmgBkHJvCTp0lj3gD9dBkRCYhkDsBjz0MgL8yvhw2lPTdSGwzBDA2wCXQHzh0RRwHFITf+4wfxfHuHZt2LAhtztgMyQLapS7MfeywUxwQxhg4qGBu+B+++2Xb6IzpOdIwJoOFwSBcBkBlscgGMhdcUFeHrEpBPpCwEL45oF94vbw1X7jG984Gk+JmD9UskMscQzVbnz/Ol9MBNA2hYa0xNGwvRcGvRlpDAaFX40LgfEhQITBkJgVE6jH9i7IZ8bhtTEdDyEUcP9DtTsm7MXLbAhgJxNq5AjEFUfgnK3mpZWSYLA0/FRaCGx3CDz4wQ/O95AnuiDW0UQA7CtmwXYHpm5ICNQgsHnz5sKDhWy4AeN1MzRJMBj6Cah9ITAyBFjjHMM658hgETtCYO4IhJFNqXwsAc1kYzD3R60KhYAQEAJCQAjUI0CsC2wJ2HcBwsWV/YCGdlWEF7krgoJICAgBISAEhEBPCBAMi10bvVBAswTHGoNQAC/SGICCSAgIASEgBIRAxwgQnGvLli35ZmTYF3hiCWHTpk3+dPBfCQaDPwIxIASEgBAQAssBgTVr1ritW7cWt7pixYp8sy2ChhEKeSwk48OxPAnxIQSEgBAQAts1AgS/wr111apVbvXq1XnETn7HRtIYjO2JiB8hIASEgBAQAgMiIOPDAcFX00JACAgBISAExoaABIOxPRHxIwSEgBAQAkJgQAQkGAwIvpoWAkJACAgBITA2BCQYjO2JiB8hIASEgBAQAgMiIMFgQPDVtBAQAkJACAiBsSEgwWBsT0T8CAEhIASEgBAYEAEJBgOCr6aFgBAQAkJACIwNAQkGY3si4kcICAEhIASEwIAISDAYEHw1LQSEgBAQAkJgbAhIMBjbExE/QkAICAEhIAQGRECCwYDgq2khIASEgBAQAmNDQILB2J6I+BECQkAICAEhMCACEgwGBF9NCwEhIASEgBAYGwISDMb2RMSPEBACQkAICIEBEZBgMCD4aloICAEhIASEwNgQkGAwticifoSAEBACQkAIDIiABIMBwVfTQkAICAEhIATGhoAEg7E9EfEjBISAEBACQmBABCQYDAi+mhYCQkAICAEhMDYEJBiM7YmIHyEgBISAEBACAyIgwWBA8NW0EBACQkAICIGxISDBYGxPRPwIASEgBISAEBgQAQkGA4KvpoWAEBACQkAIjA0BCQZjeyLiRwgIASEgBITAgAhIMBgQfDUtBISAEBACQmBsCEgwGNsTET9CQAgIASEgBAZEQILBgOCraSEgBISAEBACY0Pg/wBky4pK+3wiugAAAABJRU5ErkJggg==;" vertex="1" parent="1">
          <mxGeometry x="253.58" y="405.61" width="169.64" height="36.02" as="geometry" />
        </mxCell>
        <mxCell id="5wV4bRW26JI0M855Ar_4-29" style="edgeStyle=orthogonalEdgeStyle;rounded=0;orthogonalLoop=1;jettySize=auto;html=1;entryX=0.919;entryY=-0.012;entryDx=0;entryDy=0;entryPerimeter=0;" edge="1" parent="1" source="5wV4bRW26JI0M855Ar_4-24" target="5wV4bRW26JI0M855Ar_4-26">
          <mxGeometry relative="1" as="geometry">
            <Array as="points">
              <mxPoint x="450" y="390" />
            </Array>
          </mxGeometry>
        </mxCell>
        <mxCell id="5wV4bRW26JI0M855Ar_4-32" value="Setup" style="text;html=1;align=center;verticalAlign=middle;whiteSpace=wrap;rounded=0;" vertex="1" parent="1">
          <mxGeometry x="-110" y="233.75" width="60" height="30" as="geometry" />
        </mxCell>
        <mxCell id="5wV4bRW26JI0M855Ar_4-33" value="Verify" style="text;html=1;align=center;verticalAlign=middle;whiteSpace=wrap;rounded=0;" vertex="1" parent="1">
          <mxGeometry x="-110" y="375.61" width="60" height="30" as="geometry" />
        </mxCell>
        <mxCell id="5wV4bRW26JI0M855Ar_4-35" value="&lt;font style=&quot;font-size: 10px;&quot;&gt;Private Key&lt;/font&gt;" style="text;html=1;align=center;verticalAlign=middle;whiteSpace=wrap;rounded=0;fillColor=#d5e8d4;strokeColor=#82b366;" vertex="1" parent="1">
          <mxGeometry x="99.72000000000003" y="230" width="60" height="18" as="geometry" />
        </mxCell>
      </root>
    </mxGraphModel>
  </diagram>
</mxfile>
